<?xml version="1.0" standalone="no"?>
<!DOCTYPE svg PUBLIC "-//W3C//DTD SVG 1.1//EN" "http://www.w3.org/Graphics/SVG/1.1/DTD/svg11.dtd" >
<svg xmlns="http://www.w3.org/2000/svg" xmlns:xlink="http://www.w3.org/1999/xlink" version="1.1">
<metadata>
Created by FontForge 20201107 at Sat Nov 12 18:22:04 2016
 By Jimmy Wärting
(C) Copyright Joey E. 2005. All Rights Reserved
</metadata>
<defs>
<font id="Derivia-Regular" horiz-adv-x="60" >
  <font-face 
    font-family="Derivia"
    font-weight="400"
    font-stretch="normal"
    units-per-em="2048"
    panose-1="0 0 5 0 0 0 0 0 0 0"
    ascent="1638"
    descent="-410"
    x-height="874"
    cap-height="1536"
    bbox="-108 -662 2660 1888"
    underline-thickness="150"
    underline-position="-217"
    unicode-range="U+000D-2212"
  />
<missing-glyph horiz-adv-x="1024" 
d="M960 1888h-896v-1888h896v1888zM128 1824h768v-1760h-768v1760z" />
    <glyph glyph-name=".notdef" horiz-adv-x="1024" 
d="M960 1888h-896v-1888h896v1888zM128 1824h768v-1760h-768v1760z" />
    <glyph glyph-name="A" unicode="A" horiz-adv-x="1367" 
d="M1050 222l23 -68c10 -30 15 -56 15 -77c0 -10 -2 -19 -6 -27c-16 -16 -44 -24 -84 -24v-26h339v26l-42 4c-19 5 -36 11 -51 20c-14 11 -27 32 -40 64l-31 77l-478 1380l-81 -50l-411 -1287l-34 -97c-15 -41 -32 -70 -49 -87c-21 -16 -51 -24 -90 -24v-26h278v26
c-46 0 -75 8 -87 24c-4 4 -6 14 -6 30c0 24 4 52 12 83l19 71l191 596h412zM834 873h-384l189 590z" />
    <glyph glyph-name="Aacute" unicode="&#xc1;" horiz-adv-x="1367" 
d="M621 1620h107l60 182h-107zM1050 222l23 -68c10 -30 15 -56 15 -77c0 -10 -2 -19 -6 -27c-16 -16 -44 -24 -84 -24v-26h339v26l-42 4c-19 5 -36 11 -51 20c-14 11 -27 32 -40 64l-31 77l-478 1380l-81 -50l-411 -1287l-34 -97c-15 -41 -32 -70 -49 -87
c-21 -16 -51 -24 -90 -24v-26h278v26c-46 0 -75 8 -87 24c-4 4 -6 14 -6 30c0 24 4 52 12 83l19 71l191 596h412zM834 873h-384l189 590z" />
    <glyph glyph-name="Acircumflex" unicode="&#xc2;" horiz-adv-x="600" 
 />
    <glyph glyph-name="Adieresis" unicode="&#xc4;" horiz-adv-x="1367" 
d="M365 1675l84 -86l83 86l-83 84zM781 1675l84 -86l83 86l-83 84zM1050 222l23 -68c10 -30 15 -56 15 -77c0 -10 -2 -19 -6 -27c-16 -16 -44 -24 -84 -24v-26h339v26l-42 4c-19 5 -36 11 -51 20c-14 11 -27 32 -40 64l-31 77l-478 1380l-81 -50l-411 -1287l-34 -97
c-15 -41 -32 -70 -49 -87c-21 -16 -51 -24 -90 -24v-26h278v26c-46 0 -75 8 -87 24c-4 4 -6 14 -6 30c0 24 4 52 12 83l19 71l191 596h412zM834 873h-384l189 590z" />
    <glyph glyph-name="Agrave" unicode="&#xc0;" horiz-adv-x="1367" 
d="M586 1620h107l-65 182h-107zM1050 222l23 -68c10 -30 15 -56 15 -77c0 -10 -2 -19 -6 -27c-16 -16 -44 -24 -84 -24v-26h339v26l-42 4c-19 5 -36 11 -51 20c-14 11 -27 32 -40 64l-31 77l-478 1380l-81 -50l-411 -1287l-34 -97c-15 -41 -32 -70 -49 -87
c-21 -16 -51 -24 -90 -24v-26h278v26c-46 0 -75 8 -87 24c-4 4 -6 14 -6 30c0 24 4 52 12 83l19 71l191 596h412zM834 873h-384l189 590z" />
    <glyph glyph-name="Aring" unicode="&#xc5;" 
 />
    <glyph glyph-name="Atilde" unicode="&#xc3;" horiz-adv-x="1367" 
d="M263 1809l-35 -75c11 -22 25 -44 44 -65c51 -57 106 -87 171 -99c13 -3 27 -4 42 -4c53 0 112 17 179 52c85 44 144 67 177 69c34 -1 67 -15 100 -42c17 -20 30 -41 37 -64l25 58c-11 21 -26 41 -44 62c-43 49 -94 72 -147 77c-51 3 -117 -15 -198 -54s-143 -58 -186 -55
c-24 1 -46 7 -66 16c-41 18 -87 65 -99 124zM1050 222l23 -68c10 -30 15 -56 15 -77c0 -10 -2 -19 -6 -27c-16 -16 -44 -24 -84 -24v-26h339v26l-42 4c-19 5 -36 11 -51 20c-14 11 -27 32 -40 64l-31 77l-478 1380l-81 -50l-411 -1287l-34 -97c-15 -41 -32 -70 -49 -87
c-21 -16 -51 -24 -90 -24v-26h278v26c-46 0 -75 8 -87 24c-4 4 -6 14 -6 30c0 24 4 52 12 83l19 71l191 596h412zM834 873h-384l189 590z" />
    <glyph glyph-name="AE" unicode="&#xc6;" horiz-adv-x="2491" 
d="M1050 222l23 -68c10 -30 15 -56 15 -77c0 -10 -2 -19 -6 -27c-16 -16 -44 -24 -84 -24v-26h339v26l-42 4c-19 5 -36 11 -51 20c-14 11 -27 32 -40 64l-31 77l-478 1380l-81 -50l-411 -1287l-34 -97c-15 -41 -32 -70 -49 -87c-21 -16 -51 -24 -90 -24v-26h278v26
c-46 0 -75 8 -87 24c-4 4 -6 14 -6 30c0 24 4 52 12 83l19 71l191 596h412zM1705 1494h507c105 0 131 -50 163 -122l36 -88l41 -12l-59 264h-996v-24l41 -10c35 -8 49 -26 56 -63l3 -18c1 -7 2 -16 2 -26v-1260l-4 -49c-2 -20 -8 -34 -18 -42c-18 -12 -43 -18 -74 -18v-26
h990l68 231l-38 -9c-6 -17 -18 -41 -35 -72c-35 -64 -59 -79 -126 -96c-37 -9 -66 -13 -94 -13h-463l-48 3c-40 4 -53 24 -53 57l-1 37v692h477c69 0 97 -52 97 -156h38v352h-41c0 -120 -23 -153 -94 -153h-477v495l3 58c4 26 11 43 20 52c5 11 31 16 79 16zM834 873h-384
l189 590z" />
    <glyph glyph-name="B" unicode="B" horiz-adv-x="1071" 
d="M132 142l-5 -45c-8 -39 -23 -55 -56 -63l-41 -9v-24l6 -1h474c87 0 172 20 255 60c166 80 276 219 276 359c0 63 -17 125 -51 186c-68 121 -206 215 -321 247c44 9 89 29 136 59c99 65 154 162 154 270c0 120 -87 238 -230 305c-72 35 -147 50 -231 50h-468v-24l41 -10
c35 -8 49 -26 56 -63l3 -18c1 -7 2 -16 2 -26v-1253zM237 1408l4 32c6 36 17 54 32 54h225c205 0 341 -148 341 -316c0 -42 -13 -87 -39 -135c-52 -97 -138 -170 -210 -170h-353v535zM237 830h332c47 0 94 -18 149 -55c111 -75 194 -211 194 -356c0 -66 -17 -128 -51 -187
c-68 -118 -202 -197 -366 -197l-208 2c-11 4 -20 8 -26 13c-11 9 -18 25 -20 48c-3 11 -4 21 -4 31v701z" />
    <glyph glyph-name="C" unicode="C" horiz-adv-x="1347" 
d="M1308 183c6 13 9 29 9 46l-6 18c-3 6 -7 11 -13 16c-12 12 -31 15 -46 11c-15 -5 -27 -17 -31 -34c0 -2 0 -5 -1 -9c0 -3 1 -8 2 -13c7 -16 18 -30 28 -31c5 -1 8 -2 11 -5l-3 -9c-68 -81 -244 -152 -333 -152c-3 0 -8 0 -13 1c-181 0 -434 95 -566 247
s-187 348 -187 559c0 106 27 216 80 330c106 227 299 388 535 388c93 0 176 -19 249 -56c144 -75 227 -194 227 -257l31 -18l24 166c-9 21 -32 47 -71 79c-77 63 -220 118 -421 118c-155 0 -293 -39 -412 -118c-239 -157 -371 -426 -371 -682c0 -141 35 -273 106 -396
c141 -245 399 -402 683 -402c203 0 413 79 489 203z" />
    <glyph glyph-name="Ccedilla" unicode="&#xc7;" 
 />
    <glyph glyph-name="D" unicode="D" horiz-adv-x="1316" 
d="M38 0h362c259 0 481 81 637 213c155 131 249 311 249 500c0 208 -96 413 -247 568c-156 160 -364 255 -611 255h-398v-24l42 -10c18 -4 29 -9 33 -15c13 -13 20 -26 21 -37c1 -12 3 -22 4 -29s2 -16 2 -26v-1260l-4 -49c-3 -21 -9 -35 -17 -42c-19 -12 -44 -18 -73 -18
v-26zM284 1493c22 7 40 11 55 11c3 0 8 0 13 -1c232 0 439 -96 579 -239s226 -332 226 -520c0 -199 -65 -369 -213 -498s-472 -214 -545 -214c-31 0 -84 1 -91 2c-51 0 -71 29 -71 84v1268l4 59c3 24 18 40 43 48z" />
    <glyph glyph-name="Eth" unicode="&#xd0;" horiz-adv-x="1316" 
d="M1039 1281c151 -155 247 -360 247 -568c0 -189 -94 -369 -249 -500c-156 -132 -378 -213 -637 -213h-362v26c29 0 54 6 73 18c8 7 14 21 17 42l4 49v416h-102v43h102v801c0 10 -1 19 -2 26s-3 17 -4 29c-1 11 -8 24 -21 37c-4 6 -15 11 -33 15l-42 10v24h398
c247 0 455 -95 611 -255zM944 246c148 129 213 299 213 498c0 188 -86 377 -226 520s-347 239 -579 239c-5 1 -10 1 -13 1c-15 0 -33 -4 -55 -11c-25 -8 -40 -24 -43 -48l-4 -59v-792h426v-43h-426v-433c0 -55 20 -84 71 -84c7 -1 60 -2 91 -2c73 0 397 85 545 214z" />
    <glyph glyph-name="E" unicode="E" horiz-adv-x="1124" 
d="M338 1494h507c105 0 131 -50 163 -122l36 -88l41 -12l-59 264h-996v-24l41 -10c35 -8 49 -26 56 -63l3 -18c1 -7 2 -16 2 -26v-1260l-4 -49c-2 -20 -8 -34 -18 -42c-18 -12 -43 -18 -74 -18v-26h990l68 231l-38 -9c-6 -17 -18 -41 -35 -72c-35 -64 -59 -79 -126 -96
c-37 -9 -66 -13 -94 -13h-463l-48 3c-40 4 -53 24 -53 57l-1 37v692h477c69 0 97 -52 97 -156h38v352h-41c0 -120 -23 -153 -94 -153h-477v495l3 58c4 26 11 43 20 52c5 11 31 16 79 16z" />
    <glyph glyph-name="Eacute" unicode="&#xc9;" horiz-adv-x="1124" 
d="M501 1620h107l60 182h-107zM338 1494h507c105 0 131 -50 163 -122l36 -88l41 -12l-59 264h-996v-24l41 -10c35 -8 49 -26 56 -63l3 -18c1 -7 2 -16 2 -26v-1260l-4 -49c-2 -20 -8 -34 -18 -42c-18 -12 -43 -18 -74 -18v-26h990l68 231l-38 -9c-6 -17 -18 -41 -35 -72
c-35 -64 -59 -79 -126 -96c-37 -9 -66 -13 -94 -13h-463l-48 3c-40 4 -53 24 -53 57l-1 37v692h477c69 0 97 -52 97 -156h38v352h-41c0 -120 -23 -153 -94 -153h-477v495l3 58c4 26 11 43 20 52c5 11 31 16 79 16z" />
    <glyph glyph-name="Ecircumflex" unicode="&#xca;" horiz-adv-x="600" 
 />
    <glyph glyph-name="Edieresis" unicode="&#xcb;" horiz-adv-x="1124" 
d="M275 1685l84 -86l83 86l-83 84zM691 1685l84 -86l83 86l-83 84zM338 1494h507c105 0 131 -50 163 -122l36 -88l41 -12l-59 264h-996v-24l41 -10c35 -8 49 -26 56 -63l3 -18c1 -7 2 -16 2 -26v-1260l-4 -49c-2 -20 -8 -34 -18 -42c-18 -12 -43 -18 -74 -18v-26h990l68 231
l-38 -9c-6 -17 -18 -41 -35 -72c-35 -64 -59 -79 -126 -96c-37 -9 -66 -13 -94 -13h-463l-48 3c-40 4 -53 24 -53 57l-1 37v692h477c69 0 97 -52 97 -156h38v352h-41c0 -120 -23 -153 -94 -153h-477v495l3 58c4 26 11 43 20 52c5 11 31 16 79 16z" />
    <glyph glyph-name="Egrave" unicode="&#xc8;" horiz-adv-x="1124" 
d="M586 1620h107l-65 182h-107zM338 1494h507c105 0 131 -50 163 -122l36 -88l41 -12l-59 264h-996v-24l41 -10c35 -8 49 -26 56 -63l3 -18c1 -7 2 -16 2 -26v-1260l-4 -49c-2 -20 -8 -34 -18 -42c-18 -12 -43 -18 -74 -18v-26h990l68 231l-38 -9c-6 -17 -18 -41 -35 -72
c-35 -64 -59 -79 -126 -96c-37 -9 -66 -13 -94 -13h-463l-48 3c-40 4 -53 24 -53 57l-1 37v692h477c69 0 97 -52 97 -156h38v352h-41c0 -120 -23 -153 -94 -153h-477v495l3 58c4 26 11 43 20 52c5 11 31 16 79 16z" />
    <glyph glyph-name="F" unicode="F" horiz-adv-x="1115" 
d="M133 141l-5 -45c-8 -39 -23 -55 -56 -63l-41 -9v-24h308v24l-41 9c-17 5 -29 11 -36 16c-23 20 -25 75 -25 83v18v680h476c69 0 99 -53 99 -156h36v352h-39c0 -59 -8 -100 -23 -123c-11 -20 -36 -30 -73 -30h-476v495l2 55c0 25 6 38 18 49c9 15 36 22 81 22h507
c105 0 131 -50 163 -122l36 -88l41 -12l-59 264h-996v-24l42 -10c18 -4 29 -9 33 -15c13 -13 20 -26 21 -37c1 -12 3 -22 4 -29s2 -16 2 -26z" />
    <glyph glyph-name="G" unicode="G" horiz-adv-x="1455" 
d="M1323 100v320c0 92 22 126 102 126v24h-307v-24l45 -4c19 -3 31 -9 37 -19c13 -22 20 -53 20 -94v-326c0 -48 -167 -84 -243 -84c-131 0 -260 32 -385 95c-251 126 -424 375 -424 726c0 95 23 197 69 308c92 221 283 398 552 398c85 0 165 -16 238 -48
c146 -64 233 -167 257 -259l30 -18l26 160c-95 108 -301 197 -548 197c-209 0 -401 -101 -541 -260c-141 -160 -221 -357 -221 -540c0 -133 33 -257 100 -382c133 -249 376 -416 644 -416c289 0 458 29 549 120z" />
    <glyph glyph-name="H" unicode="H" horiz-adv-x="1394" 
d="M30 0h308v26h-12l-28 7c-36 11 -53 19 -57 64c-3 11 -4 21 -4 31v702h920v-695l-1 -16l-3 -22c-8 -40 -24 -55 -55 -63l-32 -8l-3 -1l-7 -1v-24h308v26h-12l-28 7c-18 5 -30 11 -37 16c-23 20 -25 75 -25 83v18v1236l4 54c8 48 26 55 58 63l40 9v24h-307v-24l40 -10
c18 -4 29 -9 33 -15c13 -13 20 -26 21 -37c1 -12 3 -22 4 -29s2 -16 2 -26v-522h-920v513l4 54c8 48 25 55 57 63l40 9v24h-308v-24l41 -10c35 -8 49 -26 56 -63l3 -18c1 -7 2 -16 2 -26v-1254l-5 -45c-8 -39 -24 -54 -55 -62l-31 -8l-5 -1l-6 -1v-24z" />
    <glyph glyph-name="I" unicode="I" horiz-adv-x="368" 
d="M30 1512l41 -10c35 -8 49 -26 56 -63l3 -18c1 -7 2 -16 2 -26v-1260l-4 -49c-2 -20 -8 -34 -18 -42c-18 -12 -43 -18 -74 -18v-26h302v26l-46 4c-39 8 -49 25 -53 56l-3 37v1263l4 53c8 47 24 56 57 64l41 9v24h-308v-24z" />
    <glyph glyph-name="IJ" unicode="&#x132;" horiz-adv-x="794" 
d="M403 -397l2 -3c9 -15 22 -23 35 -24l12 -1h7c17 7 30 13 39 20l21 15c26 22 49 51 69 88c23 39 38 83 53 147c14 61 21 111 21 148v1395l4 53c8 47 26 56 57 64l41 9v24h-307v-24l40 -10c18 -4 29 -9 33 -15c24 -27 29 -72 29 -92v-1380c0 -107 -4 -192 -13 -255
c-9 -41 -26 -80 -49 -115c-1 -1 -4 -3 -8 -5c-3 2 -5 4 -5 5c-9 15 -25 23 -40 23c-20 -3 -31 -9 -39 -22c-9 -13 -6 -37 -2 -45zM30 1512l41 -10c35 -8 49 -26 56 -63l3 -18c1 -7 2 -16 2 -26v-1260l-4 -49c-2 -20 -8 -34 -18 -42c-18 -12 -43 -18 -74 -18v-26h302v26
l-46 4c-39 8 -49 25 -53 56l-3 37v1263l4 53c8 47 24 56 57 64l41 9v24h-308v-24z" />
    <glyph glyph-name="Iacute" unicode="&#xcd;" horiz-adv-x="368" 
d="M134 1620h107l60 182h-107zM30 1512l41 -10c35 -8 49 -26 56 -63l3 -18c1 -7 2 -16 2 -26v-1260l-4 -49c-2 -20 -8 -34 -18 -42c-18 -12 -43 -18 -74 -18v-26h302v26l-46 4c-39 8 -49 25 -53 56l-3 37v1263l4 53c8 47 24 56 57 64l41 9v24h-308v-24z" />
    <glyph glyph-name="Icircumflex" unicode="&#xce;" horiz-adv-x="600" 
 />
    <glyph glyph-name="Idieresis" unicode="&#xcf;" horiz-adv-x="368" 
d="M-108 1675l84 -86l83 86l-83 84zM308 1675l84 -86l83 86l-83 84zM30 1512l41 -10c35 -8 49 -26 56 -63l3 -18c1 -7 2 -16 2 -26v-1260l-4 -49c-2 -20 -8 -34 -18 -42c-18 -12 -43 -18 -74 -18v-26h302v26l-46 4c-39 8 -49 25 -53 56l-3 37v1263l4 53c8 47 24 56 57 64
l41 9v24h-308v-24z" />
    <glyph glyph-name="Igrave" unicode="&#xcc;" horiz-adv-x="368" 
d="M116 1620h107l-65 182h-107zM30 1512l41 -10c35 -8 49 -26 56 -63l3 -18c1 -7 2 -16 2 -26v-1260l-4 -49c-2 -20 -8 -34 -18 -42c-18 -12 -43 -18 -74 -18v-26h302v26l-46 4c-39 8 -49 25 -53 56l-3 37v1263l4 53c8 47 24 56 57 64l41 9v24h-308v-24z" />
    <glyph glyph-name="J" unicode="J" horiz-adv-x="426" 
d="M35 -397l2 -3c9 -15 22 -23 35 -24l12 -1h7c17 7 30 13 39 20l21 15c26 22 49 51 69 88c23 39 38 83 53 147c14 61 21 111 21 148v1395l4 53c8 47 26 56 57 64l41 9v24h-307v-24l40 -10c18 -4 29 -9 33 -15c24 -27 29 -72 29 -92v-1380c0 -107 -4 -192 -13 -255
c-9 -41 -26 -80 -49 -115c-1 -1 -4 -3 -8 -5c-3 2 -5 4 -5 5c-9 15 -25 23 -40 23c-20 -3 -31 -9 -39 -22c-9 -13 -6 -37 -2 -45z" />
    <glyph glyph-name="K" unicode="K" horiz-adv-x="1214" 
d="M132 141l-5 -45c-8 -39 -24 -54 -55 -62l-34 -8l-8 -2v-24h308v26h-12l-28 7c-36 11 -53 19 -57 64c-3 11 -4 21 -4 31v672l582 -645l58 -65l87 -90h220v26c-30 0 -70 12 -120 36c-24 11 -78 53 -102 72l-18 15l-630 715c389 361 615 560 678 595l8 4c12 7 36 15 73 25
c49 13 78 19 111 19v29h-187l-760 -672v522l4 53c8 48 25 56 57 64l40 9v24h-308v-24l42 -10c18 -4 29 -9 33 -15c13 -13 20 -26 21 -37c1 -12 3 -22 4 -29s2 -16 2 -26v-1254z" />
    <glyph glyph-name="L" unicode="L" horiz-adv-x="1124" 
d="M132 141l-5 -45c-8 -39 -24 -54 -55 -62l-34 -8l-8 -2v-24h996l68 231l-33 -12l-44 -76c-19 -31 -34 -51 -46 -59c-41 -29 -98 -43 -170 -43h-463l-46 4c-19 4 -33 11 -40 20c-5 6 -8 13 -10 20l-1 12l-3 20l-1 21v1230l5 63c9 53 19 81 108 81v24h-320v-24l42 -10
c18 -4 29 -9 33 -15c13 -13 20 -26 21 -37c1 -12 3 -22 4 -29s2 -16 2 -26v-1254z" />
    <glyph glyph-name="Ldot" unicode="&#x13f;" horiz-adv-x="600" 
 />
    <glyph glyph-name="M" unicode="M" horiz-adv-x="1810" 
d="M1537 143l-5 -45c-8 -39 -23 -55 -56 -63l-41 -9v-24h308v24l-41 9c-17 5 -29 11 -36 16c-23 20 -25 75 -25 83v18v1278c5 27 16 47 34 61c22 14 57 21 105 21v26h-237l-613 -1395l-624 1395h-276v-24c27 0 63 -6 91 -34c24 -23 38 -50 43 -83v-1234
c0 -47 -12 -85 -37 -114c-16 -14 -48 -21 -96 -21v-26h286v26l-38 3c-17 3 -31 9 -41 18c-17 17 -26 55 -26 114v1256c23 6 243 -476 659 -1447l44 18l622 1432v-1279z" />
    <glyph glyph-name="N" unicode="N" horiz-adv-x="1413" 
d="M1267 1428l3 18c4 17 11 30 22 40c27 17 45 24 74 24h17v26h-276v-26c37 0 66 -8 88 -24c24 -21 28 -59 28 -87v-1159l-956 1296h-237v-24l48 -3c20 -2 35 -6 45 -12c24 -17 36 -47 36 -90v-1263c0 -28 -1 -34 -5 -55c-4 -17 -11 -30 -22 -39c-23 -16 -53 -24 -88 -24
v-26h276v26h-17c-14 0 -27 2 -40 7c-25 8 -51 25 -56 57l-3 18l-1 36v1307l1063 -1451v1392z" />
    <glyph glyph-name="Ntilde" unicode="&#xd1;" horiz-adv-x="1413" 
d="M263 1809l-35 -75c11 -22 25 -44 44 -65c51 -57 106 -87 171 -99c13 -3 27 -4 42 -4c53 0 112 17 179 52c85 44 144 67 177 69c34 -1 67 -15 100 -42c17 -20 30 -41 37 -64l25 58c-11 21 -26 41 -44 62c-43 49 -94 72 -147 77c-51 3 -117 -15 -198 -54s-143 -58 -186 -55
c-24 1 -46 7 -66 16c-41 18 -87 65 -99 124zM1267 1428l3 18c4 17 11 30 22 40c27 17 45 24 74 24h17v26h-276v-26c37 0 66 -8 88 -24c24 -21 28 -59 28 -87v-1159l-956 1296h-237v-24l48 -3c20 -2 35 -6 45 -12c24 -17 36 -47 36 -90v-1263c0 -28 -1 -34 -5 -55
c-4 -17 -11 -30 -22 -39c-23 -16 -53 -24 -88 -24v-26h276v26h-17c-14 0 -27 2 -40 7c-25 8 -51 25 -56 57l-3 18l-1 36v1307l1063 -1451v1392z" />
    <glyph glyph-name="O" unicode="O" horiz-adv-x="1566" 
d="M762 1578c-135 0 -259 -37 -371 -111c-225 -148 -361 -414 -361 -689c0 -203 78 -410 209 -558c67 -77 143 -133 234 -176c90 -43 186 -64 289 -64c139 0 272 38 388 109c241 149 386 406 386 689c0 143 -35 276 -104 399c-140 246 -389 401 -670 401zM162 769
c0 122 21 243 62 363c83 239 263 408 544 408c94 0 192 -35 293 -105c202 -140 346 -389 346 -654c0 -125 -19 -244 -57 -358c-77 -228 -263 -398 -582 -398c-106 0 -206 35 -300 104c-189 139 -306 383 -306 640z" />
    <glyph glyph-name="Oacute" unicode="&#xd3;" horiz-adv-x="1566" 
d="M723 1620h107l60 182h-107zM762 1578c-135 0 -259 -37 -371 -111c-225 -148 -361 -414 -361 -689c0 -203 78 -410 209 -558c67 -77 143 -133 234 -176c90 -43 186 -64 289 -64c139 0 272 38 388 109c241 149 386 406 386 689c0 143 -35 276 -104 399
c-140 246 -389 401 -670 401zM162 769c0 122 21 243 62 363c83 239 263 408 544 408c94 0 192 -35 293 -105c202 -140 346 -389 346 -654c0 -125 -19 -244 -57 -358c-77 -228 -263 -398 -582 -398c-106 0 -206 35 -300 104c-189 139 -306 383 -306 640z" />
    <glyph glyph-name="Ocircumflex" unicode="&#xd4;" horiz-adv-x="600" 
 />
    <glyph glyph-name="Odieresis" unicode="&#xd6;" horiz-adv-x="1566" 
d="M435 1685l84 -86l83 86l-83 84zM931 1685l84 -86l83 86l-83 84zM762 1578c-135 0 -259 -37 -371 -111c-225 -148 -361 -414 -361 -689c0 -203 78 -410 209 -558c67 -77 143 -133 234 -176c90 -43 186 -64 289 -64c139 0 272 38 388 109c241 149 386 406 386 689
c0 143 -35 276 -104 399c-140 246 -389 401 -670 401zM162 769c0 122 21 243 62 363c83 239 263 408 544 408c94 0 192 -35 293 -105c202 -140 346 -389 346 -654c0 -125 -19 -244 -57 -358c-77 -228 -263 -398 -582 -398c-106 0 -206 35 -300 104
c-189 139 -306 383 -306 640z" />
    <glyph glyph-name="Ograve" unicode="&#xd2;" horiz-adv-x="1566" 
d="M726 1620h107l-65 182h-107zM762 1578c-135 0 -259 -37 -371 -111c-225 -148 -361 -414 -361 -689c0 -203 78 -410 209 -558c67 -77 143 -133 234 -176c90 -43 186 -64 289 -64c139 0 272 38 388 109c241 149 386 406 386 689c0 143 -35 276 -104 399
c-140 246 -389 401 -670 401zM162 769c0 122 21 243 62 363c83 239 263 408 544 408c94 0 192 -35 293 -105c202 -140 346 -389 346 -654c0 -125 -19 -244 -57 -358c-77 -228 -263 -398 -582 -398c-106 0 -206 35 -300 104c-189 139 -306 383 -306 640z" />
    <glyph glyph-name="Oslash" unicode="&#xd8;" horiz-adv-x="1566" 
d="M1432 1177c69 -123 104 -256 104 -399c0 -283 -145 -540 -386 -689c-116 -71 -249 -109 -388 -109c-63 0 -124 8 -182 24l-11 -34h-107l23 69l-12 5c-91 43 -167 99 -234 176c-131 148 -209 355 -209 558c0 275 136 541 361 689c112 74 236 111 371 111
c76 0 150 -11 220 -33l11 34h107l-23 -70c147 -68 271 -184 355 -332zM468 129c13 -9 25 -18 38 -26l458 1389c-67 32 -132 48 -196 48c-281 0 -461 -169 -544 -408c-41 -120 -62 -241 -62 -363c0 -257 117 -501 306 -640zM1350 423c38 114 57 233 57 358
c0 265 -144 514 -346 654l-7 5l-456 -1383c55 -21 112 -32 170 -32c319 0 505 170 582 398z" />
    <glyph glyph-name="Otilde" unicode="&#xd5;" horiz-adv-x="1566" 
d="M383 1809l-35 -75c11 -22 25 -44 44 -65c51 -57 106 -87 171 -99c13 -3 27 -4 42 -4c53 0 112 17 179 52c85 44 144 67 177 69c34 -1 67 -15 100 -42c17 -20 30 -41 37 -64l25 58c-11 21 -26 41 -44 62c-43 49 -94 72 -147 77c-51 3 -117 -15 -198 -54s-143 -58 -186 -55
c-24 1 -46 7 -66 16c-41 18 -87 65 -99 124zM762 1578c-135 0 -259 -37 -371 -111c-225 -148 -361 -414 -361 -689c0 -203 78 -410 209 -558c67 -77 143 -133 234 -176c90 -43 186 -64 289 -64c139 0 272 38 388 109c241 149 386 406 386 689c0 143 -35 276 -104 399
c-140 246 -389 401 -670 401zM162 769c0 122 21 243 62 363c83 239 263 408 544 408c94 0 192 -35 293 -105c202 -140 346 -389 346 -654c0 -125 -19 -244 -57 -358c-77 -228 -263 -398 -582 -398c-106 0 -206 35 -300 104c-189 139 -306 383 -306 640z" />
    <glyph glyph-name="OE" unicode="&#x152;" horiz-adv-x="2690" 
d="M762 1578c-135 0 -259 -37 -371 -111c-225 -148 -361 -414 -361 -689c0 -203 78 -410 209 -558c67 -77 143 -133 234 -176c90 -43 186 -64 289 -64c139 0 272 38 388 109c241 149 386 406 386 689c0 143 -35 276 -104 399c-140 246 -389 401 -670 401zM162 769
c0 122 21 243 62 363c83 239 263 408 544 408c94 0 192 -35 293 -105c202 -140 346 -389 346 -654c0 -125 -19 -244 -57 -358c-77 -228 -263 -398 -582 -398c-106 0 -206 35 -300 104c-189 139 -306 383 -306 640zM1904 1494h507c105 0 131 -50 163 -122l36 -88l41 -12
l-59 264h-996v-24l41 -10c35 -8 49 -26 56 -63l3 -18c1 -7 2 -16 2 -26v-1260l-4 -49c-2 -20 -8 -34 -18 -42c-18 -12 -43 -18 -74 -18v-26h990l68 231l-38 -9c-6 -17 -18 -41 -35 -72c-35 -64 -59 -79 -126 -96c-37 -9 -66 -13 -94 -13h-463l-48 3c-40 4 -53 24 -53 57
l-1 37v692h477c69 0 97 -52 97 -156h38v352h-41c0 -120 -23 -153 -94 -153h-477v495l3 58c4 26 11 43 20 52c5 11 31 16 79 16z" />
    <glyph glyph-name="P" unicode="P" horiz-adv-x="989" 
d="M30 1512l42 -10c18 -4 29 -9 33 -15c13 -13 20 -26 21 -37c1 -12 3 -22 4 -29s2 -16 2 -26v-1260l-4 -49c-3 -21 -9 -35 -17 -42c-19 -12 -44 -18 -73 -18v-26h309v26l-49 5l-31 7l-15 12c-5 5 -8 12 -10 21c-4 17 -6 42 -6 73v678h171c71 0 110 1 115 2
c86 0 161 14 224 42c126 55 213 169 213 277c0 69 -17 130 -52 191c-69 123 -209 202 -409 202h-468v-24zM237 1408l4 32c4 21 14 36 30 43c15 7 91 11 227 11c251 0 338 -160 338 -351c0 -77 -25 -143 -75 -198c-49 -55 -121 -73 -240 -73h-284v536z" />
    <glyph glyph-name="Thorn" unicode="&#xde;" horiz-adv-x="600" 
 />
    <glyph glyph-name="Q" unicode="Q" horiz-adv-x="1566" 
d="M979 -93l-117 76c103 16 199 51 289 105c239 145 385 405 385 689c0 143 -35 276 -104 399c-140 246 -389 400 -670 400c-135 0 -259 -37 -372 -112c-225 -149 -360 -412 -360 -687c0 -105 19 -202 55 -301c75 -196 207 -349 388 -433c85 -41 154 -61 230 -61l-148 -106
l26 -21c57 40 119 57 191 57c71 0 155 -35 266 -104c103 -65 201 -134 276 -194l216 188l-12 18c-17 -11 -49 -25 -89 -41c-40 -17 -75 -26 -105 -26c-53 0 -96 8 -129 23c-41 20 -108 60 -216 131zM801 24h-33c-107 0 -207 35 -301 104c-188 138 -305 381 -305 640
c0 122 21 243 62 363c83 239 263 408 544 408c95 0 192 -35 293 -105c201 -140 346 -389 346 -654c0 -251 -68 -490 -256 -642c-92 -73 -209 -114 -350 -114z" />
    <glyph glyph-name="R" unicode="R" horiz-adv-x="1139" 
d="M30 1512l41 -10c35 -8 49 -26 56 -63l3 -18c1 -7 2 -16 2 -26v-1259l-4 -49c-2 -20 -8 -34 -18 -42c-18 -12 -43 -18 -74 -18v-27l311 1v26l-49 5c-17 3 -29 7 -37 10l-9 8c-7 9 -11 21 -13 36l-3 37v700h141c143 -231 249 -398 318 -501l156 -228
c53 -64 102 -96 147 -96l61 2l50 1v26c-55 0 -97 22 -126 67l-476 729l15 2c85 0 159 14 222 42c125 56 213 169 213 277c0 69 -17 130 -52 191c-69 123 -207 202 -408 202h-467v-25zM286 1485c37 12 139 10 211 10c249 0 337 -160 337 -351c0 -153 -127 -271 -334 -271
h-264v513l4 53c4 23 19 38 46 46z" />
    <glyph glyph-name="S" unicode="S" horiz-adv-x="907" 
d="M33 135l4 -9c21 -45 57 -79 109 -104c58 -28 150 -42 277 -42c284 0 454 155 454 423c0 209 -107 373 -396 477s-352 174 -352 323c0 216 98 325 282 325c92 0 164 -16 216 -49c23 -15 42 -33 56 -52c7 -8 12 -16 17 -25l18 -30v-6c-1 -3 -3 -5 -7 -5
c-16 -8 -23 -21 -26 -38c0 -10 1 -18 2 -23c8 -16 19 -24 39 -28l21 3l3 2c9 4 15 9 19 15c5 5 7 10 7 16l1 2c5 10 8 25 8 45c0 32 -13 60 -40 91c-55 64 -130 112 -261 132c-147 0 -257 -39 -329 -117c-71 -76 -94 -172 -94 -320c0 -176 99 -282 369 -386
c270 -105 362 -238 362 -391c0 -232 -135 -348 -404 -348c-99 0 -180 24 -244 72l-32 24l-5 5l-3 5c2 4 4 6 5 7c7 6 11 13 12 21l1 24c-7 16 -16 28 -30 33c-14 4 -36 0 -44 -9l-3 -3c-7 -6 -11 -12 -13 -19l-2 -13v-6l1 -12l1 -7z" />
    <glyph glyph-name="T" unicode="T" horiz-adv-x="1178" 
d="M641 1368l3 38c1 3 2 9 2 16c8 40 33 72 97 72h165c105 0 131 -50 163 -122l36 -88l41 -12l-59 264h-1000l-59 -264l41 12c15 43 58 139 73 158c32 35 74 52 126 52h165c31 0 56 -8 74 -25c24 -23 26 -59 27 -74c1 -7 1 -13 1 -18v-1242l-4 -49c-2 -20 -8 -34 -18 -42
c-18 -12 -53 -18 -104 -18v-26h350v26l-57 4c-49 8 -56 24 -60 56l-3 37v1245z" />
    <glyph glyph-name="U" unicode="U" horiz-adv-x="1467" 
d="M1211 1397v-991c-18 -63 -48 -125 -90 -184c-85 -119 -225 -208 -402 -208c-81 0 -159 12 -232 37c-147 49 -250 167 -250 370v967l4 54c8 48 25 55 57 63l40 9v24h-308v-24l41 -10c35 -8 49 -26 56 -63l3 -18c1 -7 2 -16 2 -26v-1008c0 -297 280 -417 587 -417
c219 0 424 131 492 347v-317h226v26l-52 8c-22 5 -37 13 -45 22c-17 18 -26 70 -26 157v1173l4 53c8 47 25 56 58 64l40 9v24h-307v-24l41 -10c17 -4 28 -9 32 -15c24 -27 29 -72 29 -92z" />
    <glyph glyph-name="Uacute" unicode="&#xda;" horiz-adv-x="1467" 
d="M672 1620h107l60 182h-107zM1211 1397v-991c-18 -63 -48 -125 -90 -184c-85 -119 -225 -208 -402 -208c-81 0 -159 12 -232 37c-147 49 -250 167 -250 370v967l4 54c8 48 25 55 57 63l40 9v24h-308v-24l41 -10c35 -8 49 -26 56 -63l3 -18c1 -7 2 -16 2 -26v-1008
c0 -297 280 -417 587 -417c219 0 424 131 492 347v-317h226v26l-52 8c-22 5 -37 13 -45 22c-17 18 -26 70 -26 157v1173l4 53c8 47 25 56 58 64l40 9v24h-307v-24l41 -10c17 -4 28 -9 32 -15c24 -27 29 -72 29 -92z" />
    <glyph glyph-name="Ucircumflex" unicode="&#xdb;" horiz-adv-x="600" 
 />
    <glyph glyph-name="Udieresis" unicode="&#xdc;" horiz-adv-x="1467" 
d="M405 1675l84 -86l83 86l-83 84zM901 1675l84 -86l83 86l-83 84zM1211 1397v-991c-18 -63 -48 -125 -90 -184c-85 -119 -225 -208 -402 -208c-81 0 -159 12 -232 37c-147 49 -250 167 -250 370v967l4 54c8 48 25 55 57 63l40 9v24h-308v-24l41 -10c35 -8 49 -26 56 -63
l3 -18c1 -7 2 -16 2 -26v-1008c0 -297 280 -417 587 -417c219 0 424 131 492 347v-317h226v26l-52 8c-22 5 -37 13 -45 22c-17 18 -26 70 -26 157v1173l4 53c8 47 25 56 58 64l40 9v24h-307v-24l41 -10c17 -4 28 -9 32 -15c24 -27 29 -72 29 -92z" />
    <glyph glyph-name="Ugrave" unicode="&#xd9;" horiz-adv-x="1467" 
d="M676 1620h107l-65 182h-107zM1211 1397v-991c-18 -63 -48 -125 -90 -184c-85 -119 -225 -208 -402 -208c-81 0 -159 12 -232 37c-147 49 -250 167 -250 370v967l4 54c8 48 25 55 57 63l40 9v24h-308v-24l41 -10c35 -8 49 -26 56 -63l3 -18c1 -7 2 -16 2 -26v-1008
c0 -297 280 -417 587 -417c219 0 424 131 492 347v-317h226v26l-52 8c-22 5 -37 13 -45 22c-17 18 -26 70 -26 157v1173l4 53c8 47 25 56 58 64l40 9v24h-307v-24l41 -10c17 -4 28 -9 32 -15c24 -27 29 -72 29 -92z" />
    <glyph glyph-name="V" unicode="V" horiz-adv-x="1367" 
d="M1146 1476c4 -4 6 -14 6 -30c0 -26 -4 -54 -12 -84l-19 -69l-393 -1230l-411 1242l-24 69c-11 33 -14 55 -14 78c0 8 2 16 6 24c10 17 38 25 84 25v24h-339v-24l51 -9c45 -11 52 -15 80 -80l33 -77l478 -1379l81 48l411 1289c9 32 19 62 32 97c31 81 58 111 141 111v24
h-278v-24l46 -5c20 -4 34 -11 41 -20z" />
    <glyph glyph-name="W" unicode="W" horiz-adv-x="1986" 
d="M1053 951l104 342c9 32 19 62 32 97c31 81 58 111 141 111v24h-680v-24l51 -9c43 -9 51 -15 79 -80l34 -77l164 -477l-250 -794l-411 1241l-24 69c-11 33 -14 55 -14 78c0 9 2 17 6 25c12 16 40 24 84 24v24h-339v-24l52 -8c43 -9 50 -16 78 -81l34 -77l478 -1379l81 50
l99 316l149 474l292 -849l80 48l412 1289l31 101c32 89 60 115 140 115v24h-276v-24l46 -5c20 -4 33 -11 40 -20c5 -4 7 -14 7 -30c0 -27 -4 -56 -12 -88l-19 -73l-393 -1230zM937 1331l-19 55c-6 22 -9 43 -9 62l6 14c3 25 39 38 107 38c66 0 102 -13 107 -38
c4 -5 6 -12 6 -20c0 -27 -3 -49 -7 -69l-14 -54l-81 -282z" />
    <glyph glyph-name="Wacute" unicode="&#x1e82;" horiz-adv-x="1986" 
d="M971 1620h107l60 182h-107zM1053 951l104 342c9 32 19 62 32 97c31 81 58 111 141 111v24h-680v-24l51 -9c43 -9 51 -15 79 -80l34 -77l164 -477l-250 -794l-411 1241l-24 69c-11 33 -14 55 -14 78c0 9 2 17 6 25c12 16 40 24 84 24v24h-339v-24l52 -8
c43 -9 50 -16 78 -81l34 -77l478 -1379l81 50l99 316l149 474l292 -849l80 48l412 1289l31 101c32 89 60 115 140 115v24h-276v-24l46 -5c20 -4 33 -11 40 -20c5 -4 7 -14 7 -30c0 -27 -4 -56 -12 -88l-19 -73l-393 -1230zM937 1331l-19 55c-6 22 -9 43 -9 62l6 14
c3 25 39 38 107 38c66 0 102 -13 107 -38c4 -5 6 -12 6 -20c0 -27 -3 -49 -7 -69l-14 -54l-81 -282z" />
    <glyph glyph-name="Wcircumflex" unicode="&#x174;" horiz-adv-x="600" 
 />
    <glyph glyph-name="Wdieresis" unicode="&#x1e84;" horiz-adv-x="1986" 
d="M749 1675l84 -86l83 86l-83 84zM1165 1675l84 -86l83 86l-83 84zM1053 951l104 342c9 32 19 62 32 97c31 81 58 111 141 111v24h-680v-24l51 -9c43 -9 51 -15 79 -80l34 -77l164 -477l-250 -794l-411 1241l-24 69c-11 33 -14 55 -14 78c0 9 2 17 6 25c12 16 40 24 84 24
v24h-339v-24l52 -8c43 -9 50 -16 78 -81l34 -77l478 -1379l81 50l99 316l149 474l292 -849l80 48l412 1289l31 101c32 89 60 115 140 115v24h-276v-24l46 -5c20 -4 33 -11 40 -20c5 -4 7 -14 7 -30c0 -27 -4 -56 -12 -88l-19 -73l-393 -1230zM937 1331l-19 55
c-6 22 -9 43 -9 62l6 14c3 25 39 38 107 38c66 0 102 -13 107 -38c4 -5 6 -12 6 -20c0 -27 -3 -49 -7 -69l-14 -54l-81 -282z" />
    <glyph glyph-name="Wgrave" unicode="&#x1e80;" horiz-adv-x="1986" 
d="M1053 951l104 342c9 32 19 62 32 97c31 81 58 111 141 111v24h-680v-24l51 -9c43 -9 51 -15 79 -80l34 -77l164 -477l-250 -794l-411 1241l-24 69c-11 33 -14 55 -14 78c0 9 2 17 6 25c12 16 40 24 84 24v24h-339v-24l52 -8c43 -9 50 -16 78 -81l34 -77l478 -1379l81 50
l99 316l149 474l292 -849l80 48l412 1289l31 101c32 89 60 115 140 115v24h-276v-24l46 -5c20 -4 33 -11 40 -20c5 -4 7 -14 7 -30c0 -27 -4 -56 -12 -88l-19 -73l-393 -1230zM937 1331l-19 55c-6 22 -9 43 -9 62l6 14c3 25 39 38 107 38c66 0 102 -13 107 -38
c4 -5 6 -12 6 -20c0 -27 -3 -49 -7 -69l-14 -54l-81 -282z" />
    <glyph glyph-name="X" unicode="X" horiz-adv-x="1367" 
d="M1100 1310l71 93c64 81 84 109 151 109v24h-278v-24l56 -4c25 -3 39 -10 44 -23c3 -4 5 -10 5 -19c0 -18 -10 -41 -29 -68l-64 -88l-334 -480l-338 516c-9 18 -25 42 -48 73c-15 23 -23 40 -23 51c0 5 2 10 5 13c15 28 53 29 78 29v24h-337v-24l49 -10
c22 -4 36 -9 42 -15c15 -10 33 -30 55 -61l53 -74l387 -599l-387 -537l-62 -85c-57 -73 -81 -105 -166 -105v-26h278v26c-55 0 -84 8 -87 24c-3 3 -4 7 -4 12c0 28 62 118 91 154l364 497l378 -586c18 -29 27 -51 27 -65c0 -7 -2 -13 -6 -17c-10 -13 -34 -19 -72 -19v-26
h338v26l-42 6c-17 4 -31 10 -41 18s-28 28 -53 61l-61 80l-390 603z" />
    <glyph glyph-name="Y" unicode="Y" horiz-adv-x="1311" 
d="M731 123v648c0 49 8 83 25 102l353 522l36 48c32 40 71 69 136 69v24h-277v-24l46 -6c19 -3 31 -9 35 -19l6 -24c0 -15 -3 -29 -10 -42l-16 -26l-361 -516l-381 516l-28 32c-11 15 -16 29 -16 42c0 4 2 10 6 18c10 17 38 25 84 25v24h-339v-24l50 -10
c41 -8 58 -23 86 -55l34 -40l399 -534c19 -27 28 -58 28 -93v-645l-4 -49c-2 -20 -8 -34 -18 -42c-18 -12 -43 -18 -74 -18v-26h302v26l-46 4c-40 8 -49 24 -53 56z" />
    <glyph glyph-name="Yacute" unicode="&#xdd;" horiz-adv-x="1311" 
d="M664 1620h107l67 182h-107zM731 123v648c0 49 8 83 25 102l353 522l36 48c32 40 71 69 136 69v24h-277v-24l46 -6c19 -3 31 -9 35 -19l6 -24c0 -15 -3 -29 -10 -42l-16 -26l-361 -516l-381 516l-28 32c-11 15 -16 29 -16 42c0 4 2 10 6 18c10 17 38 25 84 25v24h-339v-24
l50 -10c41 -8 58 -23 86 -55l34 -40l399 -534c19 -27 28 -58 28 -93v-645l-4 -49c-2 -20 -8 -34 -18 -42c-18 -12 -43 -18 -74 -18v-26h302v26l-46 4c-40 8 -49 24 -53 56z" />
    <glyph glyph-name="Ycircumflex" unicode="&#x176;" horiz-adv-x="600" 
 />
    <glyph glyph-name="Ydieresis" unicode="&#x178;" horiz-adv-x="1311" 
d="M398 1675l84 -86l83 86l-83 84zM814 1675l84 -86l83 86l-83 84zM731 123v648c0 49 8 83 25 102l353 522l36 48c32 40 71 69 136 69v24h-277v-24l46 -6c19 -3 31 -9 35 -19l6 -24c0 -15 -3 -29 -10 -42l-16 -26l-361 -516l-381 516l-28 32c-11 15 -16 29 -16 42
c0 4 2 10 6 18c10 17 38 25 84 25v24h-339v-24l50 -10c41 -8 58 -23 86 -55l34 -40l399 -534c19 -27 28 -58 28 -93v-645l-4 -49c-2 -20 -8 -34 -18 -42c-18 -12 -43 -18 -74 -18v-26h302v26l-46 4c-40 8 -49 24 -53 56z" />
    <glyph glyph-name="Ygrave" unicode="&#x1ef2;" horiz-adv-x="1311" 
d="M606 1620h107l-65 182h-107zM731 123v648c0 49 8 83 25 102l353 522l36 48c32 40 71 69 136 69v24h-277v-24l46 -6c19 -3 31 -9 35 -19l6 -24c0 -15 -3 -29 -10 -42l-16 -26l-361 -516l-381 516l-28 32c-11 15 -16 29 -16 42c0 4 2 10 6 18c10 17 38 25 84 25v24h-339
v-24l50 -10c41 -8 58 -23 86 -55l34 -40l399 -534c19 -27 28 -58 28 -93v-645l-4 -49c-2 -20 -8 -34 -18 -42c-18 -12 -43 -18 -74 -18v-26h302v26l-46 4c-40 8 -49 24 -53 56z" />
    <glyph glyph-name="Z" unicode="Z" horiz-adv-x="1376" 
d="M1346 231l-38 -12l-44 -78c-41 -65 -50 -70 -117 -87c-37 -9 -66 -13 -94 -13h-826l1087 1495h-1203l-81 -255l38 12c23 39 79 128 120 152c49 28 147 52 208 52h771l-1069 -1453l-30 -44h1210z" />
    <glyph glyph-name="a" unicode="a" horiz-adv-x="784" 
d="M47 742v-14c0 -15 5 -28 16 -36l3 -3c6 -5 12 -8 19 -9l25 3c17 5 26 19 29 34c0 21 -3 35 -15 44l-5 7l2 5l31 30c30 26 66 44 108 54c21 4 44 5 67 5c42 0 78 -5 108 -16c59 -21 119 -74 119 -165v-237c-19 22 -42 41 -67 56c-42 25 -98 38 -169 38
c-67 0 -121 -13 -161 -39c-81 -52 -128 -144 -128 -240c0 -36 7 -69 19 -104c14 -35 33 -65 56 -91c46 -52 101 -83 214 -83c70 0 126 13 169 38c27 15 50 35 70 60c5 -19 14 -35 28 -47c22 -21 64 -32 126 -32h43v26c-64 0 -89 20 -93 60l-3 49v406c0 105 -39 195 -104 268
l-20 22c-45 41 -120 61 -227 61c-70 -7 -120 -18 -149 -34c-60 -33 -82 -62 -91 -83l-19 -26zM105 255c0 41 7 80 19 120c25 80 73 136 200 136c49 0 90 -11 122 -34c63 -46 108 -131 108 -219c0 -41 -6 -81 -18 -118c-24 -76 -72 -132 -212 -132c-53 0 -94 11 -124 34
c-60 45 -95 129 -95 213z" />
    <glyph glyph-name="aacute" unicode="&#xe1;" horiz-adv-x="785" 
d="M274 1159h107l60 182h-107zM48 742v-14c0 -15 5 -28 16 -36l3 -3c6 -5 12 -8 19 -9l25 3c17 5 26 19 29 34c0 21 -3 35 -15 44l-5 7l2 5l31 30c30 26 66 44 108 54c21 4 44 5 67 5c42 0 78 -5 108 -16c59 -21 119 -74 119 -165v-237c-19 22 -42 41 -67 56
c-42 25 -98 38 -169 38c-67 0 -121 -13 -161 -39c-81 -52 -128 -144 -128 -240c0 -36 7 -69 19 -104c14 -35 33 -65 56 -91c46 -52 101 -83 214 -83c70 0 126 13 169 38c27 15 50 35 70 60c5 -19 14 -35 28 -47c22 -21 64 -32 126 -32h43v26c-64 0 -89 20 -93 60l-3 49v406
c0 105 -39 195 -104 268l-20 22c-45 41 -120 61 -227 61c-70 -7 -120 -18 -149 -34c-60 -33 -82 -62 -91 -83l-19 -26zM106 255c0 41 7 80 19 120c25 80 73 136 200 136c49 0 90 -11 122 -34c63 -46 108 -131 108 -219c0 -41 -6 -81 -18 -118c-24 -76 -72 -132 -212 -132
c-53 0 -94 11 -124 34c-60 45 -95 129 -95 213z" />
    <glyph glyph-name="acircumflex" unicode="&#xe2;" horiz-adv-x="785" 
 />
    <glyph glyph-name="adieresis" unicode="&#xe4;" horiz-adv-x="1037" 
d="M96 1264l84 -86l83 86l-83 84zM410 1264l84 -86l83 86l-83 84zM48 742v-14c0 -15 5 -28 16 -36l3 -3c6 -5 12 -8 19 -9l25 3c17 5 26 19 29 34c0 21 -3 35 -15 44l-5 7l2 5l31 30c30 26 66 44 108 54c21 4 44 5 67 5c42 0 78 -5 108 -16c59 -21 119 -74 119 -165v-237
c-19 22 -42 41 -67 56c-42 25 -98 38 -169 38c-67 0 -121 -13 -161 -39c-81 -52 -128 -144 -128 -240c0 -36 7 -69 19 -104c14 -35 33 -65 56 -91c46 -52 101 -83 214 -83c70 0 126 13 169 38c27 15 50 35 70 60c5 -19 14 -35 28 -47c22 -21 64 -32 126 -32h43v26
c-64 0 -89 20 -93 60l-3 49v406c0 105 -39 195 -104 268l-20 22c-45 41 -120 61 -227 61c-70 -7 -120 -18 -149 -34c-60 -33 -82 -62 -91 -83l-19 -26zM106 255c0 41 7 80 19 120c25 80 73 136 200 136c49 0 90 -11 122 -34c63 -46 108 -131 108 -219c0 -41 -6 -81 -18 -118
c-24 -76 -72 -132 -212 -132c-53 0 -94 11 -124 34c-60 45 -95 129 -95 213z" />
    <glyph glyph-name="agrave" unicode="&#xe0;" horiz-adv-x="785" 
 />
    <glyph glyph-name="aring" unicode="&#xe5;" horiz-adv-x="1037" 
 />
    <glyph glyph-name="atilde" unicode="&#xe3;" horiz-adv-x="830" 
d="M-3 1340l-35 -75c11 -22 25 -44 44 -65c51 -57 106 -87 171 -99c13 -3 27 -4 42 -4c53 0 112 17 179 52c85 44 144 67 177 69c34 -1 67 -15 100 -42c17 -20 30 -41 37 -64l25 58c-11 21 -26 41 -44 62c-43 49 -94 72 -147 77c-51 3 -117 -15 -198 -54s-143 -58 -186 -55
c-24 1 -46 7 -66 16c-41 18 -87 65 -99 124zM47 742v-14c0 -15 5 -28 16 -36l3 -3c6 -5 12 -8 19 -9l25 3c17 5 26 19 29 34c0 21 -3 35 -15 44l-5 7l2 5l31 30c30 26 66 44 108 54c21 4 44 5 67 5c42 0 78 -5 108 -16c59 -21 119 -74 119 -165v-237c-19 22 -42 41 -67 56
c-42 25 -98 38 -169 38c-67 0 -121 -13 -161 -39c-81 -52 -128 -144 -128 -240c0 -36 7 -69 19 -104c14 -35 33 -65 56 -91c46 -52 101 -83 214 -83c70 0 126 13 169 38c27 15 50 35 70 60c5 -19 14 -35 28 -47c22 -21 64 -32 126 -32h43v26c-64 0 -89 20 -93 60l-3 49v406
c0 105 -39 195 -104 268l-20 22c-45 41 -120 61 -227 61c-70 -7 -120 -18 -149 -34c-60 -33 -82 -62 -91 -83l-19 -26zM105 255c0 41 7 80 19 120c25 80 73 136 200 136c49 0 90 -11 122 -34c63 -46 108 -131 108 -219c0 -41 -6 -81 -18 -118c-24 -76 -72 -132 -212 -132
c-53 0 -94 11 -124 34c-60 45 -95 129 -95 213z" />
    <glyph glyph-name="ae" unicode="&#xe6;" horiz-adv-x="1719" 
d="M47 742v-14c0 -15 5 -28 16 -36l3 -3c6 -5 12 -8 19 -9l25 3c17 5 26 19 29 34c0 21 -3 35 -15 44l-5 7l2 5l31 30c30 26 66 44 108 54c21 4 44 5 67 5c42 0 78 -5 108 -16c59 -21 119 -74 119 -165v-237c-19 22 -42 41 -67 56c-42 25 -98 38 -169 38
c-67 0 -121 -13 -161 -39c-81 -52 -128 -144 -128 -240c0 -36 7 -69 19 -104c14 -35 33 -65 56 -91c46 -52 101 -83 214 -83c70 0 126 13 169 38c27 15 50 35 70 60c5 -19 14 -35 28 -47c22 -21 64 -32 126 -32h43v26c-64 0 -89 20 -93 60l-3 49v406c0 105 -39 195 -104 268
l-20 22c-45 41 -120 61 -227 61c-70 -7 -120 -18 -149 -34c-60 -33 -82 -62 -91 -83l-19 -26zM1689 431v5c0 81 -20 157 -60 228c-81 140 -225 228 -390 228c-78 0 -150 -21 -215 -63c-132 -85 -210 -236 -210 -393c0 -116 46 -235 122 -320c75 -85 186 -136 303 -136l29 -1
c57 0 126 17 206 51c72 40 132 111 180 213h-45c-29 -72 -74 -130 -137 -173c-68 -40 -140 -63 -219 -63c-67 0 -125 18 -173 55c-100 79 -163 217 -163 365v4h772zM1583 474h-664c0 52 11 96 31 159c44 133 143 232 292 232c100 0 220 -85 291 -218c32 -63 50 -117 50 -173
zM105 255c0 41 7 80 19 120c25 80 73 136 200 136c49 0 90 -11 122 -34c63 -46 108 -131 108 -219c0 -41 -6 -81 -18 -118c-24 -76 -72 -132 -212 -132c-53 0 -94 11 -124 34c-60 45 -95 129 -95 213z" />
    <glyph glyph-name="b" unicode="b" horiz-adv-x="1038" 
d="M236 1v141c63 -79 167 -160 322 -160c82 0 158 21 227 63c138 83 223 233 223 393c0 81 -20 156 -61 227c-81 141 -225 229 -389 229c-117 0 -228 -54 -303 -137l-19 -23v803h-200v-26c32 0 57 -6 74 -18c10 -9 16 -20 17 -32s3 -23 5 -33v-1286l-5 -45
c-8 -39 -23 -55 -56 -63l-41 -9v-24h206zM268 241c-21 66 -32 135 -32 206c0 73 15 142 45 209c60 132 164 214 280 214c86 0 155 -22 206 -65c102 -87 137 -223 137 -364c0 -75 -18 -147 -53 -214c-71 -135 -189 -218 -290 -218c-151 0 -249 100 -293 232z" />
    <glyph glyph-name="c" unicode="c" horiz-adv-x="807" 
d="M722 70l19 18c11 11 20 22 27 35l1 7v14c0 15 -5 28 -16 36l-3 3c-6 5 -12 8 -19 9l-26 -3c-17 -8 -27 -22 -28 -34c0 -21 3 -35 15 -44c1 -1 3 -4 6 -7l-2 -5l-32 -30c-51 -43 -120 -65 -206 -65c-57 0 -111 20 -161 59c-101 78 -164 216 -164 364c0 69 11 138 33 205
c44 135 143 233 292 233c100 0 217 -84 285 -207l16 -2l18 99c-30 30 -62 55 -95 75c-69 41 -144 62 -227 62c-78 0 -150 -21 -215 -63c-132 -85 -210 -236 -210 -393c0 -116 46 -235 122 -320c75 -85 186 -136 303 -136c81 0 157 21 226 62l15 9z" />
    <glyph glyph-name="ccedilla" unicode="&#xe7;" horiz-adv-x="600" 
 />
    <glyph glyph-name="d" unicode="d" horiz-adv-x="1038" 
d="M1008 1v24l-42 9c-33 9 -49 29 -54 57c-5 27 -6 40 -6 51v1395h-206v-26l45 -5c39 -5 50 -24 54 -56l3 -36v-680l-18 23c-80 85 -185 137 -304 137c-81 0 -156 -21 -225 -62c-138 -83 -225 -235 -225 -394c0 -81 20 -157 61 -227c80 -140 224 -229 389 -229
c156 0 262 84 322 160v-141h206zM802 447c0 -70 -11 -138 -33 -205c-44 -134 -143 -233 -292 -233c-50 0 -102 20 -156 59c-109 79 -187 222 -187 373c0 71 11 140 32 205c42 130 139 224 311 224c57 0 111 -19 162 -58c102 -78 163 -217 163 -365z" />
    <glyph glyph-name="eth" unicode="&#xf0;" horiz-adv-x="600" 
 />
    <glyph glyph-name="e" unicode="e" horiz-adv-x="935" 
d="M905 431v5c0 81 -20 157 -60 228c-81 140 -225 228 -390 228c-78 0 -150 -21 -215 -63c-132 -85 -210 -236 -210 -393c0 -116 46 -235 122 -320c75 -85 186 -136 303 -136l29 -1c57 0 126 17 206 51c72 40 132 111 180 213h-45c-29 -72 -74 -130 -137 -173
c-68 -40 -140 -63 -219 -63c-67 0 -125 18 -173 55c-100 79 -163 217 -163 365v4h772zM799 474h-664c0 52 11 96 31 159c44 133 143 232 292 232c100 0 220 -85 291 -218c32 -63 50 -117 50 -173z" />
    <glyph glyph-name="eacute" unicode="&#xe9;" horiz-adv-x="935" 
d="M905 431v5c0 81 -20 157 -60 228c-81 140 -225 228 -390 228c-78 0 -150 -21 -215 -63c-132 -85 -210 -236 -210 -393c0 -116 46 -235 122 -320c75 -85 186 -136 303 -136l29 -1c57 0 126 17 206 51c72 40 132 111 180 213h-45c-29 -72 -74 -130 -137 -173
c-68 -40 -140 -63 -219 -63c-67 0 -125 18 -173 55c-100 79 -163 217 -163 365v4h772zM799 474h-664c0 52 11 96 31 159c44 133 143 232 292 232c100 0 220 -85 291 -218c32 -63 50 -117 50 -173z" />
    <glyph glyph-name="ecircumflex" unicode="&#xea;" horiz-adv-x="600" 
 />
    <glyph glyph-name="edieresis" unicode="&#xeb;" horiz-adv-x="935" 
d="M216 1254l84 -86l83 86l-83 84zM530 1254l84 -86l83 86l-83 84zM905 431v5c0 81 -20 157 -60 228c-81 140 -225 228 -390 228c-78 0 -150 -21 -215 -63c-132 -85 -210 -236 -210 -393c0 -116 46 -235 122 -320c75 -85 186 -136 303 -136l29 -1c57 0 126 17 206 51
c72 40 132 111 180 213h-45c-29 -72 -74 -130 -137 -173c-68 -40 -140 -63 -219 -63c-67 0 -125 18 -173 55c-100 79 -163 217 -163 365v4h772zM799 474h-664c0 52 11 96 31 159c44 133 143 232 292 232c100 0 220 -85 291 -218c32 -63 50 -117 50 -173z" />
    <glyph glyph-name="egrave" unicode="&#xe8;" horiz-adv-x="935" 
d="M905 431v5c0 81 -20 157 -60 228c-81 140 -225 228 -390 228c-78 0 -150 -21 -215 -63c-132 -85 -210 -236 -210 -393c0 -116 46 -235 122 -320c75 -85 186 -136 303 -136l29 -1c57 0 126 17 206 51c72 40 132 111 180 213h-45c-29 -72 -74 -130 -137 -173
c-68 -40 -140 -63 -219 -63c-67 0 -125 18 -173 55c-100 79 -163 217 -163 365v4h772zM799 474h-664c0 52 11 96 31 159c44 133 143 232 292 232c100 0 220 -85 291 -218c32 -63 50 -117 50 -173z" />
    <glyph glyph-name="f" unicode="f" horiz-adv-x="420" 
d="M230 874v263c0 97 4 197 12 254c9 41 26 80 49 115c1 1 4 3 8 5c3 -2 5 -4 5 -5c9 -15 25 -23 40 -23c20 3 31 9 40 22c8 13 5 37 1 45l-2 3c-9 15 -22 23 -35 24l-12 1h-7c-17 -7 -30 -13 -39 -20l-21 -15c-27 -22 -50 -51 -70 -87c-41 -73 -73 -221 -73 -296v-286h-96
v-43h96v-696l-4 -49c-2 -20 -8 -34 -18 -42c-18 -12 -43 -18 -74 -18v-26h302v26l-46 4c-39 8 -49 25 -53 56l-3 37v708h103v43h-103z" />
    <glyph glyph-name="g" unicode="g" horiz-adv-x="800" 
d="M649 786l20 33c1 1 4 3 8 5c3 -2 5 -4 5 -5c9 -15 25 -23 40 -23c20 3 31 9 40 22c8 13 5 37 1 45l-2 3c-9 15 -22 23 -35 24l-12 1h-7c-17 -7 -30 -13 -39 -20l-21 -15c-14 -11 -26 -24 -36 -37l-42 27c-57 31 -118 46 -185 46c-63 0 -122 -16 -175 -48
c-108 -64 -171 -179 -171 -295c0 -44 9 -87 27 -129c35 -84 98 -151 183 -187c-3 -8 -4 -17 -4 -28c0 -56 37 -92 111 -109c47 -11 85 -23 115 -34l33 -16c99 -56 171 -165 171 -277c0 -56 -9 -102 -28 -153c-37 -100 -128 -161 -288 -161c-45 0 -90 8 -135 25
c-73 35 -123 81 -151 139c-7 13 -12 27 -16 41v5c2 3 5 4 8 4c19 5 28 20 32 33c1 6 2 10 2 12c0 5 -2 20 -14 32c-13 11 -31 17 -43 13l-4 -2c-17 -7 -24 -14 -31 -27l-4 -12l-2 -7l10 -43l10 -24l16 -28l10 -14c46 -67 107 -117 182 -150c39 -17 82 -26 127 -26
c76 0 147 16 208 47c129 64 207 177 207 298c0 123 -79 237 -206 298c-41 21 -87 35 -136 41c-123 31 -155 42 -155 113c36 -12 73 -18 111 -18c66 0 127 16 184 47c113 63 183 174 183 297c0 60 -16 117 -49 171c-17 26 -35 48 -53 66zM131 540c0 49 9 99 26 149
c35 99 112 169 229 169c39 0 80 -15 123 -44c87 -60 146 -160 146 -269c0 -51 -8 -100 -24 -147c-32 -94 -110 -165 -245 -165c-45 0 -87 14 -126 43c-80 56 -129 157 -129 264z" />
    <glyph glyph-name="h" unicode="h" horiz-adv-x="1008" 
d="M772 136l-4 -49c-2 -20 -8 -34 -18 -42c-18 -12 -43 -18 -74 -18v-27h302v27l-46 4c-39 8 -49 25 -53 56l-3 37l-1 243l1 75c0 117 -39 236 -107 320s-159 136 -278 136c-108 0 -208 -86 -255 -237v875h-206v-24l41 -10c35 -8 49 -26 56 -63l3 -18c1 -7 2 -16 2 -26
v-1260l-4 -49c-2 -20 -8 -34 -18 -42c-18 -12 -43 -18 -74 -18v-26h302v26l-13 1l-29 7c-17 4 -28 9 -32 15c-12 13 -20 29 -23 48c-3 9 -5 19 -5 28v367c0 49 10 96 30 156c43 131 107 205 222 226c57 0 110 -19 157 -58c94 -78 127 -218 127 -341v-339z" />
    <glyph glyph-name="i" unicode="i" horiz-adv-x="368" 
d="M90 1253l84 -86l83 86l-83 84zM30 850l41 -10c35 -8 49 -26 56 -63l3 -18c1 -7 2 -16 2 -26v-599l-4 -49c-2 -20 -8 -34 -18 -42c-18 -12 -43 -18 -74 -18v-26h302v26l-46 4c-39 8 -49 25 -53 56l-3 37v752h-206v-24z" />
    <glyph glyph-name="iacute" unicode="&#xed;" horiz-adv-x="368" 
d="M241 1159h-107l60 182h107zM338 25v-26h-302v26c31 0 56 6 74 18c10 8 16 22 18 42l4 49v599c0 10 -1 19 -2 26l-3 18c-7 37 -21 55 -56 63l-41 10v24h206v-752l3 -37c4 -31 14 -48 53 -56z" />
    <glyph glyph-name="icircumflex" unicode="&#xee;" horiz-adv-x="600" 
 />
    <glyph glyph-name="idieresis" unicode="&#xef;" horiz-adv-x="368" 
d="M-92 1254l84 -86l83 86l-83 84zM222 1254l84 -86l83 86l-83 84zM30 850l41 -10c35 -8 49 -26 56 -63l3 -18c1 -7 2 -16 2 -26v-599l-4 -49c-2 -20 -8 -34 -18 -42c-18 -12 -43 -18 -74 -18v-26h302v26l-46 4c-39 8 -49 25 -53 56l-3 37v752h-206v-24z" />
    <glyph glyph-name="igrave" unicode="&#xec;" horiz-adv-x="600" 
 />
    <glyph glyph-name="ij" unicode="&#x133;" horiz-adv-x="660" 
d="M90 1253l84 -86l83 86l-83 84zM448 1253l84 -86l83 86l-83 84zM30 850l41 -10c35 -8 49 -26 56 -63l3 -18c1 -7 2 -16 2 -26v-599l-4 -49c-2 -20 -8 -34 -18 -42c-18 -12 -43 -18 -74 -18v-26h302v26l-46 4c-39 8 -49 25 -53 56l-3 37v752h-206v-24zM398 874v-24l41 -10
c35 -8 49 -26 56 -63l3 -18c1 -7 2 -16 2 -26l-1 -26v-689c0 -107 -4 -192 -13 -255c-9 -41 -26 -80 -49 -115c-1 -1 -4 -3 -8 -5c-3 2 -5 4 -5 5c-9 15 -25 23 -40 23c-20 -3 -31 -9 -39 -22c-9 -13 -6 -37 -2 -45l2 -3c9 -15 22 -23 35 -24l12 -1h7c17 7 30 13 39 20
l21 15c26 22 49 51 69 88c23 39 38 83 53 147c15 59 23 110 23 153v875h-206z" />
    <glyph glyph-name="j" unicode="j" horiz-adv-x="292" 
d="M80 1253l84 -86l83 86l-83 84zM30 874v-24l41 -10c35 -8 49 -26 56 -63l3 -18c1 -7 2 -16 2 -26l-1 -26v-689c0 -107 -4 -192 -13 -255c-9 -41 -26 -80 -49 -115c-1 -1 -4 -3 -8 -5c-3 2 -5 4 -5 5c-9 15 -25 23 -40 23c-20 -3 -31 -9 -39 -22c-9 -13 -6 -37 -2 -45l2 -3
c9 -15 22 -23 35 -24l12 -1h7c17 7 30 13 39 20l21 15c26 22 49 51 69 88c23 39 38 83 53 147c15 59 23 110 23 153v875h-206z" />
    <glyph glyph-name="k" unicode="k" horiz-adv-x="901" 
d="M132 138l-5 -45c-8 -39 -24 -54 -55 -62l-34 -8l-8 -2v-24h308v26h-12l-28 7c-36 11 -53 19 -57 64c-3 11 -4 21 -4 31v322l269 -295l58 -65l78 -90h229v26c-30 0 -70 12 -120 36c-24 11 -91 62 -119 94l-318 358c166 162 275 257 327 286l8 4c12 7 36 15 73 25
c49 13 78 19 111 19v29h-187l-409 -363v1022h-207v-24l42 -10c18 -4 29 -9 33 -15c13 -13 20 -26 21 -37c1 -12 3 -22 4 -29s2 -16 2 -26v-1254z" />
    <glyph glyph-name="l" unicode="l" horiz-adv-x="368" 
d="M30 1512l41 -10c35 -8 49 -26 56 -63l3 -18c1 -7 2 -16 2 -26v-1260l-4 -49c-2 -20 -8 -34 -18 -42c-18 -12 -43 -18 -74 -18v-26h302v26l-46 4c-39 8 -49 25 -53 56l-3 37v1413h-206v-24z" />
    <glyph glyph-name="ldot" unicode="&#x140;" horiz-adv-x="600" 
 />
    <glyph glyph-name="m" unicode="m" horiz-adv-x="1668" 
d="M897 440l-1 27c0 57 12 119 31 179c43 132 118 214 222 226c57 0 110 -19 157 -58c94 -78 127 -218 127 -341l-1 -231v-109l-4 -49c-2 -20 -8 -34 -18 -42c-18 -12 -43 -18 -74 -18v-26h302v26l-46 4c-39 8 -49 25 -53 56l-3 37l1 319c0 117 -39 236 -107 320
s-159 136 -278 136c-95 0 -199 -67 -248 -219l-26 -95l-8 29c-19 57 -46 107 -80 149c-68 84 -159 136 -278 136c-108 0 -208 -83 -256 -251v229h-226v-26l52 -8c22 -5 37 -12 45 -21c16 -18 25 -56 25 -111v-573l-4 -49c-2 -20 -8 -34 -18 -42c-18 -12 -43 -18 -74 -18v-26
l97 -2h205v28l-27 2l-14 4c-35 8 -48 29 -54 56s-7 40 -7 51v304c0 71 11 140 32 205c42 130 129 224 221 224c57 0 110 -19 157 -58c94 -78 127 -218 127 -341l-1 -231v-109l-4 -49c-2 -20 -8 -34 -18 -42c-18 -12 -43 -18 -74 -18v-26h302v26l-46 4c-39 8 -49 25 -53 57
l-3 30l1 51l-1 45z" />
    <glyph glyph-name="n" unicode="n" horiz-adv-x="1028" 
d="M152 135l-4 -49c-2 -20 -8 -34 -18 -42c-18 -12 -43 -18 -74 -18v-26l97 -2h205v28l-27 2l-14 4c-35 8 -48 29 -54 56s-7 40 -7 51v304c0 71 10 139 31 204c41 129 118 213 222 225c57 0 110 -19 157 -58c94 -78 127 -218 127 -341l-1 -231v-109l-4 -49
c-2 -20 -8 -34 -18 -42c-18 -12 -43 -18 -74 -18v-26h302v26l-46 4c-39 8 -49 25 -53 56l-3 37l1 45l-1 45l1 229c0 117 -39 236 -107 320s-159 136 -278 136c-96 0 -196 -70 -256 -251v229h-226v-26l52 -8c22 -5 37 -12 45 -21c16 -18 25 -56 25 -111v-573z" />
    <glyph glyph-name="ntilde" unicode="&#xf1;" horiz-adv-x="1028" 
d="M110 1340l-35 -75c11 -22 25 -44 44 -65c51 -57 106 -87 171 -99c13 -3 27 -4 42 -4c53 0 112 17 179 52c85 44 144 67 177 69c34 -1 67 -15 100 -42c17 -20 30 -41 37 -64l25 58c-11 21 -26 41 -44 62c-43 49 -94 72 -147 77c-51 3 -117 -15 -198 -54s-143 -58 -186 -55
c-24 1 -46 7 -66 16c-41 18 -87 65 -99 124zM152 135l-4 -49c-2 -20 -8 -34 -18 -42c-18 -12 -43 -18 -74 -18v-26l97 -2h205v28l-27 2l-14 4c-35 8 -48 29 -54 56s-7 40 -7 51v304c0 71 10 139 31 204c41 129 118 213 222 225c57 0 110 -19 157 -58
c94 -78 127 -218 127 -341l-1 -231v-109l-4 -49c-2 -20 -8 -34 -18 -42c-18 -12 -43 -18 -74 -18v-26h302v26l-46 4c-39 8 -49 25 -53 56l-3 37l1 45l-1 45l1 229c0 117 -39 236 -107 320s-159 136 -278 136c-96 0 -196 -70 -256 -251v229h-226v-26l52 -8
c22 -5 37 -12 45 -21c16 -18 25 -56 25 -111v-573z" />
    <glyph glyph-name="o" unicode="o" horiz-adv-x="935" 
d="M455 892c-78 0 -150 -21 -215 -63c-132 -85 -210 -236 -210 -393c0 -116 46 -235 122 -320c75 -85 186 -136 303 -136c81 0 157 21 226 63c139 83 224 234 224 393c0 81 -20 157 -60 228c-81 140 -225 228 -390 228zM133 427c0 69 11 138 33 205c44 135 143 233 292 233
c50 0 102 -20 157 -59c109 -80 186 -221 186 -373c0 -69 -10 -137 -31 -203c-42 -132 -140 -226 -312 -226c-57 0 -111 20 -161 59c-101 78 -164 216 -164 364z" />
    <glyph glyph-name="oacute" unicode="&#xf3;" horiz-adv-x="935" 
d="M455 892c-78 0 -150 -21 -215 -63c-132 -85 -210 -236 -210 -393c0 -116 46 -235 122 -320c75 -85 186 -136 303 -136c81 0 157 21 226 63c139 83 224 234 224 393c0 81 -20 157 -60 228c-81 140 -225 228 -390 228zM133 427c0 69 11 138 33 205c44 135 143 233 292 233
c50 0 102 -20 157 -59c109 -80 186 -221 186 -373c0 -69 -10 -137 -31 -203c-42 -132 -140 -226 -312 -226c-57 0 -111 20 -161 59c-101 78 -164 216 -164 364z" />
    <glyph glyph-name="ocircumflex" unicode="&#xf4;" horiz-adv-x="600" 
 />
    <glyph glyph-name="odieresis" unicode="&#xf6;" horiz-adv-x="935" 
d="M216 1244l84 -86l83 86l-83 84zM530 1244l84 -86l83 86l-83 84zM455 892c-78 0 -150 -21 -215 -63c-132 -85 -210 -236 -210 -393c0 -116 46 -235 122 -320c75 -85 186 -136 303 -136c81 0 157 21 226 63c139 83 224 234 224 393c0 81 -20 157 -60 228
c-81 140 -225 228 -390 228zM133 427c0 69 11 138 33 205c44 135 143 233 292 233c50 0 102 -20 157 -59c109 -80 186 -221 186 -373c0 -69 -10 -137 -31 -203c-42 -132 -140 -226 -312 -226c-57 0 -111 20 -161 59c-101 78 -164 216 -164 364z" />
    <glyph glyph-name="ograve" unicode="&#xf2;" horiz-adv-x="935" 
d="M455 892c-78 0 -150 -21 -215 -63c-132 -85 -210 -236 -210 -393c0 -116 46 -235 122 -320c75 -85 186 -136 303 -136c81 0 157 21 226 63c139 83 224 234 224 393c0 81 -20 157 -60 228c-81 140 -225 228 -390 228zM133 427c0 69 11 138 33 205c44 135 143 233 292 233
c50 0 102 -20 157 -59c109 -80 186 -221 186 -373c0 -69 -10 -137 -31 -203c-42 -132 -140 -226 -312 -226c-57 0 -111 20 -161 59c-101 78 -164 216 -164 364z" />
    <glyph glyph-name="oslash" unicode="&#xf8;" horiz-adv-x="935" 
d="M927 1579l-247 -748c68 -39 124 -97 165 -167c40 -71 60 -147 60 -228c0 -159 -85 -310 -224 -393c-69 -42 -145 -63 -226 -63c-18 0 -37 1 -54 4l-5 -14h-107l13 40c-57 23 -109 60 -150 106c-76 85 -122 204 -122 320c0 157 78 308 210 393c65 42 137 63 215 63
c46 0 90 -7 132 -20l233 707h107zM297 63l18 -13l259 782c-40 22 -79 33 -116 33c-149 0 -248 -98 -292 -233c-22 -67 -33 -136 -33 -205c0 -148 63 -286 164 -364zM770 230c21 66 31 134 31 203c0 130 -57 253 -141 335l-251 -759c16 -3 32 -5 49 -5c172 0 270 94 312 226z
" />
    <glyph glyph-name="otilde" unicode="&#xf5;" horiz-adv-x="935" 
d="M101 1340l-35 -75c11 -22 25 -44 44 -65c51 -57 106 -87 171 -99c13 -3 27 -4 42 -4c53 0 112 17 179 52c85 44 144 67 177 69c34 -1 67 -15 100 -42c17 -20 30 -41 37 -64l25 58c-11 21 -26 41 -44 62c-43 49 -94 72 -147 77c-51 3 -117 -15 -198 -54s-143 -58 -186 -55
c-24 1 -46 7 -66 16c-41 18 -87 65 -99 124zM455 892c-78 0 -150 -21 -215 -63c-132 -85 -210 -236 -210 -393c0 -116 46 -235 122 -320c75 -85 186 -136 303 -136c81 0 157 21 226 63c139 83 224 234 224 393c0 81 -20 157 -60 228c-81 140 -225 228 -390 228zM133 427
c0 69 11 138 33 205c44 135 143 233 292 233c50 0 102 -20 157 -59c109 -80 186 -221 186 -373c0 -69 -10 -137 -31 -203c-42 -132 -140 -226 -312 -226c-57 0 -111 20 -161 59c-101 78 -164 216 -164 364z" />
    <glyph glyph-name="oe" unicode="&#x153;" horiz-adv-x="1870" 
d="M455 892c-78 0 -150 -21 -215 -63c-132 -85 -210 -236 -210 -393c0 -116 46 -235 122 -320c75 -85 186 -136 303 -136c81 0 157 21 226 63c139 83 224 234 224 393c0 81 -20 157 -60 228c-81 140 -225 228 -390 228zM1840 431v5c0 81 -20 157 -60 228
c-81 140 -225 228 -390 228c-78 0 -150 -21 -215 -63c-132 -85 -210 -236 -210 -393c0 -116 46 -235 122 -320c75 -85 186 -136 303 -136l29 -1c57 0 126 17 206 51c72 40 132 111 180 213h-45c-29 -72 -74 -130 -137 -173c-68 -40 -140 -63 -219 -63c-67 0 -125 18 -173 55
c-100 79 -163 217 -163 365v4h772zM133 427c0 69 11 138 33 205c44 135 143 233 292 233c50 0 102 -20 157 -59c109 -80 186 -221 186 -373c0 -69 -10 -137 -31 -203c-42 -132 -140 -226 -312 -226c-57 0 -111 20 -161 59c-101 78 -164 216 -164 364zM1734 474h-664
c0 52 11 96 31 159c44 133 143 232 292 232c100 0 220 -85 291 -218c32 -63 50 -117 50 -173z" />
    <glyph glyph-name="p" unicode="p" horiz-adv-x="1038" 
d="M30 874v-24l41 -10c35 -8 49 -26 56 -63l3 -18c1 -7 2 -16 2 -26v-1260l-4 -48c-2 -21 -8 -35 -18 -43c-18 -12 -43 -18 -74 -18v-26h302v26l-46 5c-37 5 -49 24 -53 56l-3 36v680l19 -22c76 -88 186 -138 303 -138c81 0 157 21 226 63c139 83 224 234 224 393
c0 81 -20 157 -60 228c-81 140 -225 228 -390 228c-156 0 -262 -84 -322 -160v141h-206zM236 428c0 69 11 138 33 205c44 135 143 233 292 233c50 0 102 -20 157 -59c109 -80 186 -221 186 -373c0 -69 -10 -137 -31 -203c-42 -132 -140 -226 -312 -226
c-57 0 -111 20 -161 59c-101 78 -164 216 -164 364z" />
    <glyph glyph-name="thorn" unicode="&#xfe;" horiz-adv-x="600" 
 />
    <glyph glyph-name="q" unicode="q" horiz-adv-x="1038" 
d="M802 874v-141c-63 79 -167 160 -322 160c-82 0 -158 -21 -227 -62c-139 -84 -223 -234 -223 -394c0 -81 20 -157 61 -227c80 -141 225 -229 389 -229c119 0 227 51 304 138l18 22v-680l-3 -36c-7 -35 -17 -52 -54 -56c-19 -4 -34 -5 -45 -5v-26h302v26
c-64 0 -89 21 -93 61l-3 48v1260l5 44c8 40 24 55 55 63l42 10v24h-206zM769 633c22 -67 33 -136 33 -205c0 -73 -15 -142 -44 -207c-60 -132 -168 -216 -281 -216c-85 0 -154 22 -205 65c-104 86 -138 225 -138 364c0 75 18 146 53 214c71 135 189 218 290 218
c152 0 251 -100 292 -233z" />
    <glyph glyph-name="r" unicode="r" horiz-adv-x="518" 
d="M234 124l1 359c6 59 31 142 76 247c18 38 43 72 74 101l9 3c1 -1 3 -3 3 -6c3 -9 7 -16 14 -21c13 -11 29 -14 45 -9s26 17 30 33l2 11l-2 10l-1 4c-3 9 -7 15 -13 20l-16 11l-11 4l-7 1c-17 -2 -32 -5 -43 -10l-24 -10c-61 -32 -104 -88 -135 -137v139h-206v-24l41 -10
c35 -8 49 -26 56 -63l3 -18c1 -7 2 -16 2 -26l-2 -597l-4 -49c-2 -20 -8 -34 -18 -42c-18 -12 -43 -18 -74 -18v-26h302v26l-46 4c-39 8 -49 25 -53 56z" />
    <glyph glyph-name="s" unicode="s" horiz-adv-x="635" 
d="M105 105l-2 5c2 4 4 6 5 7c13 12 15 23 15 44c-4 15 -13 30 -29 34l-25 3c-7 -2 -14 -5 -19 -9l-3 -3c-7 -5 -12 -12 -14 -19l-3 -19l1 -12l1 -8c7 -27 33 -55 79 -86c65 -44 131 -66 196 -66c93 0 160 20 215 58s83 97 83 184c0 76 -22 135 -63 187
c-39 50 -105 87 -198 110s-152 44 -178 65c-25 23 -41 55 -47 97c0 50 16 92 49 125c36 36 88 60 149 60c55 0 103 -20 144 -61l17 -19l1 -4l-2 -3c-1 -2 -3 -3 -4 -4c-7 -5 -12 -11 -14 -19l-3 -24c4 -16 14 -29 27 -36l26 -3c9 2 15 5 19 8l3 3c8 5 13 11 15 18l4 19
l-1 12l-1 9c-3 13 -11 27 -22 42c-36 47 -94 80 -179 92c-95 0 -164 -21 -207 -62c-47 -43 -72 -103 -72 -183c0 -65 23 -116 60 -155c36 -37 97 -67 184 -90c87 -24 145 -51 176 -81c35 -35 54 -74 54 -122c0 -120 -86 -186 -246 -186h-4c-28 0 -48 6 -80 18
c-25 11 -48 25 -71 43l-26 21z" />
    <glyph glyph-name="germandbls" unicode="&#xdf;" 
 />
    <glyph glyph-name="t" unicode="t" horiz-adv-x="363" 
d="M30 873v-43h103v-708c0 -82 52 -123 157 -123h43v26c-64 0 -89 20 -93 60l-3 49v696h96v43h-96v226h-104v-226h-103z" />
    <glyph glyph-name="u" unicode="u" horiz-adv-x="1049" 
d="M793 733v-304c0 -69 -10 -137 -30 -202c-41 -131 -119 -215 -223 -227c-57 0 -109 20 -156 59c-96 79 -128 217 -128 340v475h-226v-26l52 -8c22 -5 37 -13 45 -22c17 -18 26 -70 26 -157l-1 -229c0 -117 39 -233 108 -319c68 -86 161 -137 277 -137
c109 0 215 86 256 251v-229h226v26l-52 8c-22 5 -37 13 -45 22c-17 18 -26 70 -26 157v663h-205v-24l41 -10c17 -4 28 -9 32 -15c24 -27 29 -72 29 -92z" />
    <glyph glyph-name="uacute" unicode="&#xfa;" horiz-adv-x="1049" 
d="M469 1159h107l60 182h-107zM793 733v-304c0 -69 -10 -137 -30 -202c-41 -131 -119 -215 -223 -227c-57 0 -109 20 -156 59c-96 79 -128 217 -128 340v475h-226v-26l52 -8c22 -5 37 -13 45 -22c17 -18 26 -70 26 -157l-1 -229c0 -117 39 -233 108 -319
c68 -86 161 -137 277 -137c109 0 215 86 256 251v-229h226v26l-52 8c-22 5 -37 13 -45 22c-17 18 -26 70 -26 157v663h-205v-24l41 -10c17 -4 28 -9 32 -15c24 -27 29 -72 29 -92z" />
    <glyph glyph-name="ucircumflex" unicode="&#xfb;" horiz-adv-x="600" 
 />
    <glyph glyph-name="udieresis" unicode="&#xfc;" horiz-adv-x="1049" 
d="M266 1254l84 -86l83 86l-83 84zM580 1254l84 -86l83 86l-83 84zM793 733v-304c0 -69 -10 -137 -30 -202c-41 -131 -119 -215 -223 -227c-57 0 -109 20 -156 59c-96 79 -128 217 -128 340v475h-226v-26l52 -8c22 -5 37 -13 45 -22c17 -18 26 -70 26 -157l-1 -229
c0 -117 39 -233 108 -319c68 -86 161 -137 277 -137c109 0 215 86 256 251v-229h226v26l-52 8c-22 5 -37 13 -45 22c-17 18 -26 70 -26 157v663h-205v-24l41 -10c17 -4 28 -9 32 -15c24 -27 29 -72 29 -92z" />
    <glyph glyph-name="ugrave" unicode="&#xf9;" horiz-adv-x="1049" 
d="M793 733v-304c0 -69 -10 -137 -30 -202c-41 -131 -119 -215 -223 -227c-57 0 -109 20 -156 59c-96 79 -128 217 -128 340v475h-226v-26l52 -8c22 -5 37 -13 45 -22c17 -18 26 -70 26 -157l-1 -229c0 -117 39 -233 108 -319c68 -86 161 -137 277 -137
c109 0 215 86 256 251v-229h226v26l-52 8c-22 5 -37 13 -45 22c-17 18 -26 70 -26 157v663h-205v-24l41 -10c17 -4 28 -9 32 -15c24 -27 29 -72 29 -92z" />
    <glyph glyph-name="v" unicode="v" horiz-adv-x="936" 
d="M714 825c4 -4 6 -14 6 -30c0 -26 -4 -54 -12 -84l-19 -69l-184 -581l-189 593l-24 69c-11 33 -14 55 -14 78c0 8 2 16 6 24c10 17 38 25 84 25v24h-339v-24l51 -9c45 -11 52 -15 80 -80l33 -77l256 -730l81 48l202 640c9 32 19 62 32 97c31 81 58 111 141 111v24h-278
v-24l46 -5c20 -4 34 -11 41 -20z" />
    <glyph glyph-name="w" unicode="w" horiz-adv-x="1563" 
d="M511 63l-194 591l-24 69c-11 33 -14 55 -14 78c0 9 2 17 6 25c12 16 40 24 84 24v24h-339v-24l52 -8c43 -9 50 -16 78 -81l34 -77l261 -729l81 50l99 316l149 474l292 -849l80 48l206 640l31 101c32 89 60 115 140 115v24h-276v-24l46 -5c20 -4 33 -11 40 -20
c5 -4 7 -14 7 -30c0 -27 -4 -56 -12 -88l-19 -73l-187 -581l-240 727c-1 3 -1 8 -1 15c0 14 3 25 8 33c9 15 31 22 66 22v24h-307v-24l40 -3c15 -2 28 -9 38 -21c4 -6 6 -13 6 -21c0 -5 0 -10 -1 -13l-8 -24z" />
    <glyph glyph-name="wacute" unicode="&#x1e83;" horiz-adv-x="1563" 
d="M767 1159h107l60 182h-107zM511 63l-194 591l-24 69c-11 33 -14 55 -14 78c0 9 2 17 6 25c12 16 40 24 84 24v24h-339v-24l52 -8c43 -9 50 -16 78 -81l34 -77l261 -729l81 50l99 316l149 474l292 -849l80 48l206 640l31 101c32 89 60 115 140 115v24h-276v-24l46 -5
c20 -4 33 -11 40 -20c5 -4 7 -14 7 -30c0 -27 -4 -56 -12 -88l-19 -73l-187 -581l-240 727c-1 3 -1 8 -1 15c0 14 3 25 8 33c9 15 31 22 66 22v24h-307v-24l40 -3c15 -2 28 -9 38 -21c4 -6 6 -13 6 -21c0 -5 0 -10 -1 -13l-8 -24z" />
    <glyph glyph-name="wcircumflex" unicode="&#x175;" horiz-adv-x="600" 
 />
    <glyph glyph-name="wdieresis" unicode="&#x1e85;" horiz-adv-x="1563" 
d="M564 1254l84 -86l83 86l-83 84zM878 1254l84 -86l83 86l-83 84zM511 63l-194 591l-24 69c-11 33 -14 55 -14 78c0 9 2 17 6 25c12 16 40 24 84 24v24h-339v-24l52 -8c43 -9 50 -16 78 -81l34 -77l261 -729l81 50l99 316l149 474l292 -849l80 48l206 640l31 101
c32 89 60 115 140 115v24h-276v-24l46 -5c20 -4 33 -11 40 -20c5 -4 7 -14 7 -30c0 -27 -4 -56 -12 -88l-19 -73l-187 -581l-240 727c-1 3 -1 8 -1 15c0 14 3 25 8 33c9 15 31 22 66 22v24h-307v-24l40 -3c15 -2 28 -9 38 -21c4 -6 6 -13 6 -21c0 -5 0 -10 -1 -13l-8 -24z
" />
    <glyph glyph-name="wgrave" unicode="&#x1e81;" horiz-adv-x="1563" 
d="M511 63l-194 591l-24 69c-11 33 -14 55 -14 78c0 9 2 17 6 25c12 16 40 24 84 24v24h-339v-24l52 -8c43 -9 50 -16 78 -81l34 -77l261 -729l81 50l99 316l149 474l292 -849l80 48l206 640l31 101c32 89 60 115 140 115v24h-276v-24l46 -5c20 -4 33 -11 40 -20
c5 -4 7 -14 7 -30c0 -27 -4 -56 -12 -88l-19 -73l-187 -581l-240 727c-1 3 -1 8 -1 15c0 14 3 25 8 33c9 15 31 22 66 22v24h-307v-24l40 -3c15 -2 28 -9 38 -21c4 -6 6 -13 6 -21c0 -5 0 -10 -1 -13l-8 -24z" />
    <glyph glyph-name="x" unicode="x" horiz-adv-x="912" 
d="M510 463l169 253c16 23 31 42 46 59c28 33 60 75 127 75v24h-278v-24l56 -4c25 -3 39 -10 44 -23c3 -7 5 -13 5 -20c0 -9 -3 -20 -9 -31c-10 -21 -22 -39 -35 -56l-153 -217l-122 185c-9 18 -25 42 -48 73c-15 23 -23 40 -23 51c0 5 2 10 5 13c15 28 53 29 78 29v24h-337
v-24l49 -10c22 -4 36 -9 42 -15c15 -10 33 -30 55 -61l53 -74l171 -268l-147 -206l-62 -85c-57 -73 -81 -105 -166 -105v-26h278v26c-55 0 -84 8 -87 24c-3 3 -4 7 -4 12c0 28 62 118 91 154l124 166l102 -160l61 -95c18 -29 27 -51 27 -65c0 -7 -2 -13 -6 -17
c-10 -13 -34 -19 -72 -19v-26h338v26l-42 6c-17 4 -31 10 -41 18s-28 28 -53 61l-61 80z" />
    <glyph glyph-name="y" unicode="y" horiz-adv-x="921" 
d="M490 63l-188 591l-24 69c-11 33 -14 55 -14 78c0 8 2 16 6 24c10 17 38 25 84 25v24h-339v-24l51 -9c45 -11 52 -15 80 -80l33 -77l267 -761l-155 -485l-12 -17l-5 -2c-3 0 -6 1 -8 4c-7 7 -14 10 -22 10c-11 0 -19 -1 -25 -2c-12 -4 -24 -16 -28 -33
c-3 -19 2 -35 13 -43l3 -2c7 -6 14 -10 21 -12h19l12 3l7 2c15 13 25 23 30 32c6 6 11 13 15 21l15 29l7 16c11 28 20 53 27 77l153 476l99 312l4 12l102 321c9 32 19 62 32 97c31 81 58 111 141 111v24h-278v-24l46 -5c40 -8 47 -18 47 -50c0 -26 -4 -54 -12 -84l-19 -69
l-102 -321z" />
    <glyph glyph-name="yacute" unicode="&#xfd;" horiz-adv-x="921" 
d="M480 1159h107l60 182h-107zM490 63l-188 591l-24 69c-11 33 -14 55 -14 78c0 8 2 16 6 24c10 17 38 25 84 25v24h-339v-24l51 -9c45 -11 52 -15 80 -80l33 -77l267 -761l-155 -485l-12 -17l-5 -2c-3 0 -6 1 -8 4c-7 7 -14 10 -22 10c-11 0 -19 -1 -25 -2
c-12 -4 -24 -16 -28 -33c-3 -19 2 -35 13 -43l3 -2c7 -6 14 -10 21 -12h19l12 3l7 2c15 13 25 23 30 32c6 6 11 13 15 21l15 29l7 16c11 28 20 53 27 77l153 476l99 312l4 12l102 321c9 32 19 62 32 97c31 81 58 111 141 111v24h-278v-24l46 -5c40 -8 47 -18 47 -50
c0 -26 -4 -54 -12 -84l-19 -69l-102 -321z" />
    <glyph glyph-name="ycircumflex" unicode="&#x177;" horiz-adv-x="600" 
 />
    <glyph glyph-name="ydieresis" unicode="&#xff;" horiz-adv-x="921" 
d="M266 1254l84 -86l83 86l-83 84zM580 1254l84 -86l83 86l-83 84zM490 63l-188 591l-24 69c-11 33 -14 55 -14 78c0 8 2 16 6 24c10 17 38 25 84 25v24h-339v-24l51 -9c45 -11 52 -15 80 -80l33 -77l267 -761l-155 -485l-12 -17l-5 -2c-3 0 -6 1 -8 4c-7 7 -14 10 -22 10
c-11 0 -19 -1 -25 -2c-12 -4 -24 -16 -28 -33c-3 -19 2 -35 13 -43l3 -2c7 -6 14 -10 21 -12h19l12 3l7 2c15 13 25 23 30 32c6 6 11 13 15 21l15 29l7 16c11 28 20 53 27 77l153 476l99 312l4 12l102 321c9 32 19 62 32 97c31 81 58 111 141 111v24h-278v-24l46 -5
c40 -8 47 -18 47 -50c0 -26 -4 -54 -12 -84l-19 -69l-102 -321z" />
    <glyph glyph-name="ygrave" unicode="&#x1ef3;" horiz-adv-x="921" 
d="M490 63l-188 591l-24 69c-11 33 -14 55 -14 78c0 8 2 16 6 24c10 17 38 25 84 25v24h-339v-24l51 -9c45 -11 52 -15 80 -80l33 -77l267 -761l-155 -485l-12 -17l-5 -2c-3 0 -6 1 -8 4c-7 7 -14 10 -22 10c-11 0 -19 -1 -25 -2c-12 -4 -24 -16 -28 -33
c-3 -19 2 -35 13 -43l3 -2c7 -6 14 -10 21 -12h19l12 3l7 2c15 13 25 23 30 32c6 6 11 13 15 21l15 29l7 16c11 28 20 53 27 77l153 476l99 312l4 12l102 321c9 32 19 62 32 97c31 81 58 111 141 111v24h-278v-24l46 -5c40 -8 47 -18 47 -50c0 -26 -4 -54 -12 -84l-19 -69
l-102 -321z" />
    <glyph glyph-name="z" unicode="z" horiz-adv-x="824" 
d="M790 198l-38 -12l-35 -62c-25 -43 -47 -64 -118 -76c-45 -8 -53 -8 -94 -8h-316l605 834h-673l-66 -211l38 12l41 60c17 21 38 39 62 56c48 32 145 44 210 44h241l-587 -792l-30 -44h700z" />
    <glyph glyph-name="zero" unicode="0" horiz-adv-x="1031" 
d="M547 1522c-140 0 -268 -101 -359 -247s-149 -326 -158 -477c0 -128 20 -257 59 -388c79 -261 232 -451 433 -451c187 11 340 201 420 443c79 242 74 441 5 686c-69 244 -209 434 -400 434zM138 690c0 109 12 225 37 348c49 244 163 440 340 440c83 0 152 -41 206 -124
c108 -165 154 -420 154 -607c0 -106 -10 -216 -31 -331c-41 -229 -140 -413 -297 -413c-84 0 -157 37 -219 110c-125 147 -190 384 -190 577z" />
    <glyph glyph-name="one" unicode="1" horiz-adv-x="365" 
d="M129 1491v-35c-1 -4 -2 -10 -2 -17c-8 -48 -23 -56 -58 -64l-39 -9v-24h99v-1207l-4 -48c-3 -21 -9 -36 -17 -43c-19 -12 -44 -18 -73 -18v-26h300v26l-46 5c-37 5 -49 22 -53 55l-2 37v1368h-105z" />
    <glyph glyph-name="two" unicode="2" horiz-adv-x="906" 
d="M39 1374l59 9c103 84 222 126 357 126c41 0 81 -12 118 -37c74 -50 122 -149 122 -237c0 -106 -49 -255 -148 -448c-197 -385 -418 -635 -517 -743v-44h788l58 197l-19 25l-35 -55c-14 -23 -27 -39 -39 -50c-37 -29 -91 -45 -120 -49h-552c21 23 41 47 62 72
c24 28 88 106 173 213c104 128 211 276 314 432c105 211 158 355 158 432c0 60 -16 115 -47 166c-64 107 -179 168 -310 168c-182 0 -323 -59 -422 -177z" />
    <glyph glyph-name="three" unicode="3" horiz-adv-x="773" 
d="M239 794c0 -4 2 -10 6 -17c5 -7 16 -12 31 -15c11 1 23 5 34 10l28 16c25 -4 57 -14 98 -29c91 -32 197 -118 197 -267c0 -307 -184 -460 -553 -460l36 -32c418 0 627 156 627 468c0 77 -24 143 -73 197c-97 108 -206 152 -253 165c93 36 276 146 276 363
c0 67 -15 128 -46 182c-61 107 -172 167 -297 167c-74 0 -140 -23 -198 -69c-60 -48 -97 -83 -122 -114l44 15c39 44 135 126 270 126c111 0 240 -131 240 -283c0 -107 -25 -192 -76 -254c-101 -125 -216 -161 -269 -169z" />
    <glyph glyph-name="four" unicode="4" horiz-adv-x="866" 
d="M528 102l-5 -31c-3 -14 -9 -24 -16 -30c-13 -10 -36 -15 -67 -15v-26h282v26l-36 2c-15 2 -27 6 -35 13c-15 16 -18 45 -18 51v10v534h159l44 126l-18 26l-18 -31c-9 -13 -16 -22 -20 -25c-19 -17 -43 -25 -73 -25h-71v922l-606 -922v-68h498v-537zM102 707l426 648v-648
h-426z" />
    <glyph glyph-name="five" unicode="5" horiz-adv-x="780" 
d="M62 780l59 44c31 24 59 39 88 48s67 13 123 13c183 0 295 -161 295 -430c0 -85 -27 -157 -80 -224c-53 -66 -120 -117 -202 -152c-83 -36 -168 -53 -253 -53l49 -26c80 0 167 17 262 51c189 68 347 224 347 465c0 61 -16 125 -49 191c-65 131 -183 228 -326 228
c-94 0 -162 -12 -204 -35c-43 -23 -69 -43 -79 -58l61 603h498l50 79l-7 16c-4 8 -8 13 -11 16c-7 0 -16 -3 -25 -9l-19 -11c-33 -8 -58 -12 -73 -12h-474l-62 -700z" />
    <glyph glyph-name="six" unicode="6" horiz-adv-x="828" 
d="M414 39c-61 0 -112 28 -153 84c-84 111 -120 293 -120 461c0 164 89 364 196 528c115 172 229 302 314 393l-67 -18c-63 -59 -138 -141 -224 -245c-172 -208 -330 -476 -330 -696c0 -284 123 -546 351 -546c85 0 160 25 224 76c127 101 193 270 193 431
c0 79 -16 150 -47 214c-64 132 -174 212 -290 212c-110 0 -199 -69 -267 -208v-59c61 146 142 219 243 219c148 0 250 -168 250 -351c0 -73 -9 -147 -28 -224c-37 -154 -117 -271 -245 -271z" />
    <glyph glyph-name="seven" unicode="7" horiz-adv-x="755" 
d="M30 1394l14 -9c25 37 60 46 132 46h463l-528 -1431l129 68l485 1431h-614z" />
    <glyph glyph-name="eight" unicode="8" horiz-adv-x="822" 
d="M516 873c119 28 228 144 228 273c0 56 -14 112 -41 167c-56 111 -161 187 -286 187c-204 0 -331 -155 -331 -342c0 -132 102 -254 213 -279c-164 -48 -269 -258 -269 -454c0 -68 19 -133 55 -200c75 -132 203 -225 326 -225c75 0 142 22 201 65c117 87 180 231 180 360
c0 188 -123 372 -276 448zM411 891c-125 0 -235 126 -235 270c0 143 72 302 232 302c67 0 121 -29 170 -88s73 -134 73 -226c0 -132 -80 -258 -240 -258zM417 38c-46 0 -91 20 -136 61c-90 80 -152 217 -152 317c0 221 66 445 282 445c163 0 284 -205 284 -424
c0 -189 -94 -399 -278 -399z" />
    <glyph glyph-name="nine" unicode="9" horiz-adv-x="819" 
d="M405 1466c63 0 115 -28 156 -84c82 -112 117 -290 117 -461c0 -105 -30 -219 -90 -341c-120 -245 -288 -441 -420 -580l68 18c68 64 144 147 229 250c168 204 324 471 324 691c0 89 -13 175 -40 260c-53 168 -162 286 -309 286c-83 0 -156 -23 -219 -70
c-125 -94 -191 -260 -191 -437c0 -235 152 -426 329 -426c111 0 200 69 268 208v59c-62 -145 -143 -218 -243 -218c-144 0 -252 167 -252 350c0 239 90 495 273 495z" />
    <glyph glyph-name="asterisk" unicode="*" horiz-adv-x="693" 
d="M162 959l133 167v-224h104v224l133 -167l39 15l-172 215v20h264v43h-264v5l172 215l-39 14l-133 -166v215h-104v-215l-133 166l-39 -14l172 -215v-5h-265v-43h265v-20l-172 -215z" />
    <glyph glyph-name="backslash" unicode="\" horiz-adv-x="626" 
d="M523 -30h107l-531 1609h-107z" />
    <glyph glyph-name="bullet" unicode="&#x2022;" horiz-adv-x="412" 
d="M30 516l177 -181l175 181l-175 177z" />
    <glyph glyph-name="colon" unicode=":" horiz-adv-x="227" 
d="M30 844l84 -83l83 83l-83 84zM30 82l84 -86l83 86l-83 84z" />
    <glyph glyph-name="comma" unicode="," horiz-adv-x="229" 
d="M186 31c1 8 10 41 13 48l-83 84l-84 -84l84 -85c7 -7 10 -16 10 -27c-1 -11 -8 -28 -20 -50c-17 -29 -42 -62 -76 -98l18 -32c47 47 83 98 107 155c19 43 29 73 31 89z" />
    <glyph glyph-name="exclam" unicode="!" horiz-adv-x="227" 
d="M162 1580h-104v-1202h104v1202zM30 82l84 -86l83 86l-83 84z" />
    <glyph glyph-name="numbersign" unicode="#" horiz-adv-x="1154" 
d="M1124 1100h-188l158 479h-107l-158 -479h-303l158 479h-107l-158 -479h-198l-19 -40h204l-153 -464h-205l-18 -43h208l-192 -583h107l192 583h303l-192 -583h107l192 583h206l15 43h-206l153 464h186zM513 1060h303l-153 -464h-303z" />
    <glyph glyph-name="period" unicode="." horiz-adv-x="227" 
d="M30 82l84 -86l83 86l-83 84z" />
    <glyph glyph-name="question" unicode="?" horiz-adv-x="786" 
d="M298 383h112c0 79 3 139 18 200c18 69 52 128 102 177c109 105 224 204 224 381c0 3 1 9 2 16v15v17c0 228 -133 389 -425 389c-66 -10 -119 -27 -160 -50c-81 -48 -141 -113 -141 -173c0 -19 3 -34 8 -46l1 -2c3 -13 11 -25 26 -30l3 -2l21 -3c11 3 19 7 26 11
c12 8 16 27 15 40c-4 17 -14 33 -22 37c-5 1 -8 3 -11 6v6l18 30l18 27c15 19 33 36 55 50c51 33 123 49 216 49c183 0 282 -109 282 -325c0 -149 -83 -220 -207 -318c-63 -49 -110 -116 -142 -199c-31 -81 -39 -167 -39 -303zM268 82l84 -86l83 86l-83 84z" />
    <glyph glyph-name="quotedbl" unicode="&#x22;" horiz-adv-x="409" 
d="M186 1412c1 8 10 41 13 48l-83 84l-84 -84l84 -85c7 -7 10 -16 10 -27c-1 -11 -8 -28 -20 -50c-17 -29 -42 -62 -76 -98l18 -32c47 47 83 98 107 155c19 43 29 73 31 89zM366 1412c1 8 10 41 13 48l-83 84l-84 -84l84 -85c7 -7 10 -16 10 -27c-1 -11 -8 -28 -20 -50
c-17 -29 -42 -62 -76 -98l18 -32c47 47 83 98 107 155c19 43 29 73 31 89z" />
    <glyph glyph-name="quotesingle" unicode="'" horiz-adv-x="229" 
d="M186 1412c1 8 10 41 13 48l-83 84l-84 -84l84 -85c7 -7 10 -16 10 -27c-1 -11 -8 -28 -20 -50c-17 -29 -42 -62 -76 -98l18 -32c47 47 83 98 107 155c19 43 29 73 31 89z" />
    <glyph glyph-name="semicolon" unicode=";" horiz-adv-x="229" 
d="M32 846l84 -82l83 82l-83 84zM186 36c1 8 10 41 13 48l-83 84l-84 -84l84 -85c7 -7 10 -16 10 -26c-1 -11 -8 -28 -20 -51c-17 -29 -42 -62 -76 -98l18 -32c47 47 83 98 107 155c19 43 29 73 31 89z" />
    <glyph glyph-name="slash" unicode="/" horiz-adv-x="630" 
d="M-8 -30h107l531 1609h-107z" />
    <glyph glyph-name="underscore" unicode="_" horiz-adv-x="693" 
d="M663 -33h-633v-43h633v43z" />
    <glyph glyph-name="braceleft" unicode="{" horiz-adv-x="1037" 
 />
    <glyph glyph-name="braceright" unicode="}" horiz-adv-x="1037" 
 />
    <glyph glyph-name="bracketleft" unicode="[" 
 />
    <glyph glyph-name="bracketright" unicode="]" 
 />
    <glyph glyph-name="parenleft" unicode="(" horiz-adv-x="324" 
d="M279 -299l38 -6c-50 131 -89 253 -118 368c-57 229 -79 450 -79 738c0 215 14 399 42 551c29 159 80 332 155 536l-32 -15c-61 -138 -109 -260 -145 -367c-73 -214 -110 -430 -110 -714c0 -269 34 -497 106 -724c40 -118 88 -240 143 -367z" />
    <glyph glyph-name="parenright" unicode=")" horiz-adv-x="313" 
d="M-4 -305l38 6c61 137 106 248 143 367c37 111 63 225 80 342c19 119 26 239 26 382c0 145 -9 262 -28 381c-39 231 -108 427 -227 700l-32 15c77 -211 126 -380 155 -536c28 -154 42 -338 42 -551c0 -291 -22 -510 -78 -734c-32 -123 -68 -236 -119 -372z" />
    <glyph glyph-name="hyphen" unicode="-" horiz-adv-x="693" 
d="M663 594h-633v-43h633v43z" />
    <glyph glyph-name="quotedblleft" unicode="&#x201c;" horiz-adv-x="380" 
d="M95 845l15 -3c-12 12 -18 51 -18 117l55 56l-55 55l-56 -55c-4 -13 -6 -24 -6 -32c0 -49 29 -117 65 -138zM297 845l17 -3c-13 11 -20 50 -20 117l56 56l-56 55l-55 -55c-4 -13 -6 -24 -6 -32c0 -52 28 -117 64 -138z" />
    <glyph glyph-name="quotedblright" unicode="&#x201d;" horiz-adv-x="380" 
d="M30 1015l56 -56c0 -58 -6 -97 -18 -117l15 3c36 20 64 85 64 138c0 9 -2 20 -6 32l-55 55zM234 1015l54 -56c0 -57 -6 -96 -18 -117l15 3c37 20 65 85 65 138c0 9 -2 20 -6 32l-56 55z" />
    <glyph glyph-name="quoteleft" unicode="&#x2018;" horiz-adv-x="177" 
d="M95 845l15 -3c-12 12 -18 51 -18 117l55 56l-55 55l-56 -55c-4 -13 -6 -24 -6 -32c0 -49 29 -117 65 -138z" />
    <glyph glyph-name="quoteright" unicode="&#x2019;" horiz-adv-x="177" 
d="M30 1015l56 -56c0 -57 -6 -96 -18 -117l15 3c36 20 64 85 64 138c0 9 -2 20 -6 32l-55 55z" />
    <glyph glyph-name="questiongreek" unicode="&#x37e;" horiz-adv-x="229" 
d="M32 846l84 -82l83 82l-83 84zM186 36c1 8 10 41 13 48l-83 84l-84 -84l84 -85c7 -7 10 -16 10 -26c-1 -11 -8 -28 -20 -51c-17 -29 -42 -62 -76 -98l18 -32c47 47 83 98 107 155c19 43 29 73 31 89z" />
    <glyph glyph-name="space" unicode=" " horiz-adv-x="569" 
 />
    <glyph glyph-name="uni00A0" unicode="&#xa0;" 
 />
    <glyph glyph-name="CR" unicode="&#xd;" horiz-adv-x="569" 
 />
    <glyph glyph-name="cent" unicode="&#xa2;" 
 />
    <glyph glyph-name="dollar" unicode="$" horiz-adv-x="939" 
d="M523 1658l4 53c8 47 24 56 57 64l41 9v24h-308v-24l41 -10c35 -8 49 -26 56 -63l3 -18c1 -7 2 -16 2 -26v-95c-101 -15 -178 -52 -232 -110c-71 -76 -94 -173 -94 -321c0 -177 102 -276 326 -369v-756c-196 0 -335 106 -363 258l-26 -18l44 -166c13 -19 47 -41 104 -68
c56 -27 136 -41 241 -41v-104l-4 -48c-2 -21 -8 -35 -18 -43c-18 -12 -43 -18 -74 -18v-26h302v26l-46 5c-37 5 -49 24 -53 56l-3 36v119c223 23 386 151 386 419c0 211 -106 370 -386 474v646c180 -24 265 -163 265 -299l30 -18l10 166c-7 19 -24 43 -51 74
c-53 61 -129 111 -254 131v81zM419 1527v-611c-185 77 -258 138 -258 287c0 109 24 190 72 244c45 52 109 80 186 80zM523 23v706c205 -93 301 -210 301 -365c0 -200 -100 -314 -301 -341z" />
    <glyph glyph-name="sterling" unicode="&#xa3;" 
 />
    <glyph glyph-name="asciitilde" unicode="~" horiz-adv-x="835" 
d="M65 548l-35 -75c11 -22 25 -44 44 -65c51 -57 106 -87 171 -99c13 -3 27 -4 42 -4c53 0 112 17 179 52c85 44 144 67 177 69c34 -1 67 -15 100 -42c17 -20 30 -41 37 -64l25 58c-11 21 -26 41 -44 62c-43 49 -94 72 -147 77c-51 3 -117 -15 -198 -54s-143 -58 -186 -55
c-24 1 -46 7 -66 16c-41 18 -87 65 -99 124z" />
    <glyph glyph-name="equal" unicode="=" horiz-adv-x="693" 
d="M663 741h-633v-43h633v43zM663 454h-633v-43h633v43z" />
    <glyph glyph-name="greater" unicode="&#x3e;" 
 />
    <glyph glyph-name="less" unicode="&#x3c;" 
 />
    <glyph glyph-name="minus" unicode="&#x2212;" horiz-adv-x="693" 
d="M663 594h-633v-43h633v43z" />
    <glyph glyph-name="percent" unicode="%" horiz-adv-x="1594" 
d="M480 -25h107l531 1609h-107zM712 1371c-54 84 -118 145 -191 184c-42 18 -79 27 -110 27l-54 -3c-18 -5 -34 -9 -48 -14c-3 -2 -7 -4 -10 -5c-164 -48 -269 -258 -269 -454c0 -68 19 -133 55 -200c75 -132 203 -225 326 -225c75 0 142 22 201 65c117 87 180 231 180 360
c0 94 -27 182 -80 265zM417 719c-46 0 -91 20 -136 61c-90 80 -152 217 -152 317c0 221 66 445 282 445c163 0 284 -205 284 -424c0 -189 -94 -399 -278 -399zM1484 680c-54 84 -118 145 -191 184c-42 18 -79 27 -110 27l-54 -3c-18 -5 -34 -9 -48 -14c-3 -2 -7 -4 -10 -5
c-164 -48 -269 -258 -269 -454c0 -68 19 -133 55 -200c75 -132 203 -225 326 -225c75 0 142 22 201 65c117 87 180 231 180 360c0 94 -27 182 -80 265zM1189 28c-46 0 -91 20 -136 61c-90 80 -152 217 -152 317c0 221 66 445 282 445c163 0 284 -205 284 -424
c0 -189 -94 -399 -278 -399z" />
    <glyph glyph-name="plus" unicode="+" horiz-adv-x="693" 
d="M399 244v307h264v43h-264v283h-104v-283h-265v-43h265v-307h104z" />
    <glyph glyph-name="bar" unicode="|" horiz-adv-x="164" 
d="M134 1580h-104v-1617h104v1617z" />
    <glyph glyph-name="at" unicode="@" 
 />
    <glyph glyph-name="ampersand" unicode="&#x26;" horiz-adv-x="1505" 
d="M1475 181v-6l-1 -12l-1 -7l-1 -3l-4 -9c-41 -89 -157 -138 -245 -138c-11 0 -21 1 -31 2c-62 0 -133 37 -213 111l-26 27c-100 -91 -218 -144 -363 -144c-100 3 -181 14 -243 35c-205 58 -310 183 -317 374c13 208 145 308 269 355c18 9 34 17 49 24
c-111 61 -213 139 -213 315c0 1 0 2 1 3c-4 21 -6 44 -6 68c0 135 66 248 171 306c52 29 109 43 172 43c74 0 148 -20 222 -59c283 -225 140 -583 -107 -635c264 -104 364 -268 359 -444v-29c1 -50 10 -94 28 -133l40 48c43 63 85 165 128 306l13 42c2 2 3 5 3 9l-5 7
c-6 6 -10 13 -12 21l-1 24c4 15 16 28 29 32c6 1 15 2 27 2c7 -1 13 -5 18 -10l3 -3c6 -5 10 -11 13 -19l2 -13v-6l-1 -12l-1 -7l-1 -3c-2 -4 -4 -7 -6 -10c-3 -3 -10 -10 -21 -22c-53 -161 -90 -260 -113 -297s-34 -56 -35 -57l-15 -17l-46 -51c62 -97 140 -145 233 -145
c63 -1 120 24 171 75l5 11v6l-2 4c-2 4 -4 6 -5 7c-7 6 -11 13 -12 21l-1 24c7 16 17 28 31 33c14 4 35 0 43 -9l3 -3c7 -6 11 -12 13 -19zM303 962c46 -33 119 -68 216 -105c339 111 326 417 175 536c-76 60 -148 90 -215 90c-111 0 -240 -131 -240 -283
c0 -98 21 -177 64 -238zM625 38c108 0 210 46 305 138c-42 59 -66 132 -71 219c-11 52 -36 101 -73 147c-53 65 -147 124 -282 177c-30 11 -58 23 -83 34c-11 -3 -22 -7 -34 -11c-91 -32 -234 -104 -247 -307c7 -270 165 -403 474 -398c3 1 7 1 11 1z" />
    <glyph glyph-name="paragraph" unicode="&#xb6;" 
 />
    <glyph glyph-name="copyright" unicode="&#xa9;" 
 />
    <glyph glyph-name="registered" unicode="&#xae;" 
 />
    <glyph glyph-name="section" unicode="&#xa7;" 
 />
    <glyph glyph-name="trademark" unicode="&#x2122;" 
 />
    <glyph glyph-name="degree" unicode="&#xb0;" 
 />
    <glyph glyph-name="asciicircum" unicode="^" 
 />
    <glyph glyph-name="dagger" unicode="&#x2020;" 
 />
    <glyph glyph-name="acute" unicode="&#xb4;" 
 />
    <glyph glyph-name="grave" unicode="`" 
 />
    <glyph glyph-name="uni0000" horiz-adv-x="0" 
 />
    <glyph glyph-name="uni0000" horiz-adv-x="0" 
 />
    </font>
</defs>
</svg>
