<?xml version="1.0" standalone="no"?>
<!DOCTYPE svg PUBLIC "-//W3C//DTD SVG 1.1//EN" "http://www.w3.org/Graphics/SVG/1.1/DTD/svg11.dtd" >
<svg xmlns="http://www.w3.org/2000/svg" xmlns:xlink="http://www.w3.org/1999/xlink" version="1.1">
<metadata>
Created by FontForge 20201107 at Thu Aug 16 22:36:19 2007
 By Jimmy Wärting
Copyright 1992, 2002 Adobe Systems Incorporated. All rights reserved. Linotype Didot is a trademark of Linotype GmbH and may be registered in certain jurisdictions.
</metadata>
<defs>
<font id="DidotLTStd-Bold" horiz-adv-x="556" >
  <font-face 
    font-family="Didot LT Std"
    font-weight="700"
    font-stretch="normal"
    units-per-em="1000"
    panose-1="2 7 8 3 9 5 6 2 3 3"
    ascent="721"
    descent="-279"
    x-height="429"
    cap-height="712"
    bbox="-161 -302 1059 969"
    underline-thickness="50"
    underline-position="-100"
    stemh="14"
    stemv="122"
    unicode-range="U+0020-FB02"
  />
<missing-glyph horiz-adv-x="500" 
d="M0 0v700h500v-700h-500zM250 395l170 255h-340zM280 350l170 -255v510zM80 50h340l-170 255zM50 605v-510l170 255z" />
    <glyph glyph-name="f_i" unicode="fi" horiz-adv-x="630" 
d="M45 0v14h66v401h-66v14h66c0 91 4 145 40 203c49 75 130 96 197 96c65 0 174 -22 174 -106c0 -35 -26 -55 -60 -55c-29 0 -62 9 -62 44c0 31 11 48 11 68c0 30 -35 35 -59 35c-119 0 -119 -113 -119 -156v-129h295v-415h67v-14h-250v14h61v401h-173v-401h61v-14h-249z
" />
    <glyph glyph-name="f_l" unicode="fl" horiz-adv-x="611" 
d="M38 415v14h67c0 129 0 168 34 220c51 78 136 79 175 79c25 0 52 -4 75 -8s43 -8 51 -8h74v-698h66v-14h-244v14h56v557c-16 5 -42 12 -42 43c0 10 15 50 15 59c0 34 -36 41 -60 41c-75 0 -78 -75 -78 -140v-145h72v-14h-72v-401h55v-14h-244v14h67v401h-67z" />
    <glyph glyph-name=".notdef" horiz-adv-x="500" 
d="M0 0v700h500v-700h-500zM250 395l170 255h-340zM280 350l170 -255v510zM80 50h340l-170 255zM50 605v-510l170 255z" />
    <glyph glyph-name="space" unicode=" " horiz-adv-x="278" 
 />
    <glyph glyph-name="exclam" unicode="!" horiz-adv-x="296" 
d="M138 201l-48 397c-4 33 -7 53 -7 62c0 40 26 68 65 68s65 -28 65 -68c0 -9 -3 -29 -7 -62l-48 -397h-20zM77 61c0 39 32 71 71 71s71 -32 71 -71s-32 -71 -71 -71s-71 32 -71 71z" />
    <glyph glyph-name="quotedbl" unicode="&#x22;" horiz-adv-x="370" 
d="M102 424l-26 213c-2 14 -4 29 -4 42c0 39 21 49 39 49s39 -10 39 -49c0 -13 -2 -28 -4 -42l-26 -213h-18zM250 424l-26 213c-2 14 -4 29 -4 42c0 39 21 49 39 49s39 -10 39 -49c0 -13 -2 -28 -4 -42l-26 -213h-18z" />
    <glyph glyph-name="numbersign" unicode="#" 
d="M150 237l-86 -237h-21l86 237h-133l7 18h133l72 198h-133l7 18h133l87 241h21l-87 -241h169l87 241h21l-87 -241h133l-7 -18h-133l-72 -198h133l-7 -18h-133l-86 -237h-21l86 237h-169zM229 453l-72 -198h169l72 198h-169z" />
    <glyph glyph-name="dollar" unicode="$" horiz-adv-x="630" 
d="M313 302v-303c134 4 169 104 169 155c0 91 -77 121 -169 148zM296 459v255c-97 -6 -151 -69 -151 -125c0 -73 66 -106 151 -130zM296 728v59h17v-59c87 -1 128 -37 160 -37c18 0 22 5 28 21h17v-190h-14c-31 91 -63 190 -191 192v-259c120 -37 261 -73 261 -227
c0 -126 -105 -235 -261 -243v-70h-17v70c-81 1 -167 38 -194 38c-18 0 -24 -5 -31 -23h-15v222h14c6 -32 26 -109 81 -163c56 -55 107 -60 145 -60v307c-109 33 -226 71 -226 216c0 102 92 198 226 206z" />
    <glyph glyph-name="percent" unicode="%" horiz-adv-x="778" 
d="M561 0c76 0 76 61 76 147s0 147 -76 147s-76 -61 -76 -147s0 -147 76 -147zM191 -5l376 733l20 -9l-376 -733zM217 420c76 0 76 61 76 147s0 147 -76 147s-76 -61 -76 -147s0 -147 76 -147zM561 -14c-85 0 -172 67 -172 161s87 161 172 161s172 -67 172 -161
s-87 -161 -172 -161zM217 406c-85 0 -172 67 -172 161s87 161 172 161s172 -67 172 -161s-87 -161 -172 -161z" />
    <glyph glyph-name="ampersand" unicode="&#x26;" horiz-adv-x="796" 
d="M391 493l168 -329c19 27 44 94 44 195c0 111 -35 131 -104 131v14h202v-14c-60 -11 -78 -14 -83 -128c-2 -52 -10 -155 -51 -214l46 -81c5 -9 18 -29 42 -29c40 0 47 63 47 74c0 7 -1 11 -3 18h14c1 -3 3 -10 3 -16c0 -10 -1 -129 -130 -129c-58 0 -85 28 -110 60
c-39 -31 -75 -60 -161 -60c-202 0 -242 151 -242 219c0 124 109 192 194 245c-21 56 -32 84 -32 119c0 82 74 160 149 160c50 0 94 -28 94 -102c0 -41 -14 -85 -87 -133zM444 101l-150 291c-9 18 -18 39 -22 46c-56 -43 -83 -64 -83 -130c0 -74 88 -296 186 -296
c36 0 62 19 95 45c-13 19 -19 30 -26 44zM465 624c0 43 -20 90 -67 90c-7 0 -65 0 -65 -70c0 -39 28 -98 52 -139c27 18 80 53 80 119z" />
    <glyph glyph-name="quoteright" unicode="&#x2019;" horiz-adv-x="278" 
d="M81 415l-7 13c65 45 107 79 107 127c0 21 -8 35 -15 41c-12 -8 -28 -10 -42 -10c-28 0 -69 20 -69 71c0 50 41 71 76 71c51 0 92 -43 92 -119c0 -104 -85 -158 -142 -194z" />
    <glyph glyph-name="parenleft" unicode="(" horiz-adv-x="259" 
d="M243 -276l-16 -10c-18 23 -156 212 -156 502s138 479 156 502l16 -10c-110 -161 -152 -323 -152 -492s42 -331 152 -492z" />
    <glyph glyph-name="parenright" unicode=")" horiz-adv-x="259" 
d="M32 -286l-16 10c110 161 152 323 152 492s-42 331 -152 492l16 10c18 -23 156 -212 156 -502s-138 -479 -156 -502z" />
    <glyph glyph-name="asterisk" unicode="*" horiz-adv-x="482" 
d="M48 595c0 32 28 54 51 54c59 0 61 -65 140 -130c-4 30 -5 33 -28 89c-21 51 -23 57 -23 71c0 26 25 49 53 49s53 -23 53 -49c0 -14 -2 -20 -23 -71c-23 -56 -24 -59 -28 -89c79 65 81 130 140 130c23 0 51 -22 51 -54c0 -27 -15 -50 -60 -55c-31 -3 -89 -11 -129 -25v-2
c33 -9 62 -17 104 -21c42 -5 85 -9 85 -58c0 -28 -23 -53 -55 -53c-25 0 -37 12 -72 62c-14 20 -33 39 -64 68c4 -30 5 -33 28 -89c21 -51 23 -57 23 -71c0 -26 -25 -49 -53 -49s-53 23 -53 49c0 14 2 20 23 71c23 56 24 59 27 89c-31 -29 -50 -48 -64 -68
c-35 -50 -47 -62 -72 -62c-32 0 -55 25 -55 53c0 49 43 53 85 58c42 4 71 12 104 21c-39 16 -97 24 -128 27c-45 5 -60 28 -60 55z" />
    <glyph glyph-name="plus" unicode="+" horiz-adv-x="593" 
d="M286 0v231h-230v18h230v231h20v-231h230v-18h-230v-231h-20z" />
    <glyph glyph-name="comma" unicode="," horiz-adv-x="278" 
d="M81 -181l-7 13c65 45 107 79 107 127c0 21 -8 35 -15 41c-6 -4 -13 -6 -20 -8c-7 -1 -15 -2 -22 -2c-28 0 -69 20 -69 71c0 50 41 71 76 71c51 0 92 -43 92 -119c0 -104 -85 -158 -142 -194z" />
    <glyph glyph-name="hyphen" unicode="-" horiz-adv-x="370" 
d="M91 166v98h188v-98h-188z" />
    <glyph glyph-name="period" unicode="." horiz-adv-x="278" 
d="M68 61c0 39 32 71 71 71s71 -32 71 -71s-32 -71 -71 -71s-71 32 -71 71z" />
    <glyph glyph-name="slash" unicode="/" horiz-adv-x="296" 
d="M3 0l270 718l20 -6l-270 -718z" />
    <glyph glyph-name="zero" unicode="0" 
d="M34 357c0 95 24 371 244 371c244 0 244 -296 244 -371c0 -95 -24 -371 -244 -371c-244 0 -244 296 -244 371zM169 357c0 -252 6 -357 109 -357s109 105 109 357c0 264 -6 357 -109 357s-109 -105 -109 -357z" />
    <glyph glyph-name="one" unicode="1" 
d="M450 14v-14h-308v14h94v623c-44 -24 -88 -50 -131 -74l-8 13c96 55 142 78 221 152h40v-714h92z" />
    <glyph glyph-name="two" unicode="2" 
d="M149 104h220c19 0 97 0 103 101h14v-205h-456v14l6 5c232 222 304 290 304 511c0 107 -11 184 -88 184c-36 0 -82 -12 -82 -78c0 -8 6 -48 6 -56c0 -33 -26 -44 -57 -44c-19 0 -61 0 -61 51c0 46 57 141 207 141s210 -94 210 -194c0 -43 -19 -120 -106 -210l-72 -74z" />
    <glyph glyph-name="three" unicode="3" 
d="M20 142l16 5c9 -51 54 -147 177 -147c130 0 150 103 150 218c0 74 0 180 -130 180c-44 0 -82 -16 -120 -40l-8 14c44 28 82 36 130 45c33 7 112 22 112 171c0 36 0 126 -96 126c-37 0 -70 -15 -70 -55c0 -10 8 -52 8 -61c0 -47 -38 -47 -63 -47s-55 11 -55 48
c0 79 78 129 196 129c174 0 210 -97 210 -147c0 -104 -99 -141 -217 -170v-2c124 -20 238 -71 238 -201c0 -96 -83 -222 -271 -222c-100 0 -180 40 -207 156z" />
    <glyph glyph-name="four" unicode="4" 
d="M314 173v256h122v-256h89v-14h-89v-145h89v-14h-299v14h88v145h-283c27 83 133 323 216 461c65 108 92 108 131 108c24 0 57 -4 57 -32c0 -14 -9 -24 -21 -34c-72 -60 -279 -296 -364 -489h264z" />
    <glyph glyph-name="five" unicode="5" 
d="M78 308l67 413h30c20 -19 88 -73 170 -73c20 0 79 2 128 70l13 -6c-89 -124 -117 -162 -194 -162c-46 0 -112 28 -152 44l-36 -219l2 -2c33 39 60 70 149 70c125 0 230 -83 230 -209c0 -109 -93 -248 -257 -248c-105 0 -182 52 -182 111c0 55 48 56 61 56
c50 0 61 -21 61 -44c0 -7 -5 -40 -5 -47c0 -51 38 -62 60 -62c54 0 127 2 127 226c0 175 -54 200 -120 200c-87 0 -119 -78 -139 -118h-13z" />
    <glyph glyph-name="six" unicode="6" 
d="M32 300c0 226 138 428 319 428c71 0 145 -33 145 -110c0 -41 -19 -59 -60 -59c-46 0 -59 18 -59 44c0 24 17 51 17 69c0 9 -4 42 -48 42c-143 0 -169 -220 -181 -339l2 -2c19 25 48 65 129 65c122 0 228 -99 228 -225c0 -124 -118 -227 -239 -227
c-142 0 -253 114 -253 314zM389 231c0 126 -27 193 -100 193c-26 0 -68 -6 -98 -46c-19 -25 -27 -43 -27 -124c0 -244 70 -254 117 -254c61 0 108 17 108 231z" />
    <glyph glyph-name="seven" unicode="7" 
d="M73 514v198h422c0 -77 -36 -252 -103 -416c-89 -219 -132 -310 -207 -310c-32 0 -66 9 -66 40c0 19 8 30 20 42l87 81c146 136 220 339 239 441h-311c-49 0 -63 -46 -67 -76h-14z" />
    <glyph glyph-name="eight" unicode="8" 
d="M39 171c0 103 72 144 159 187c-71 39 -130 76 -130 179c0 113 98 191 222 191c103 0 188 -65 188 -151c0 -65 -42 -115 -134 -157c107 -49 165 -109 165 -202c0 -104 -96 -232 -243 -232c-122 0 -227 79 -227 185zM298 306l-85 45c-61 -37 -65 -120 -65 -176
c0 -133 50 -175 118 -175c110 0 139 89 139 150c0 84 -38 119 -107 156zM163 593c0 -89 67 -120 168 -166c19 16 43 35 43 149c0 35 -3 138 -96 138c-69 0 -115 -54 -115 -121z" />
    <glyph glyph-name="nine" unicode="9" 
d="M24 501c0 124 118 227 239 227c142 0 253 -114 253 -314c-1 -232 -85 -428 -290 -428c-137 0 -165 69 -165 107c0 42 25 62 66 62c21 0 52 -4 52 -41c0 -17 -12 -53 -12 -69c0 -45 37 -45 62 -45c124 0 151 147 151 341h-2c-16 -25 -45 -65 -126 -65
c-122 0 -228 99 -228 225zM159 483c0 -138 33 -193 100 -193c59 0 105 34 117 91c2 12 5 46 5 79c0 244 -67 254 -114 254c-55 0 -108 -29 -108 -231z" />
    <glyph glyph-name="colon" unicode=":" horiz-adv-x="278" 
d="M68 372c0 39 32 71 71 71s71 -32 71 -71s-32 -71 -71 -71s-71 32 -71 71zM68 61c0 39 32 71 71 71s71 -32 71 -71s-32 -71 -71 -71s-71 32 -71 71z" />
    <glyph glyph-name="semicolon" unicode=";" horiz-adv-x="278" 
d="M81 -181l-7 13c65 45 107 79 107 127c0 21 -8 35 -15 41c-6 -4 -13 -6 -20 -8c-7 -1 -15 -2 -22 -2c-28 0 -69 20 -69 71c0 50 41 71 76 71c51 0 92 -43 92 -119c0 -104 -85 -158 -142 -194zM68 372c0 39 32 71 71 71s71 -32 71 -71s-32 -71 -71 -71s-71 32 -71 71z" />
    <glyph glyph-name="less" unicode="&#x3c;" horiz-adv-x="593" 
d="M580 20v-20l-568 236v8l568 236v-20l-535 -220z" />
    <glyph glyph-name="equal" unicode="=" horiz-adv-x="593" 
d="M56 317v18h480v-18h-480zM56 145v18h480v-18h-480z" />
    <glyph glyph-name="greater" unicode="&#x3e;" horiz-adv-x="593" 
d="M12 460v20l568 -236v-8l-568 -236v20l536 220z" />
    <glyph glyph-name="question" unicode="?" horiz-adv-x="444" 
d="M123 192v235h17c16 -24 35 -47 64 -47c52 0 65 63 65 180s-13 154 -62 154c-36 0 -52 -20 -52 -38c0 -24 21 -29 21 -58c0 -34 -17 -45 -55 -45c-26 0 -54 12 -54 47c0 75 77 108 144 108c118 0 180 -83 180 -182c0 -134 -118 -183 -169 -183c-47 0 -69 19 -80 34h-2
v-205h-17zM60 61c0 39 32 71 71 71s71 -32 71 -71s-32 -71 -71 -71s-71 32 -71 71z" />
    <glyph glyph-name="at" unicode="@" horiz-adv-x="833" 
d="M570 528h85l-68 -233c-4 -14 -9 -36 -9 -53c0 -27 15 -44 44 -44c64 0 147 110 147 234c0 147 -112 276 -307 276c-226 0 -380 -186 -380 -372s145 -330 353 -330c82 0 181 27 269 95l13 -17c-83 -63 -183 -98 -288 -98c-213 1 -386 141 -386 352c0 215 187 390 416 390
c200 0 331 -129 331 -294c0 -141 -100 -277 -201 -277c-80 0 -86 66 -88 89c-16 -30 -48 -89 -127 -89c-45 0 -139 26 -139 139c0 133 119 243 222 243c76 0 89 -53 95 -74zM534 444c0 56 -38 70 -64 70c-81 0 -146 -126 -146 -237c0 -20 0 -94 67 -94c52 0 79 44 99 94
c16 38 44 127 44 167z" />
    <glyph glyph-name="A" unicode="A" horiz-adv-x="759" 
d="M-26 0v14h85l298 726h27l315 -726h86v-14h-336v14h93l-116 268h-240l-111 -268h89v-14h-190zM421 296l-118 273l-112 -273h230z" />
    <glyph glyph-name="B" unicode="B" horiz-adv-x="685" 
d="M127 14v684h-92v14h151c28 0 55 1 83 2c28 0 56 1 83 1c105 0 242 -38 242 -166c0 -115 -138 -154 -202 -163v-4c103 -8 239 -47 239 -189c0 -155 -178 -196 -278 -196c-28 0 -56 1 -83 2c-28 0 -56 1 -84 1h-151v14h92zM272 375v-361c18 -2 39 -3 58 -3
c85 0 138 31 138 193c0 44 -6 171 -138 171h-58zM272 698v-309h41c120 0 130 71 130 144c0 117 -27 168 -127 168c-15 0 -29 -2 -44 -3z" />
    <glyph glyph-name="C" unicode="C" horiz-adv-x="722" 
d="M657 712v-204h-13c-29 89 -74 206 -218 206c-194 0 -212 -152 -212 -362c0 -276 62 -353 212 -353c119 0 197 106 221 213h16v-212h-16c-7 16 -14 21 -33 21c-31 0 -104 -36 -189 -36c-196 0 -374 163 -374 369c0 226 203 374 374 374c83 0 149 -37 185 -37
c18 0 27 3 31 21h16z" />
    <glyph glyph-name="D" unicode="D" horiz-adv-x="815" 
d="M124 14v684h-92v14h92c34 0 68 1 102 2c34 0 68 1 102 1c180 0 439 -65 439 -359c0 -292 -262 -359 -416 -359c-38 0 -76 1 -113 2c-38 0 -76 1 -114 1h-92v14h92zM269 698v-684c19 -2 35 -3 53 -3c259 0 282 203 282 335c0 215 -41 355 -273 355c-26 0 -49 -1 -62 -3z
" />
    <glyph glyph-name="E" unicode="E" horiz-adv-x="722" 
d="M37 698v14h598v-171h-13c-14 44 -57 157 -189 157h-159v-309h56c98 0 132 59 151 149h13v-311h-13c-18 78 -48 148 -140 148h-67v-361h164c123 0 198 89 225 205h13v-219h-639v14h92v684h-92z" />
    <glyph glyph-name="F" unicode="F" horiz-adv-x="685" 
d="M129 14v684h-92v14h591v-171h-13c-38 95 -82 157 -190 157h-151v-322h56c98 0 132 59 151 149h13v-311h-13c-18 78 -48 148 -140 148h-67v-348h93v-14h-330v14h92z" />
    <glyph glyph-name="G" unicode="G" horiz-adv-x="778" 
d="M654 712v-204h-15c-34 130 -102 207 -217 206c-224 0 -212 -222 -212 -390c0 -243 62 -325 212 -325c122 0 137 94 137 215v38h-103v14h309v-14h-65v-229h-18c-3 16 -17 23 -33 23c-64 0 -105 -61 -228 -61c-196 0 -374 163 -374 369c0 226 203 374 374 374
c81 0 150 -37 185 -37c18 0 24 5 31 21h17z" />
    <glyph glyph-name="H" unicode="H" horiz-adv-x="833" 
d="M35 698v14h329v-14h-92v-328h289v328h-92v14h329v-14h-92v-684h92v-14h-329v14h92v342h-289v-342h92v-14h-329v14h92v684h-92z" />
    <glyph glyph-name="I" unicode="I" horiz-adv-x="407" 
d="M39 698v14h329v-14h-92v-684h92v-14h-329v14h92v684h-92z" />
    <glyph glyph-name="J" unicode="J" horiz-adv-x="500" 
d="M380 698v-494c0 -65 -3 -219 -200 -219c-70 0 -158 22 -158 108c0 12 0 71 79 71c21 0 61 -5 61 -48c0 -18 -14 -66 -14 -77c0 -40 33 -40 44 -40c43 0 43 41 43 66v633h-92v14h329v-14h-92z" />
    <glyph glyph-name="K" unicode="K" horiz-adv-x="778" 
d="M42 698v14h329v-14h-92v-320h8l306 320h-101v14h200v-14h-80l-223 -234l346 -450h62v-14h-334v14h90l-266 350h-8v-350h92v-14h-329v14h92v684h-92z" />
    <glyph glyph-name="L" unicode="L" horiz-adv-x="722" 
d="M46 698v14h329v-14h-92v-684h165c87 0 185 56 219 212h13v-226h-634v14h92v684h-92z" />
    <glyph glyph-name="M" unicode="M" horiz-adv-x="926" 
d="M34 698v14h257l173 -498h2l176 498h250v-14h-92v-684h92v-14h-328v14h91v684h-2l-246 -698h-16l-247 698h-2v-684h92v-14h-200v14h92v684h-92z" />
    <glyph glyph-name="N" unicode="N" horiz-adv-x="741" 
d="M34 698v14h236l333 -476h2v462h-92v14h200v-14h-92v-698h-27l-450 641h-2v-627h92v-14h-200v14h92v684h-92z" />
    <glyph glyph-name="O" unicode="O" horiz-adv-x="833" 
d="M42 354c0 226 203 374 375 374c185 0 374 -143 374 -371c0 -200 -175 -372 -374 -372c-197 0 -375 163 -375 369zM205 354c0 -278 62 -355 212 -355c197 0 211 156 211 364c0 187 -10 351 -211 351c-187 0 -212 -150 -212 -360z" />
    <glyph glyph-name="P" unicode="P" horiz-adv-x="648" 
d="M271 339v-325h92v-14h-329v14h92v684h-92v14h92c34 0 68 1 102 2c34 0 68 1 102 1c120 0 296 -33 296 -187c0 -104 -100 -189 -314 -189h-41zM271 698v-345h31c114 0 161 46 161 169c0 116 -37 179 -153 179c-14 0 -28 -2 -39 -3z" />
    <glyph glyph-name="Q" unicode="Q" horiz-adv-x="833" 
d="M735 -200v-14c-218 11 -257 23 -317 127c-18 31 -42 59 -59 78c-173 27 -317 178 -317 363c0 226 203 374 375 374c185 0 374 -143 374 -371c0 -200 -175 -372 -374 -372c-13 0 -24 1 -34 3c27 -28 46 -35 129 -43c66 -6 95 -40 120 -85c27 -48 34 -60 103 -60zM205 354
c0 -278 62 -355 212 -355c197 0 211 156 211 364c0 187 -10 351 -211 351c-187 0 -212 -150 -212 -360z" />
    <glyph glyph-name="R" unicode="R" horiz-adv-x="722" 
d="M127 14v684h-92v14h151c28 0 55 1 83 2c28 0 56 1 83 1c105 0 245 -38 245 -171c0 -107 -107 -148 -197 -155v-5c130 -23 208 -37 219 -181c13 -167 12 -195 59 -195c27 0 43 20 56 33l10 -9c-27 -27 -44 -47 -117 -47c-147 0 -152 106 -155 176c-5 109 -10 214 -134 214
h-66v-361h92v-14h-329v14h92zM272 698v-309h41c120 0 130 71 130 144c0 117 -27 168 -127 168c-15 0 -29 -2 -44 -3z" />
    <glyph glyph-name="S" unicode="S" horiz-adv-x="648" 
d="M63 0v222h15c6 -32 26 -109 81 -163c61 -60 115 -60 155 -60c140 0 176 103 176 155c0 199 -412 81 -412 368c0 106 100 206 241 206c88 0 130 -37 162 -37c18 0 22 5 28 21h16v-190h-13c-31 92 -64 192 -194 192c-106 0 -165 -66 -165 -125c0 -185 429 -96 429 -361
c0 -131 -113 -243 -276 -243c-82 0 -169 38 -196 38c-18 0 -24 -5 -31 -23h-16z" />
    <glyph glyph-name="T" unicode="T" horiz-adv-x="705" 
d="M280 14v684h-36c-99 0 -153 -33 -192 -169h-13v183h627v-183h-13c-39 136 -93 169 -192 169h-36v-684h92v-14h-329v14h92z" />
    <glyph glyph-name="U" unicode="U" horiz-adv-x="778" 
d="M32 698v14h330v-14h-92v-449c0 -124 13 -250 162 -250c215 0 215 171 215 229v470h-91v14h200v-14h-93v-469c0 -65 0 -244 -240 -244c-261 0 -298 127 -298 246v467h-93z" />
    <glyph glyph-name="V" unicode="V" horiz-adv-x="722" 
d="M-18 698v14h335v-14h-96l207 -542l211 542h-90v14h191v-14h-86l-282 -726h-29l-276 726h-85z" />
    <glyph glyph-name="W" unicode="W" horiz-adv-x="1037" 
d="M-12 698v14h307v-14h-73l180 -527h2l105 298l-78 229h-54v14h299v-14h-93l181 -528h2l185 528h-86v14h184v-14h-81l-257 -726h-29l-164 474h-2l-168 -474h-29l-248 726h-83z" />
    <glyph glyph-name="X" unicode="X" horiz-adv-x="759" 
d="M10 698v14h335v-14h-82l146 -248l156 248h-86v14h181v-14h-78l-164 -262l258 -422h83v-14h-343v14h89l-182 301l-186 -301h90v-14h-190v14h82l195 316l-224 368h-80z" />
    <glyph glyph-name="Y" unicode="Y" horiz-adv-x="704" 
d="M-16 698v14h323v-14h-79l204 -349l184 349h-87v14h191v-14h-87l-193 -367v-317h93v-14h-330v14h92v279l-232 405h-79z" />
    <glyph glyph-name="Z" unicode="Z" horiz-adv-x="685" 
d="M34 0l402 698h-139c-109 0 -153 -60 -194 -153h-13v167h518l-404 -698h181c105 0 203 56 237 212h13v-226h-601z" />
    <glyph glyph-name="bracketleft" unicode="[" horiz-adv-x="259" 
d="M97 -280v992h122v-20h-102v-952h102v-20h-122z" />
    <glyph glyph-name="backslash" unicode="\" horiz-adv-x="296" 
d="M23 718l270 -718l-20 -6l-270 718z" />
    <glyph glyph-name="bracketright" unicode="]" horiz-adv-x="259" 
d="M162 712v-992h-122v20h102v952h-102v20h122z" />
    <glyph glyph-name="asciicircum" unicode="^" horiz-adv-x="593" 
d="M119 305l173 407h9l172 -407h-21l-156 369l-155 -369h-22z" />
    <glyph glyph-name="underscore" unicode="_" horiz-adv-x="500" 
d="M0 -106v31h500v-31h-500z" />
    <glyph glyph-name="quoteleft" unicode="&#x2018;" horiz-adv-x="278" 
d="M197 728l7 -13c-65 -45 -107 -79 -107 -127c0 -21 8 -35 15 -41c12 8 28 10 42 10c28 0 69 -20 69 -71c0 -50 -41 -71 -76 -71c-51 0 -92 43 -92 119c0 104 85 158 142 194z" />
    <glyph glyph-name="a" unicode="a" horiz-adv-x="519" 
d="M498 25l9 -9c-19 -29 -59 -30 -90 -30c-67 0 -98 27 -106 69h-2c-21 -54 -54 -69 -125 -69c-64 0 -142 23 -142 100c0 78 66 100 132 120c108 33 131 41 131 91v61c0 35 -13 71 -62 71c-31 0 -57 -12 -57 -49c0 -7 6 -46 6 -55c0 -41 -43 -41 -61 -41c-27 0 -58 6 -58 51
c0 70 84 108 171 108c101 0 183 -28 183 -141v-248c0 -25 4 -48 33 -48c17 0 27 7 38 19zM305 116v132h-2c-2 -8 -9 -15 -27 -24c-50 -24 -106 -40 -106 -120c0 -31 3 -95 65 -95c34 0 70 29 70 107z" />
    <glyph glyph-name="b" unicode="b" horiz-adv-x="593" 
d="M97 14v693h-66v14h188v-362h2c20 54 57 84 116 84c154 0 218 -135 218 -228c0 -119 -88 -229 -218 -229c-58 0 -97 34 -118 88h-2v-74h-186v14h66zM219 214c0 -84 6 -214 118 -214c74 0 83 84 83 214c0 161 -23 215 -91 215c-99 0 -110 -126 -110 -215z" />
    <glyph glyph-name="c" unicode="c" horiz-adv-x="481" 
d="M35 215c0 98 87 228 246 228c99 0 170 -44 170 -111c0 -44 -24 -60 -65 -60c-31 0 -62 8 -62 44c0 11 15 59 15 70c0 27 -26 43 -61 43c-95 0 -108 -96 -108 -208c0 -103 9 -221 125 -221c109 0 146 91 150 116l14 -5c-12 -46 -52 -125 -177 -125c-52 0 -247 25 -247 229
z" />
    <glyph glyph-name="d" unicode="d" horiz-adv-x="593" 
d="M496 721v-707h66v-14h-186v74h-2c-21 -54 -60 -88 -118 -88c-130 0 -218 110 -218 229c0 93 64 228 218 228c59 0 96 -30 116 -84h2v348h-68v14h190zM374 214c0 89 -11 215 -110 215c-68 0 -91 -54 -91 -215c0 -130 9 -214 83 -214c112 0 118 130 118 214z" />
    <glyph glyph-name="e" unicode="e" horiz-adv-x="500" 
d="M465 251h-295v-45c0 -95 8 -206 127 -206c106 0 145 93 148 116l14 -5c-13 -49 -61 -125 -177 -125c-139 0 -247 87 -247 230c0 115 103 227 233 227c92 0 197 -56 197 -192zM170 265h160v67c0 28 0 97 -65 97c-90 0 -92 -96 -95 -164z" />
    <glyph glyph-name="f" unicode="f" horiz-adv-x="352" 
d="M38 415v14h66c0 131 0 299 199 299c60 0 125 -28 125 -97c0 -31 -26 -55 -57 -55c-35 0 -53 16 -53 51c0 9 8 45 8 52c0 24 -21 35 -43 35c-57 0 -57 -61 -57 -130v-155h83v-14h-83v-401h77v-14h-265v14h66v401h-66z" />
    <glyph glyph-name="g" unicode="g" horiz-adv-x="537" 
d="M176 71h110c100 0 191 -35 191 -159c0 -103 -89 -207 -237 -207c-167 0 -190 86 -190 122c0 71 73 112 133 128v2c-54 0 -145 23 -145 108c0 14 7 75 91 121c-24 18 -63 48 -63 106c0 82 74 151 195 151c60 0 102 -22 133 -46c34 31 54 46 98 46c39 0 58 -21 58 -52
c0 -27 -17 -43 -44 -43c-37 0 -42 23 -44 36c-3 19 -3 28 -17 28c-8 0 -16 -4 -42 -23c16 -17 40 -43 40 -97c0 -66 -49 -139 -180 -139c-53 0 -96 13 -122 24c-39 -25 -39 -42 -39 -57c0 -33 29 -49 74 -49zM256 167c47 0 77 18 77 128c0 77 -6 134 -77 134
c-68 0 -80 -60 -80 -122c0 -126 34 -140 80 -140zM140 -157c0 -48 23 -121 124 -121c76 0 144 57 144 136s-60 97 -101 97h-104c-40 -32 -63 -59 -63 -112z" />
    <glyph glyph-name="h" unicode="h" horiz-adv-x="630" 
d="M37 0v14h66v693h-66v14h188v-388h2c11 23 46 105 165 105c86 0 139 -56 139 -142v-282h67v-14h-251v14h62v316c0 55 -25 81 -63 81c-64 0 -121 -61 -121 -183v-214h63v-14h-251z" />
    <glyph glyph-name="i" unicode="i" horiz-adv-x="315" 
d="M36 415v14h189v-415h67v-14h-256v14h67v401h-67zM93 644c0 39 32 71 71 71s71 -32 71 -71s-32 -71 -71 -71s-71 32 -71 71z" />
    <glyph glyph-name="j" unicode="j" horiz-adv-x="333" 
d="M119 -212v627h-67v14h189v-472c0 -138 -42 -244 -167 -244c-70 0 -124 32 -124 85c0 42 27 56 56 56c33 0 53 -16 53 -44c0 -15 -8 -37 -8 -51c0 -13 0 -32 32 -32c24 0 36 9 36 61zM109 644c0 39 32 71 71 71s71 -32 71 -71s-32 -71 -71 -71s-71 32 -71 71z" />
    <glyph glyph-name="k" unicode="k" horiz-adv-x="593" 
d="M35 707v14h188v-477h5l186 171h-73v14h157v-14h-64l-112 -106l229 -295h39v-14h-265v14h72l-169 216h-5v-216h62v-14h-250v14h66v693h-66z" />
    <glyph glyph-name="l" unicode="l" horiz-adv-x="315" 
d="M36 707v14h189v-707h67v-14h-256v14h67v693h-67z" />
    <glyph glyph-name="m" unicode="m" horiz-adv-x="889" 
d="M42 415v14h186v-71h2c16 26 52 80 139 80c94 0 120 -43 140 -80c40 71 104 80 135 80c152 0 152 -103 152 -151v-273h66v-14h-247v14h59v310c0 56 -19 87 -67 87c-30 0 -94 -30 -94 -102v-295h59v-14h-241v14h60v318c0 58 -30 79 -61 79c-25 0 -51 -13 -70 -35
c-22 -26 -30 -52 -30 -118v-244h59v-14h-247v14h66v401h-66z" />
    <glyph glyph-name="n" unicode="n" horiz-adv-x="630" 
d="M42 0v14h66v401h-66v14h186v-100h2c11 25 48 109 167 109c86 0 139 -56 139 -142v-282h67v-14h-251v14h62v316c0 55 -25 81 -63 81c-64 0 -121 -61 -121 -183v-214h63v-14h-251z" />
    <glyph glyph-name="o" unicode="o" 
d="M278 443c138 0 244 -105 244 -228c0 -124 -106 -229 -244 -229s-244 105 -244 229c0 123 106 228 244 228zM278 0c104 0 109 107 109 215c0 107 -5 214 -109 214s-109 -107 -109 -214c0 -108 5 -215 109 -215z" />
    <glyph glyph-name="p" unicode="p" horiz-adv-x="593" 
d="M97 -266v681h-66v14h186v-74h2c21 58 60 88 118 88c154 0 218 -135 218 -228c0 -119 -88 -229 -218 -229c-61 0 -98 39 -116 86h-2v-338h68v-14h-256v14h66zM219 214c0 -84 6 -214 118 -214c74 0 83 84 83 214c0 161 -23 215 -91 215c-99 0 -110 -126 -110 -215z" />
    <glyph glyph-name="q" unicode="q" horiz-adv-x="593" 
d="M496 415v-681h66v-14h-256v14h68v338h-2c-18 -47 -55 -86 -116 -86c-130 0 -218 110 -218 229c0 93 64 228 218 228c58 0 97 -30 118 -88h2v74h186v-14h-66zM374 214c0 89 -11 215 -110 215c-68 0 -91 -54 -91 -215c0 -130 9 -214 83 -214c112 0 118 130 118 214z" />
    <glyph glyph-name="r" unicode="r" horiz-adv-x="444" 
d="M41 415v14h185v-84h2c24 51 63 93 129 93c55 0 94 -32 94 -85c0 -40 -19 -64 -61 -64c-30 0 -61 10 -61 45c0 8 7 46 7 50c0 1 0 24 -23 24c-28 0 -85 -53 -85 -138v-256h79v-14h-266v14h65v401h-65z" />
    <glyph glyph-name="s" unicode="s" horiz-adv-x="426" 
d="M44 0v145h14c31 -75 61 -145 154 -145c23 0 89 0 89 77c0 25 -8 51 -79 77l-81 30c-37 14 -91 45 -91 116c0 78 67 143 164 143c50 0 90 -25 106 -25c14 0 17 7 19 13h14v-122h-13c-27 65 -50 120 -133 120c-44 0 -88 -23 -88 -69c0 -19 5 -49 73 -72l85 -29
c72 -25 110 -66 110 -129c0 -88 -83 -144 -171 -144c-49 0 -116 28 -140 28c-11 0 -14 -4 -18 -14h-14z" />
    <glyph glyph-name="t" unicode="t" horiz-adv-x="370" 
d="M101 429v129c20 -8 41 -14 61 -14s41 6 61 14v-129h117v-14h-117v-335c0 -39 7 -74 53 -74c50 0 72 47 83 88l15 -3c-17 -91 -83 -105 -133 -105c-140 0 -140 73 -140 121v308h-67v14h67z" />
    <glyph glyph-name="u" unicode="u" horiz-adv-x="611" 
d="M27 415v14h189v-317c0 -50 17 -91 68 -91c62 0 103 63 103 136v258h-66v14h188v-415h66v-14h-186v81h-2c-22 -58 -89 -90 -149 -90c-93 0 -144 38 -144 135v289h-67z" />
    <glyph glyph-name="v" unicode="v" horiz-adv-x="463" 
d="M-14 415v14h262v-14h-72l123 -277l109 277h-77v14h140v-14h-46l-177 -443h-8l-199 443h-55z" />
    <glyph glyph-name="w" unicode="w" horiz-adv-x="741" 
d="M228 -28l-174 443h-60v14h255v-14h-65l103 -260l79 213l-20 47h-51v14h250v-14h-67l103 -260l96 260h-70v14h135v-14h-49l-164 -443h-7l-148 375l-139 -375h-7z" />
    <glyph glyph-name="x" unicode="x" horiz-adv-x="500" 
d="M3 415v14h262v-14h-61l85 -140l102 140h-67v14h141v-14h-56l-110 -153l157 -248h41v-14h-255v14h69l-99 155l-111 -155h77v-14h-163v14h67l121 168l-149 233h-51z" />
    <glyph glyph-name="y" unicode="y" horiz-adv-x="481" 
d="M177 415l122 -289l127 289h-83v14h145v-14h-46c-148 -319 -206 -501 -260 -615c-27 -58 -58 -87 -112 -87c-59 0 -103 30 -103 81c0 38 29 55 64 55c25 0 53 -14 53 -42c0 -24 -13 -35 -13 -55c0 -15 9 -22 20 -22c49 0 81 79 100 127l43 107l-188 451h-54v14h255v-14
h-70z" />
    <glyph glyph-name="z" unicode="z" horiz-adv-x="463" 
d="M34 0l243 415h-89c-72 0 -97 -35 -128 -105h-11l15 119h357l-242 -415h122c84 0 104 63 124 124h11l-11 -138h-391z" />
    <glyph glyph-name="braceleft" unicode="{" horiz-adv-x="370" 
d="M337 712v-18c-146 -7 -147 -106 -147 -183v-78c0 -113 -4 -149 -34 -179c-31 -31 -77 -36 -94 -38c17 -2 63 -7 94 -38c30 -30 34 -66 34 -179v-78c0 -77 1 -176 147 -183v-18c-24 2 -72 4 -108 33c-59 45 -59 106 -59 197v107c0 96 -19 131 -136 156v6
c117 25 136 60 136 156v107c0 91 0 152 59 197c36 29 84 31 108 33z" />
    <glyph glyph-name="bar" unicode="|" horiz-adv-x="222" 
d="M101 -250v1000h20v-1000h-20z" />
    <glyph glyph-name="braceright" unicode="}" horiz-adv-x="370" 
d="M34 -280v18c146 7 147 106 147 183v78c0 113 4 149 34 179c31 31 77 36 94 38c-17 2 -63 7 -94 38c-30 30 -34 66 -34 179v78c0 77 -1 176 -147 183v18c24 -2 72 -4 108 -33c59 -45 59 -106 59 -197v-107c0 -96 19 -131 136 -156v-6c-117 -25 -136 -60 -136 -156v-107
c0 -91 0 -152 -59 -197c-36 -29 -84 -31 -108 -33z" />
    <glyph glyph-name="asciitilde" unicode="~" horiz-adv-x="593" 
d="M559 320h18c-13 -42 -42 -135 -135 -135c-15 0 -31 1 -86 22l-122 47c-22 9 -57 22 -87 22c-77 0 -100 -76 -113 -114h-18c13 45 40 134 137 134c31 0 73 -16 87 -21l124 -47c44 -17 62 -23 82 -23c58 0 92 51 113 115z" />
    <glyph glyph-name="exclamdown" unicode="&#xa1;" horiz-adv-x="296" 
d="M158 232l48 -397c4 -33 7 -53 7 -62c0 -40 -26 -68 -65 -68s-65 28 -65 68c0 9 3 29 7 62l48 397h20zM219 372c0 -39 -32 -71 -71 -71s-71 32 -71 71s32 71 71 71s71 -32 71 -71z" />
    <glyph glyph-name="cent" unicode="&#xa2;" horiz-adv-x="520" 
d="M178 -92l27 93c-73 23 -157 92 -157 214c0 98 87 228 246 228c12 0 24 0 35 -3l24 84l14 -3l-23 -82c72 -13 120 -52 120 -107c0 -44 -24 -60 -65 -60c-31 0 -62 8 -62 44c0 11 15 59 15 70c0 13 -6 23 -15 30l-109 -386c18 -18 44 -30 80 -30c109 0 146 91 150 116
l14 -5c-12 -46 -52 -125 -177 -125c-16 0 -44 2 -77 11l-26 -92zM217 44l107 378c-8 5 -20 7 -33 7c-95 0 -108 -96 -108 -208c0 -64 3 -134 34 -177z" />
    <glyph glyph-name="sterling" unicode="&#xa3;" horiz-adv-x="592" 
d="M38 377v14h96c-32 53 -36 101 -36 124c0 129 128 213 248 213c124 0 177 -77 177 -126c0 -41 -24 -52 -61 -52c-14 0 -58 0 -58 45c0 14 9 46 9 72c0 23 -20 47 -60 47c-103 0 -120 -103 -120 -191c0 -22 1 -112 5 -132h154v-14h-155c3 -27 14 -150 14 -191
c0 -20 -3 -43 -7 -70c50 -8 92 -15 167 -15c100 0 106 9 130 47l13 -4c-24 -57 -66 -158 -167 -158c-66 0 -114 37 -161 72c-27 -35 -49 -58 -103 -58c-38 0 -78 17 -78 66c0 56 51 67 88 67c36 0 57 -7 96 -15c2 8 3 16 3 24c0 66 -25 113 -90 235h-104zM216 67
c-50 45 -70 52 -100 52c-31 0 -57 -20 -57 -54c0 -31 30 -51 64 -51c50 0 68 20 93 53z" />
    <glyph glyph-name="fraction" unicode="&#x2044;" horiz-adv-x="74" 
d="M-161 -5l376 733l20 -9l-376 -733z" />
    <glyph glyph-name="yen" unicode="&#xa5;" 
d="M226 14v267h-178v17h174l-47 105h-127v17h120l-124 278h-78v14h310v-14h-79l157 -377l135 377h-87v14h188v-14h-84l-97 -278h136v-17h-141l-37 -105h178v-17h-179v-267h93v-14h-325v14h92z" />
    <glyph glyph-name="florin" unicode="&#x192;" 
d="M64 340v14h126c24 186 103 374 256 374c54 0 120 -26 120 -93c0 -41 -40 -51 -58 -51c-37 0 -55 14 -55 39c0 32 20 42 20 65c0 25 -34 26 -38 26c-79 0 -90 -84 -99 -164c-3 -31 -13 -149 -15 -169l-3 -27h116v-14h-117c-15 -140 -42 -285 -65 -358
c-39 -123 -73 -262 -180 -262c-44 0 -106 26 -106 80c0 32 24 49 55 49c23 0 46 -11 46 -33c0 -14 -17 -46 -17 -59c0 -4 1 -23 34 -23c56 0 79 67 82 176c4 144 7 287 22 430h-124z" />
    <glyph glyph-name="section" unicode="&#xa7;" 
d="M272 481l134 -84c33 -20 86 -59 86 -138c0 -85 -56 -143 -98 -181c45 -37 82 -79 82 -156c0 -83 -77 -202 -221 -202c-149 0 -183 90 -183 133c0 36 20 56 63 56c23 0 54 -9 54 -40c0 -30 -23 -42 -23 -71c0 -40 43 -64 92 -64c93 0 129 82 129 140c0 63 -35 95 -91 129
l-136 82c-66 42 -96 84 -96 159c0 89 67 147 96 168c-29 28 -60 63 -60 130c0 86 73 186 216 186c88 0 157 -41 157 -113c0 -21 0 -58 -55 -58c-16 0 -57 0 -57 41c0 29 22 41 22 70c0 36 -42 46 -73 46c-104 0 -124 -85 -124 -114c0 -54 46 -94 86 -119zM116 317
c0 -54 50 -94 90 -119l120 -75l56 -37c17 14 50 40 50 92c0 46 -30 78 -71 104c-64 40 -133 80 -190 122c-28 -25 -55 -48 -55 -87z" />
    <glyph glyph-name="currency" unicode="&#xa4;" 
d="M64 156l63 64c-44 50 -52 105 -52 137c0 48 19 100 53 137l-64 64l13 13l64 -64c39 34 85 53 137 53c50 0 98 -20 136 -53l65 64l13 -13l-64 -64c50 -57 53 -116 53 -137c0 -22 -3 -82 -53 -137l64 -64l-13 -13l-65 64c-40 -38 -93 -53 -137 -53c-73 0 -117 37 -136 53
l-64 -64zM95 357c0 -101 82 -183 183 -183s183 82 183 183s-82 183 -183 183s-183 -82 -183 -183z" />
    <glyph glyph-name="quotesingle" unicode="'" horiz-adv-x="278" 
d="M130 424l-26 213c-2 14 -4 29 -4 42c0 39 21 49 39 49s39 -10 39 -49c0 -13 -2 -28 -4 -42l-26 -213h-18z" />
    <glyph glyph-name="quotedblleft" unicode="&#x201c;" horiz-adv-x="463" 
d="M186 728l7 -13c-65 -45 -107 -79 -107 -127c0 -21 8 -35 15 -41c12 8 28 10 42 10c28 0 69 -20 69 -71c0 -50 -41 -71 -76 -71c-51 0 -92 43 -92 119c0 104 85 158 142 194zM393 728l7 -13c-65 -45 -107 -79 -107 -127c0 -21 8 -35 15 -41c12 8 28 10 42 10
c28 0 69 -20 69 -71c0 -50 -41 -71 -76 -71c-51 0 -92 43 -92 119c0 104 85 158 142 194z" />
    <glyph glyph-name="guillemotleft" unicode="&#xab;" horiz-adv-x="444" 
d="M217 356l3 -12c-37 -10 -79 -21 -79 -129c0 -96 29 -116 79 -129l-3 -12c-56 12 -170 38 -170 141c0 105 120 130 170 141zM394 356l3 -12c-37 -10 -79 -21 -79 -129c0 -96 29 -116 79 -129l-3 -12c-56 12 -170 38 -170 141c0 105 120 130 170 141z" />
    <glyph glyph-name="guilsinglleft" unicode="&#x2039;" horiz-adv-x="259" 
d="M213 356l3 -12c-37 -10 -79 -21 -79 -129c0 -96 29 -116 79 -129l-3 -12c-56 12 -170 38 -170 141c0 105 120 130 170 141z" />
    <glyph glyph-name="guilsinglright" unicode="&#x203a;" horiz-adv-x="259" 
d="M46 74l-3 12c37 10 79 21 79 129c0 96 -29 116 -79 129l3 12c56 -12 170 -38 170 -141c0 -105 -120 -130 -170 -141z" />
    <glyph glyph-name="endash" unicode="&#x2013;" horiz-adv-x="500" 
d="M0 211v14h500v-14h-500z" />
    <glyph glyph-name="dagger" unicode="&#x2020;" 
d="M211 667c0 23 17 61 68 61c50 0 67 -38 67 -61c0 -20 -3 -26 -32 -83c-27 -55 -27 -73 -27 -120c25 0 60 0 83 14c14 9 56 44 86 44c38 0 66 -30 66 -65c0 -32 -25 -65 -63 -65c-33 0 -42 16 -69 32c-42 25 -64 27 -103 26c1 -84 6 -188 80 -234
c-27 -21 -80 -63 -80 -213v-283h-17v283c0 150 -53 192 -80 213c74 46 79 150 80 234c-40 1 -62 -1 -104 -26c-27 -16 -36 -32 -69 -32c-38 0 -63 33 -63 65c0 35 28 65 66 65c30 0 72 -35 86 -44c23 -14 58 -14 84 -14c0 47 0 65 -27 120c-29 57 -32 63 -32 83z" />
    <glyph glyph-name="daggerdbl" unicode="&#x2021;" 
d="M279 728c50 0 67 -38 67 -61c0 -20 -3 -26 -32 -83c-27 -55 -27 -73 -27 -120c25 0 60 0 83 14c14 9 56 44 86 44c38 0 66 -30 66 -65c0 -32 -25 -65 -63 -65c-33 0 -42 16 -69 32c-42 25 -64 27 -103 26c1 -84 6 -188 80 -226c-74 -38 -79 -142 -80 -226
c39 -1 61 1 103 26c27 16 36 32 69 32c38 0 63 -33 63 -65c0 -35 -28 -65 -66 -65c-30 0 -72 35 -86 44c-23 14 -58 14 -83 14c0 -47 0 -65 27 -120c29 -57 32 -63 32 -83c0 -23 -17 -61 -67 -61c-51 0 -68 38 -68 61c0 20 3 26 32 83c27 55 27 73 27 120
c-26 0 -61 0 -84 -14c-14 -9 -56 -44 -86 -44c-38 0 -66 30 -66 65c0 32 25 65 63 65c33 0 42 -16 69 -32c42 -25 64 -27 104 -26c-1 84 -6 188 -80 226c74 38 79 142 80 226c-40 1 -62 -1 -104 -26c-27 -16 -36 -32 -69 -32c-38 0 -63 33 -63 65c0 35 28 65 66 65
c30 0 72 -35 86 -44c23 -14 58 -14 84 -14c0 47 0 65 -27 120c-29 57 -32 63 -32 83c0 23 17 61 68 61z" />
    <glyph glyph-name="periodcentered" unicode="&#xb7;" horiz-adv-x="278" 
d="M68 282c0 39 32 71 71 71s71 -32 71 -71s-32 -71 -71 -71s-71 32 -71 71z" />
    <glyph glyph-name="paragraph" unicode="&#xb6;" horiz-adv-x="593" 
d="M314 712h244v-14h-67v-551c0 -122 -26 -214 -104 -272c-72 -52 -151 -60 -187 -60c-97 0 -105 62 -105 81c0 40 31 56 64 56c13 0 53 -2 53 -37c0 -7 -1 -18 -9 -41c-1 -3 -6 -17 -6 -20c0 -1 1 -8 9 -8c7 0 47 8 72 73c21 54 21 173 21 228v142c-42 1 -94 3 -149 24
c-69 27 -124 101 -124 190c0 80 44 148 104 175c66 29 118 34 184 34zM384 147v551h-70v-551c0 -194 -9 -294 -114 -318c24 1 68 2 114 45c32 30 70 78 70 273z" />
    <glyph glyph-name="bullet" unicode="&#x2022;" horiz-adv-x="500" 
d="M72 356c0 98 80 178 178 178s178 -80 178 -178s-80 -178 -178 -178s-178 80 -178 178z" />
    <glyph glyph-name="quotesinglbase" unicode="&#x201a;" horiz-adv-x="278" 
d="M81 -181l-7 13c65 45 107 79 107 127c0 21 -8 35 -15 41c-6 -4 -13 -6 -20 -8c-7 -1 -15 -2 -22 -2c-28 0 -69 20 -69 71c0 50 41 71 76 71c51 0 92 -43 92 -119c0 -104 -85 -158 -142 -194z" />
    <glyph glyph-name="quotedblbase" unicode="&#x201e;" horiz-adv-x="463" 
d="M277 -181l-7 13c65 45 107 79 107 127c0 21 -8 35 -15 41c-6 -4 -13 -6 -20 -8c-7 -1 -15 -2 -22 -2c-28 0 -69 20 -69 71c0 50 41 71 76 71c51 0 92 -43 92 -119c0 -104 -85 -158 -142 -194zM70 -181l-7 13c65 45 107 79 107 127c0 21 -8 35 -15 41c-6 -4 -13 -6 -20 -8
c-7 -1 -15 -2 -22 -2c-28 0 -69 20 -69 71c0 50 41 71 76 71c51 0 92 -43 92 -119c0 -104 -85 -158 -142 -194z" />
    <glyph glyph-name="quotedblright" unicode="&#x201d;" horiz-adv-x="463" 
d="M277 415l-7 13c65 45 107 79 107 127c0 21 -8 35 -15 41c-12 -8 -28 -10 -42 -10c-28 0 -69 20 -69 71c0 50 41 71 76 71c51 0 92 -43 92 -119c0 -104 -85 -158 -142 -194zM70 415l-7 13c65 45 107 79 107 127c0 21 -8 35 -15 41c-12 -8 -28 -10 -42 -10
c-28 0 -69 20 -69 71c0 50 41 71 76 71c51 0 92 -43 92 -119c0 -104 -85 -158 -142 -194z" />
    <glyph glyph-name="guillemotright" unicode="&#xbb;" horiz-adv-x="444" 
d="M227 74l-3 12c37 10 79 21 79 129c0 96 -29 116 -79 129l3 12c56 -12 170 -38 170 -141c0 -105 -120 -130 -170 -141zM50 74l-3 12c37 10 79 21 79 129c0 96 -29 116 -79 129l3 12c56 -12 170 -38 170 -141c0 -105 -120 -130 -170 -141z" />
    <glyph glyph-name="ellipsis" unicode="&#x2026;" horiz-adv-x="1000" 
d="M96 61c0 39 32 71 71 71s71 -32 71 -71s-32 -71 -71 -71s-71 32 -71 71zM429 61c0 39 32 71 71 71s71 -32 71 -71s-32 -71 -71 -71s-71 32 -71 71zM762 61c0 39 32 71 71 71s71 -32 71 -71s-32 -71 -71 -71s-71 32 -71 71z" />
    <glyph glyph-name="perthousand" unicode="&#x2030;" horiz-adv-x="1037" 
d="M832 0c70 0 70 63 70 132s0 132 -70 132s-70 -63 -70 -132s0 -132 70 -132zM137 -5l376 733l20 -9l-376 -733zM205 450c70 0 70 63 70 132s0 132 -70 132s-70 -63 -70 -132s0 -132 70 -132zM832 -14c-84 0 -156 59 -156 146s72 146 156 146s156 -59 156 -146
s-72 -146 -156 -146zM205 436c-84 0 -156 59 -156 146s72 146 156 146s156 -59 156 -146s-72 -146 -156 -146zM465 -14c-84 0 -156 59 -156 146s72 146 156 146s156 -59 156 -146s-72 -146 -156 -146zM465 0c70 0 70 63 70 132s0 132 -70 132s-70 -63 -70 -132
s0 -132 70 -132z" />
    <glyph glyph-name="questiondown" unicode="&#xbf;" horiz-adv-x="444" 
d="M321 241v-235h-17c-16 24 -35 47 -64 47c-52 0 -65 -63 -65 -180s13 -154 62 -154c36 0 52 20 52 38c0 24 -21 29 -21 58c0 34 17 45 55 45c26 0 54 -12 54 -47c0 -75 -77 -108 -144 -108c-118 0 -180 83 -180 182c0 134 118 183 169 183c47 0 69 -19 80 -34h2v205h17z
M384 372c0 -39 -32 -71 -71 -71s-71 32 -71 71s32 71 71 71s71 -32 71 -71z" />
    <glyph glyph-name="grave" unicode="`" horiz-adv-x="278" 
d="M94 705l88 -176h-13l-141 150c-8 9 -9 22 -9 27c0 20 22 30 33 30c26 0 35 -17 42 -31z" />
    <glyph glyph-name="acute" unicode="&#xb4;" horiz-adv-x="278" 
d="M96 529l88 176c7 14 16 31 42 31c11 0 33 -10 33 -30c0 -5 -1 -18 -9 -27l-141 -150h-13z" />
    <glyph glyph-name="circumflex" unicode="&#x2c6;" horiz-adv-x="278" 
d="M-6 529l109 197h73l108 -197h-12l-133 127l-133 -127h-12z" />
    <glyph glyph-name="tilde" unicode="&#x2dc;" horiz-adv-x="278" 
d="M9 596l-12 -27h-14c22 61 29 82 48 98c12 10 37 18 51 18c19 0 146 -40 159 -40c27 0 39 40 40 46h14c-8 -35 -35 -116 -96 -116c-40 0 -130 41 -162 41c-9 0 -22 -6 -28 -20z" />
    <glyph glyph-name="macron" unicode="&#xaf;" horiz-adv-x="278" 
d="M-22 612v30h322v-30h-322z" />
    <glyph glyph-name="breve" unicode="&#x2d8;" horiz-adv-x="278" 
d="M-3 712h12c19 -70 68 -90 130 -90s111 20 130 90h12c1 -104 -57 -156 -142 -156s-143 52 -142 156z" />
    <glyph glyph-name="dotaccent" unicode="&#x2d9;" horiz-adv-x="278" 
d="M75 644c0 35 29 64 64 64s64 -29 64 -64s-29 -64 -64 -64s-64 29 -64 64z" />
    <glyph glyph-name="dieresis" unicode="&#xa8;" horiz-adv-x="278" 
d="M-12 644c0 35 29 64 64 64s64 -29 64 -64s-29 -64 -64 -64s-64 29 -64 64zM162 644c0 35 29 64 64 64s64 -29 64 -64s-29 -64 -64 -64s-64 29 -64 64z" />
    <glyph glyph-name="ring" unicode="&#x2da;" horiz-adv-x="278" 
d="M244 629c0 -43 -34 -99 -105 -99s-105 56 -105 99s34 99 105 99s105 -56 105 -99zM139 717c-39 0 -47 -32 -47 -88s8 -88 47 -88s47 32 47 88s-8 88 -47 88z" />
    <glyph glyph-name="cedilla" unicode="&#xb8;" horiz-adv-x="278" 
d="M82 -79l73 79h20l-70 -72l2 -2c15 7 35 14 52 14c47 0 91 -36 91 -85c0 -63 -56 -95 -113 -95c-34 0 -53 10 -80 30l9 12c21 -14 32 -22 58 -22c39 0 47 39 47 71c0 28 -1 66 -38 66c-15 0 -27 -4 -37 -10z" />
    <glyph glyph-name="hungarumlaut" unicode="&#x2dd;" horiz-adv-x="278" 
d="M157 529l88 176c7 14 16 31 42 31c11 0 33 -10 33 -30c0 -5 -1 -18 -9 -27l-141 -150h-13zM35 529l88 176c7 14 16 31 42 31c11 0 33 -10 33 -30c0 -5 -1 -18 -9 -27l-141 -150h-13z" />
    <glyph glyph-name="ogonek" unicode="&#x2db;" horiz-adv-x="278" 
d="M143 -42l79 42h21c-68 -58 -95 -92 -95 -123c0 -7 0 -47 44 -47c26 0 36 8 44 14l7 -12c-38 -26 -53 -32 -92 -32c-58 0 -85 32 -85 67c0 23 9 55 77 91z" />
    <glyph glyph-name="caron" unicode="&#x2c7;" horiz-adv-x="278" 
d="M284 726l-109 -197h-73l-108 197h12l133 -127l133 127h12z" />
    <glyph glyph-name="emdash" unicode="&#x2014;" horiz-adv-x="1000" 
d="M130 211v14h740v-14h-740z" />
    <glyph glyph-name="AE" unicode="&#xc6;" horiz-adv-x="981" 
d="M-31 0v14h60l395 684h-93v14h566v-171h-13c-14 44 -57 157 -189 157h-107v-309h19c98 0 132 59 151 149h13v-311h-13c-18 78 -48 148 -140 148h-30v-361h95c123 0 198 89 225 205h13v-219h-570v14h92v361h-188l-209 -361h99v-14h-176zM441 698l-178 -309h180v309h-2z" />
    <glyph glyph-name="ordfeminine" unicode="&#xaa;" horiz-adv-x="311" 
d="M266 644v-149c0 -11 3 -31 18 -31c12 0 20 12 24 19l9 -9c-11 -13 -19 -24 -60 -24c-45 0 -62 24 -66 39c-6 -12 -20 -39 -68 -39s-101 13 -101 64c0 30 12 53 89 75l49 14c19 5 27 17 27 37v43c0 23 -14 34 -36 34c-12 0 -34 -2 -34 -27c0 -5 4 -26 4 -30
c0 -30 -21 -32 -44 -32c-21 0 -35 12 -35 32c0 37 37 68 112 68c112 0 112 -60 112 -84zM185 518v84c-7 -5 -15 -8 -32 -14c-22 -9 -45 -17 -45 -62c0 -32 1 -62 36 -62c28 0 41 24 41 54z" />
    <glyph glyph-name="Lslash" unicode="&#x141;" horiz-adv-x="722" 
d="M138 14v315l-92 -52v20l92 52v349h-92v14h329v-14h-92v-274l148 83v-20l-148 -83v-390h165c87 0 185 56 219 212h13v-226h-634v14h92z" />
    <glyph glyph-name="Oslash" unicode="&#xd8;" horiz-adv-x="833" 
d="M257 70l305 593c-32 33 -78 51 -145 51c-187 0 -212 -150 -212 -360c0 -141 16 -230 52 -284zM573 651l-306 -595c34 -42 83 -57 150 -57c197 0 211 156 211 364c0 117 -4 225 -55 288zM186 -68l52 101c-114 61 -196 181 -196 321c0 226 203 374 375 374
c54 0 109 -13 160 -37l49 97l14 -7l-49 -96c113 -58 200 -173 200 -328c0 -200 -175 -372 -374 -372c-58 0 -115 14 -166 40l-51 -100z" />
    <glyph glyph-name="OE" unicode="&#x152;" horiz-adv-x="1093" 
d="M1059 219v-219h-476c-26 0 -52 -1 -78 -3c-26 -1 -52 -3 -78 -3c-259 0 -378 217 -378 354c0 211 186 370 377 370c31 0 61 -1 91 -3c30 -1 61 -3 91 -3h410v-171h-13c-14 44 -57 157 -189 157h-159v-309h56c98 0 132 59 151 149h13v-311h-13c-18 78 -48 148 -140 148
h-67v-361h164c123 0 198 89 225 205h13zM512 17v678c-28 5 -71 9 -87 9c-202 0 -213 -172 -213 -354c0 -257 55 -342 215 -342c30 0 67 5 85 9z" />
    <glyph glyph-name="ordmasculine" unicode="&#xba;" horiz-adv-x="334" 
d="M321 589c0 -77 -73 -139 -154 -139s-154 62 -154 139s73 139 154 139s154 -62 154 -139zM167 461c65 0 65 62 65 128s0 128 -65 128s-65 -62 -65 -128s0 -128 65 -128z" />
    <glyph glyph-name="ae" unicode="&#xe6;" horiz-adv-x="741" 
d="M31 86c0 78 66 100 132 120c114 33 137 41 137 91v73c0 17 -4 59 -62 59c-31 0 -57 -12 -57 -49c0 -7 6 -46 6 -55c0 -41 -43 -41 -61 -41c-27 0 -58 6 -58 51c0 70 84 108 171 108c82 0 118 -19 150 -44c33 27 75 44 119 44c88 0 193 -56 193 -192h-279v-45
c0 -95 8 -206 111 -206c106 0 145 93 148 116l14 -5c-13 -49 -61 -125 -177 -125c-95 0 -170 31 -204 112h-2c-4 -54 -28 -112 -139 -112c-64 0 -142 23 -142 100zM300 116v132h-2c-2 -8 -15 -13 -23 -18c-56 -38 -116 -41 -116 -126c0 -31 3 -95 65 -95c34 0 76 29 76 107z
M422 265h144v67c0 28 0 97 -65 97c-74 0 -76 -96 -79 -164z" />
    <glyph glyph-name="dotlessi" unicode="&#x131;" horiz-adv-x="315" 
d="M36 415v14h189v-415h67v-14h-256v14h67v401h-67z" />
    <glyph glyph-name="lslash" unicode="&#x142;" horiz-adv-x="315" 
d="M103 359v348h-67v14h189v-291l67 39v-20l-67 -39v-396h67v-14h-256v14h67v325l-67 -39v20z" />
    <glyph glyph-name="oslash" unicode="&#xf8;" 
d="M364 378l-170 -329c14 -30 40 -49 84 -49c104 0 109 107 109 215c0 61 -2 122 -23 163zM187 68l168 325c-16 23 -40 36 -77 36c-104 0 -109 -107 -109 -214c0 -55 2 -109 18 -147zM117 -67l43 83c-76 38 -126 114 -126 199c0 123 106 228 244 228c33 0 64 -6 93 -18
l41 79l14 -6l-41 -79c82 -36 137 -115 137 -204c0 -124 -106 -229 -244 -229c-39 0 -75 8 -105 23l-42 -82z" />
    <glyph glyph-name="oe" unicode="&#x153;" horiz-adv-x="852" 
d="M280 0c104 0 109 107 109 215c0 107 -5 214 -109 214s-109 -107 -109 -214c0 -108 5 -215 109 -215zM816 251h-295v-45c0 -95 8 -206 127 -206c106 0 145 93 148 116l14 -5c-13 -49 -61 -125 -175 -125c-73 0 -137 24 -182 68c-45 -42 -105 -68 -173 -68
c-138 0 -244 105 -244 229c0 123 106 228 244 228c71 0 134 -28 176 -72c41 43 99 72 165 72c90 0 195 -56 195 -192zM521 265h160v67c0 28 0 97 -65 97c-90 0 -92 -96 -95 -164z" />
    <glyph glyph-name="germandbls" unicode="&#xdf;" horiz-adv-x="648" 
d="M34 0v14h67v493c0 64 11 110 57 157c46 45 109 64 172 64c133 0 153 -82 153 -120c0 -95 -73 -128 -73 -180c0 -98 195 -136 195 -275c0 -93 -88 -167 -196 -167c-57 0 -137 20 -137 91c0 35 30 54 62 54c22 0 51 -12 51 -38c0 -16 -11 -47 -11 -62c0 -24 21 -31 42 -31
c82 0 99 61 99 89c0 117 -200 169 -200 275c0 92 148 120 148 237c0 80 -59 107 -102 107c-116 0 -138 -83 -138 -166v-542h-189z" />
    <glyph glyph-name="logicalnot" unicode="&#xac;" horiz-adv-x="593" 
d="M516 145v172h-460v18h480v-190h-20z" />
    <glyph glyph-name="mu" unicode="&#xb5;" horiz-adv-x="611" 
d="M94 -280v695h-67v14h189v-317c0 -50 17 -91 68 -91c62 0 103 63 103 136v258h-66v14h188v-415h66v-14h-186v81h-2c-20 -50 -75 -87 -115 -87c-24 0 -40 7 -56 23v-297h-122z" />
    <glyph glyph-name="trademark" unicode="&#x2122;" horiz-adv-x="981" 
d="M185 333v368c-44 0 -95 -2 -116 -93h-11v104h338v-104h-11c-21 91 -72 93 -116 93v-368h51v-11h-186v11h51zM474 333v368h-48v11h143l95 -265l96 265h138v-11h-48v-368h48v-11h-180v11h48v357l-134 -368h-11l-134 368v-357h48v-11h-109v11h48z" />
    <glyph glyph-name="Eth" unicode="&#xd0;" horiz-adv-x="815" 
d="M124 14v358h-92v17h92v309h-92v14h92c34 0 68 1 102 2c34 0 68 1 102 1c180 0 439 -65 439 -359c0 -292 -262 -359 -416 -359c-38 0 -76 1 -113 2c-38 0 -76 1 -114 1h-92v14h92zM269 698v-309h148v-17h-148v-358c19 -2 35 -3 53 -3c259 0 282 203 282 335
c0 215 -41 355 -273 355c-26 0 -49 -1 -62 -3z" />
    <glyph glyph-name="onehalf" unicode="&#xbd;" horiz-adv-x="834" 
d="M191 -5l376 733l20 -9l-376 -733zM147 305v360c-44 -26 -56 -32 -80 -42l-7 13c51 26 99 51 140 92h28v-423h57v-14h-196v14h58zM530 66h92c60 0 92 0 99 60h14v-126h-288v14l10 9c144 129 181 167 181 295c0 105 -30 105 -52 105c-48 0 -48 -28 -48 -42
c0 -5 6 -28 6 -33c0 -19 -20 -31 -41 -31c-17 0 -39 9 -39 29c0 62 75 91 127 91c72 0 137 -42 137 -119c0 -16 0 -61 -67 -125z" />
    <glyph glyph-name="plusminus" unicode="&#xb1;" horiz-adv-x="593" 
d="M286 66v197h-230v18h230v199h20v-199h230v-18h-230v-197h-20zM56 0v18h480v-18h-480z" />
    <glyph glyph-name="Thorn" unicode="&#xde;" horiz-adv-x="648" 
d="M271 220v-206h92v-14h-329v14h92v684h-92v14h329v-14h-92v-102h59c120 0 296 -33 296 -187c0 -104 -100 -189 -314 -189h-41zM271 579v-345h31c114 0 161 46 161 169c0 116 -37 179 -153 179c-14 0 -28 -2 -39 -3z" />
    <glyph glyph-name="onequarter" unicode="&#xbc;" horiz-adv-x="834" 
d="M684 257v-149h54v-14h-54v-80h54v-14h-191v14h56v80h-178c52 125 105 226 114 242c43 76 71 101 105 101c8 0 39 0 39 -22c0 -9 -2 -10 -19 -26l-49 -45c-11 -10 -95 -91 -169 -236h157v149h81zM147 305v360c-44 -26 -56 -32 -80 -42l-7 13c51 26 99 51 140 92h28v-423
h57v-14h-196v14h58zM191 -5l376 733l20 -9l-376 -733z" />
    <glyph glyph-name="divide" unicode="&#xf7;" horiz-adv-x="593" 
d="M56 231v18h480v-18h-480zM225 82c0 39 32 71 71 71s71 -32 71 -71s-32 -71 -71 -71s-71 32 -71 71zM225 398c0 39 32 71 71 71s71 -32 71 -71s-32 -71 -71 -71s-71 32 -71 71z" />
    <glyph glyph-name="brokenbar" unicode="&#xa6;" horiz-adv-x="222" 
d="M101 -175v350h20v-350h-20zM101 325v350h20v-350h-20z" />
    <glyph glyph-name="degree" unicode="&#xb0;" horiz-adv-x="400" 
d="M65 593c0 75 60 135 135 135s135 -60 135 -135s-60 -135 -135 -135s-135 60 -135 135zM85 593c0 -64 51 -115 115 -115s115 51 115 115s-51 115 -115 115s-115 -51 -115 -115z" />
    <glyph glyph-name="thorn" unicode="&#xfe;" horiz-adv-x="593" 
d="M97 -266v973h-66v14h188v-362h2c20 54 57 84 116 84c154 0 218 -135 218 -228c0 -119 -88 -229 -218 -229c-61 0 -98 39 -116 86h-2v-338h68v-14h-256v14h66zM219 214c0 -84 6 -214 118 -214c74 0 83 84 83 214c0 161 -23 215 -91 215c-99 0 -110 -126 -110 -215z" />
    <glyph glyph-name="threequarters" unicode="&#xbe;" horiz-adv-x="834" 
d="M102 501l-8 13c11 7 22 14 34 17l68 18c41 11 48 63 48 96c0 47 -21 69 -58 69c-17 0 -40 -5 -40 -31c0 -6 6 -30 6 -35c0 -27 -29 -33 -41 -33c-2 0 -38 0 -38 34c0 70 98 79 131 79c52 0 126 -23 126 -91c0 -66 -69 -85 -123 -99v-2c63 -5 137 -42 137 -118
c0 -77 -76 -137 -169 -137c-70 0 -117 31 -134 99h15c14 -46 55 -85 106 -85c88 0 93 66 93 139c0 26 0 93 -74 93c-10 0 -49 -1 -79 -26zM712 257v-149h54v-14h-54v-80h54v-14h-191v14h56v80h-178c52 125 105 226 114 242c43 76 71 101 105 101c8 0 39 0 39 -22
c0 -9 -2 -10 -19 -26l-49 -45c-11 -10 -95 -91 -169 -236h157v149h81zM219 -5l376 733l20 -9l-376 -733z" />
    <glyph glyph-name="registered" unicode="&#xae;" horiz-adv-x="490" 
d="M60 542c0 102 83 186 185 186s186 -84 186 -186s-84 -185 -186 -185s-185 83 -185 185zM187 453v188h-26v4h42c15 0 31 1 46 1c29 0 67 -11 67 -47c0 -30 -29 -41 -54 -43v-1c36 -7 57 -10 60 -50c4 -46 4 -54 16 -54c8 0 12 6 16 9l3 -2c-8 -8 -13 -13 -33 -13
c-40 0 -41 29 -42 48c-2 30 -3 59 -37 59h-18v-99h25v-4h-91v4h26zM70 542c0 -96 78 -175 175 -175s176 79 176 175c0 97 -79 176 -176 176s-175 -79 -175 -176zM227 641v-85h11c33 0 36 19 36 40c0 32 -7 46 -35 46c-4 0 -8 -1 -12 -1z" />
    <glyph glyph-name="minus" unicode="&#x2212;" horiz-adv-x="593" 
d="M56 231v18h480v-18h-480z" />
    <glyph glyph-name="eth" unicode="&#xf0;" 
d="M133 538l114 75c-32 33 -70 58 -123 85l8 14c73 -30 108 -49 150 -76l116 76l8 -11l-112 -74c154 -106 228 -231 228 -382c0 -239 -195 -259 -244 -259c-138 0 -244 105 -244 229c0 123 106 228 244 228c38 0 57 -11 83 -27c-6 21 -36 111 -105 187l-115 -76zM169 215
c0 -108 5 -215 109 -215s109 107 109 215c0 107 -5 214 -109 214s-109 -107 -109 -214z" />
    <glyph glyph-name="multiply" unicode="&#xd7;" horiz-adv-x="593" 
d="M504 19l-208 208l-208 -208l-13 14l207 207l-207 207l13 14l208 -208l208 208l13 -14l-207 -207l207 -207z" />
    <glyph glyph-name="copyright" unicode="&#xa9;" horiz-adv-x="833" 
d="M45 357c0 204 166 371 371 371c204 0 371 -167 371 -371s-167 -371 -371 -371c-205 0 -371 167 -371 371zM65 357c0 -193 157 -351 351 -351c193 0 351 158 351 351s-158 351 -351 351c-194 0 -351 -158 -351 -351zM571 276v-126h-10c-4 10 -8 13 -19 13
c-18 0 -62 -22 -113 -22c-117 0 -224 97 -224 220c0 135 122 223 224 223c50 0 89 -22 111 -22c10 0 15 2 17 12h10v-121h-8c-16 54 -43 123 -129 123c-110 0 -127 -72 -127 -233c0 -146 37 -194 127 -194c71 0 117 63 131 127h10z" />
    <glyph glyph-name="Aacute" unicode="&#xc1;" horiz-adv-x="759" 
d="M-26 0v14h85l298 726h27l315 -726h86v-14h-336v14h93l-116 268h-240l-111 -268h89v-14h-190zM421 296l-118 273l-112 -273h230zM329 762l88 176c7 14 16 31 42 31c11 0 33 -10 33 -30c0 -5 -1 -18 -9 -27l-141 -150h-13z" />
    <glyph glyph-name="Acircumflex" unicode="&#xc2;" horiz-adv-x="759" 
d="M-26 0v14h85l298 726h27l315 -726h86v-14h-336v14h93l-116 268h-240l-111 -268h89v-14h-190zM421 296l-118 273l-112 -273h230zM227 762l109 197h73l108 -197h-12l-133 127l-133 -127h-12z" />
    <glyph glyph-name="Adieresis" unicode="&#xc4;" horiz-adv-x="759" 
d="M-26 0v14h85l298 726h27l315 -726h86v-14h-336v14h93l-116 268h-240l-111 -268h89v-14h-190zM421 296l-118 273l-112 -273h230zM221 857c0 35 29 64 64 64s64 -29 64 -64s-29 -64 -64 -64s-64 29 -64 64zM395 857c0 35 29 64 64 64s64 -29 64 -64s-29 -64 -64 -64
s-64 29 -64 64z" />
    <glyph glyph-name="Agrave" unicode="&#xc0;" horiz-adv-x="759" 
d="M-26 0v14h85l298 726h27l315 -726h86v-14h-336v14h93l-116 268h-240l-111 -268h89v-14h-190zM421 296l-118 273l-112 -273h230zM327 938l88 -176h-13l-141 150c-8 9 -9 22 -9 27c0 20 22 30 33 30c26 0 35 -17 42 -31z" />
    <glyph glyph-name="Aring" unicode="&#xc5;" horiz-adv-x="759" 
d="M-26 0v14h85l298 726h27l315 -726h86v-14h-336v14h93l-116 268h-240l-111 -268h89v-14h-190zM421 296l-118 273l-112 -273h230zM470 857c0 -43 -34 -99 -105 -99s-105 56 -105 99s34 99 105 99s105 -56 105 -99zM365 945c-39 0 -47 -32 -47 -88s8 -88 47 -88s47 32 47 88
s-8 88 -47 88z" />
    <glyph glyph-name="Atilde" unicode="&#xc3;" horiz-adv-x="759" 
d="M-26 0v14h85l298 726h27l315 -726h86v-14h-336v14h93l-116 268h-240l-111 -268h89v-14h-190zM421 296l-118 273l-112 -273h230zM242 829l-12 -27h-14c22 61 29 82 48 98c12 10 37 18 51 18c19 0 146 -40 159 -40c27 0 39 40 40 46h14c-8 -35 -35 -116 -96 -116
c-40 0 -130 41 -162 41c-9 0 -22 -6 -28 -20z" />
    <glyph glyph-name="Ccedilla" unicode="&#xc7;" horiz-adv-x="722" 
d="M663 212v-212h-16c-7 16 -14 21 -33 21c-31 0 -104 -36 -189 -36h-23l-57 -57l2 -2c15 7 35 14 52 14c47 0 91 -36 91 -85c0 -63 -56 -95 -113 -95c-34 0 -53 10 -80 30l9 12c21 -14 32 -22 58 -22c39 0 47 39 47 71c0 28 -1 66 -38 66c-15 0 -27 -4 -37 -10l-14 14
l62 67c-179 20 -333 175 -333 366c0 226 203 374 374 374c83 0 149 -37 185 -37c18 0 27 3 31 21h16v-204h-13c-29 89 -74 206 -218 206c-224 0 -212 -222 -212 -390c0 -243 62 -325 212 -325c119 0 197 106 221 213h16z" />
    <glyph glyph-name="Eacute" unicode="&#xc9;" horiz-adv-x="722" 
d="M37 698v14h598v-171h-13c-14 44 -57 157 -189 157h-159v-309h56c98 0 132 59 151 149h13v-311h-13c-18 78 -48 148 -140 148h-67v-361h164c123 0 198 89 225 205h13v-219h-639v14h92v684h-92zM326 762l88 176c7 14 16 31 42 31c11 0 33 -10 33 -30c0 -5 -1 -18 -9 -27
l-141 -150h-13z" />
    <glyph glyph-name="Ecircumflex" unicode="&#xca;" horiz-adv-x="722" 
d="M37 698v14h598v-171h-13c-14 44 -57 157 -189 157h-159v-309h56c98 0 132 59 151 149h13v-311h-13c-18 78 -48 148 -140 148h-67v-361h164c123 0 198 89 225 205h13v-219h-639v14h92v684h-92zM224 762l109 197h73l108 -197h-12l-133 127l-133 -127h-12z" />
    <glyph glyph-name="Edieresis" unicode="&#xcb;" horiz-adv-x="722" 
d="M37 698v14h598v-171h-13c-14 44 -57 157 -189 157h-159v-309h56c98 0 132 59 151 149h13v-311h-13c-18 78 -48 148 -140 148h-67v-361h164c123 0 198 89 225 205h13v-219h-639v14h92v684h-92zM218 857c0 35 29 64 64 64s64 -29 64 -64s-29 -64 -64 -64s-64 29 -64 64z
M392 857c0 35 29 64 64 64s64 -29 64 -64s-29 -64 -64 -64s-64 29 -64 64z" />
    <glyph glyph-name="Egrave" unicode="&#xc8;" horiz-adv-x="722" 
d="M37 698v14h598v-171h-13c-14 44 -57 157 -189 157h-159v-309h56c98 0 132 59 151 149h13v-311h-13c-18 78 -48 148 -140 148h-67v-361h164c123 0 198 89 225 205h13v-219h-639v14h92v684h-92zM324 938l88 -176h-13l-141 150c-8 9 -9 22 -9 27c0 20 22 30 33 30
c26 0 35 -17 42 -31z" />
    <glyph glyph-name="Iacute" unicode="&#xcd;" horiz-adv-x="407" 
d="M39 698v14h329v-14h-92v-684h92v-14h-329v14h92v684h-92zM161 762l88 176c7 14 16 31 42 31c11 0 33 -10 33 -30c0 -5 -1 -18 -9 -27l-141 -150h-13z" />
    <glyph glyph-name="Icircumflex" unicode="&#xce;" horiz-adv-x="407" 
d="M39 698v14h329v-14h-92v-684h92v-14h-329v14h92v684h-92zM59 762l109 197h73l108 -197h-12l-133 127l-133 -127h-12z" />
    <glyph glyph-name="Idieresis" unicode="&#xcf;" horiz-adv-x="407" 
d="M39 698v14h329v-14h-92v-684h92v-14h-329v14h92v684h-92zM53 857c0 35 29 64 64 64s64 -29 64 -64s-29 -64 -64 -64s-64 29 -64 64zM227 857c0 35 29 64 64 64s64 -29 64 -64s-29 -64 -64 -64s-64 29 -64 64z" />
    <glyph glyph-name="Igrave" unicode="&#xcc;" horiz-adv-x="407" 
d="M39 698v14h329v-14h-92v-684h92v-14h-329v14h92v684h-92zM159 938l88 -176h-13l-141 150c-8 9 -9 22 -9 27c0 20 22 30 33 30c26 0 35 -17 42 -31z" />
    <glyph glyph-name="Ntilde" unicode="&#xd1;" horiz-adv-x="741" 
d="M34 698v14h236l333 -476h2v462h-92v14h200v-14h-92v-698h-27l-450 641h-2v-627h92v-14h-200v14h92v684h-92zM241 829l-12 -27h-14c22 61 29 82 48 98c12 10 37 18 51 18c19 0 146 -40 159 -40c27 0 39 40 40 46h14c-8 -35 -35 -116 -96 -116c-40 0 -130 41 -162 41
c-9 0 -22 -6 -28 -20z" />
    <glyph glyph-name="Oacute" unicode="&#xd3;" horiz-adv-x="833" 
d="M42 354c0 226 203 374 375 374c185 0 374 -143 374 -371c0 -200 -175 -372 -374 -372c-197 0 -375 163 -375 369zM205 354c0 -278 62 -355 212 -355c197 0 211 156 211 364c0 187 -10 351 -211 351c-187 0 -212 -150 -212 -360zM374 762l88 176c7 14 16 31 42 31
c11 0 33 -10 33 -30c0 -5 -1 -18 -9 -27l-141 -150h-13z" />
    <glyph glyph-name="Ocircumflex" unicode="&#xd4;" horiz-adv-x="833" 
d="M42 354c0 226 203 374 375 374c185 0 374 -143 374 -371c0 -200 -175 -372 -374 -372c-197 0 -375 163 -375 369zM205 354c0 -278 62 -355 212 -355c197 0 211 156 211 364c0 187 -10 351 -211 351c-187 0 -212 -150 -212 -360zM272 762l109 197h73l108 -197h-12
l-133 127l-133 -127h-12z" />
    <glyph glyph-name="Odieresis" unicode="&#xd6;" horiz-adv-x="833" 
d="M42 354c0 226 203 374 375 374c185 0 374 -143 374 -371c0 -200 -175 -372 -374 -372c-197 0 -375 163 -375 369zM205 354c0 -278 62 -355 212 -355c197 0 211 156 211 364c0 187 -10 351 -211 351c-187 0 -212 -150 -212 -360zM266 857c0 35 29 64 64 64s64 -29 64 -64
s-29 -64 -64 -64s-64 29 -64 64zM440 857c0 35 29 64 64 64s64 -29 64 -64s-29 -64 -64 -64s-64 29 -64 64z" />
    <glyph glyph-name="Ograve" unicode="&#xd2;" horiz-adv-x="833" 
d="M42 354c0 226 203 374 375 374c185 0 374 -143 374 -371c0 -200 -175 -372 -374 -372c-197 0 -375 163 -375 369zM205 354c0 -278 62 -355 212 -355c197 0 211 156 211 364c0 187 -10 351 -211 351c-187 0 -212 -150 -212 -360zM372 938l88 -176h-13l-141 150
c-8 9 -9 22 -9 27c0 20 22 30 33 30c26 0 35 -17 42 -31z" />
    <glyph glyph-name="Otilde" unicode="&#xd5;" horiz-adv-x="833" 
d="M42 354c0 226 203 374 375 374c185 0 374 -143 374 -371c0 -200 -175 -372 -374 -372c-197 0 -375 163 -375 369zM205 354c0 -278 62 -355 212 -355c197 0 211 156 211 364c0 187 -10 351 -211 351c-187 0 -212 -150 -212 -360zM287 829l-12 -27h-14c22 61 29 82 48 98
c12 10 37 18 51 18c19 0 146 -40 159 -40c27 0 39 40 40 46h14c-8 -35 -35 -116 -96 -116c-40 0 -130 41 -162 41c-9 0 -22 -6 -28 -20z" />
    <glyph glyph-name="Scaron" unicode="&#x160;" horiz-adv-x="648" 
d="M63 0v222h15c6 -32 26 -109 81 -163c61 -60 115 -60 155 -60c140 0 176 103 176 155c0 199 -412 81 -412 368c0 106 100 206 241 206c88 0 130 -37 162 -37c18 0 22 5 28 21h16v-190h-13c-31 92 -64 192 -194 192c-106 0 -165 -66 -165 -125c0 -185 429 -96 429 -361
c0 -131 -113 -243 -276 -243c-82 0 -169 38 -196 38c-18 0 -24 -5 -31 -23h-16zM469 959l-109 -197h-73l-108 197h12l133 -127l133 127h12z" />
    <glyph glyph-name="Uacute" unicode="&#xda;" horiz-adv-x="778" 
d="M32 698v14h330v-14h-92v-449c0 -124 13 -250 162 -250c215 0 215 171 215 229v470h-91v14h200v-14h-93v-469c0 -65 0 -244 -240 -244c-261 0 -298 127 -298 246v467h-93zM376 762l88 176c7 14 16 31 42 31c11 0 33 -10 33 -30c0 -5 -1 -18 -9 -27l-141 -150h-13z" />
    <glyph glyph-name="Ucircumflex" unicode="&#xdb;" horiz-adv-x="778" 
d="M32 698v14h330v-14h-92v-449c0 -124 13 -250 162 -250c215 0 215 171 215 229v470h-91v14h200v-14h-93v-469c0 -65 0 -244 -240 -244c-261 0 -298 127 -298 246v467h-93zM274 762l109 197h73l108 -197h-12l-133 127l-133 -127h-12z" />
    <glyph glyph-name="Udieresis" unicode="&#xdc;" horiz-adv-x="778" 
d="M32 698v14h330v-14h-92v-449c0 -124 13 -250 162 -250c215 0 215 171 215 229v470h-91v14h200v-14h-93v-469c0 -65 0 -244 -240 -244c-261 0 -298 127 -298 246v467h-93zM268 857c0 35 29 64 64 64s64 -29 64 -64s-29 -64 -64 -64s-64 29 -64 64zM442 857
c0 35 29 64 64 64s64 -29 64 -64s-29 -64 -64 -64s-64 29 -64 64z" />
    <glyph glyph-name="Ugrave" unicode="&#xd9;" horiz-adv-x="778" 
d="M32 698v14h330v-14h-92v-449c0 -124 13 -250 162 -250c215 0 215 171 215 229v470h-91v14h200v-14h-93v-469c0 -65 0 -244 -240 -244c-261 0 -298 127 -298 246v467h-93zM374 938l88 -176h-13l-141 150c-8 9 -9 22 -9 27c0 20 22 30 33 30c26 0 35 -17 42 -31z" />
    <glyph glyph-name="Yacute" unicode="&#xdd;" horiz-adv-x="704" 
d="M-16 698v14h323v-14h-79l204 -349l184 349h-87v14h191v-14h-87l-193 -367v-317h93v-14h-330v14h92v279l-232 405h-79zM339 762l88 176c7 14 16 31 42 31c11 0 33 -10 33 -30c0 -5 -1 -18 -9 -27l-141 -150h-13z" />
    <glyph glyph-name="Ydieresis" unicode="&#x178;" horiz-adv-x="704" 
d="M-16 698v14h323v-14h-79l204 -349l184 349h-87v14h191v-14h-87l-193 -367v-317h93v-14h-330v14h92v279l-232 405h-79zM231 857c0 35 29 64 64 64s64 -29 64 -64s-29 -64 -64 -64s-64 29 -64 64zM405 857c0 35 29 64 64 64s64 -29 64 -64s-29 -64 -64 -64s-64 29 -64 64z
" />
    <glyph glyph-name="Zcaron" unicode="&#x17d;" horiz-adv-x="685" 
d="M34 0l402 698h-139c-109 0 -153 -60 -194 -153h-13v167h518l-404 -698h181c105 0 203 56 237 212h13v-226h-601zM488 959l-109 -197h-73l-108 197h12l133 -127l133 127h12z" />
    <glyph glyph-name="aacute" unicode="&#xe1;" horiz-adv-x="519" 
d="M498 25l9 -9c-19 -29 -59 -30 -90 -30c-67 0 -98 27 -106 69h-2c-21 -54 -54 -69 -125 -69c-64 0 -142 23 -142 100c0 78 66 100 132 120c108 33 131 41 131 91v61c0 35 -13 71 -62 71c-31 0 -57 -12 -57 -49c0 -7 6 -46 6 -55c0 -41 -43 -41 -61 -41c-27 0 -58 6 -58 51
c0 70 84 108 171 108c101 0 183 -28 183 -141v-248c0 -25 4 -48 33 -48c17 0 27 7 38 19zM305 116v132h-2c-2 -8 -9 -15 -27 -24c-50 -24 -106 -40 -106 -120c0 -31 3 -95 65 -95c34 0 70 29 70 107zM217 529l88 176c7 14 16 31 42 31c11 0 33 -10 33 -30
c0 -5 -1 -18 -9 -27l-141 -150h-13z" />
    <glyph glyph-name="acircumflex" unicode="&#xe2;" horiz-adv-x="519" 
d="M498 25l9 -9c-19 -29 -59 -30 -90 -30c-67 0 -98 27 -106 69h-2c-21 -54 -54 -69 -125 -69c-64 0 -142 23 -142 100c0 78 66 100 132 120c108 33 131 41 131 91v61c0 35 -13 71 -62 71c-31 0 -57 -12 -57 -49c0 -7 6 -46 6 -55c0 -41 -43 -41 -61 -41c-27 0 -58 6 -58 51
c0 70 84 108 171 108c101 0 183 -28 183 -141v-248c0 -25 4 -48 33 -48c17 0 27 7 38 19zM305 116v132h-2c-2 -8 -9 -15 -27 -24c-50 -24 -106 -40 -106 -120c0 -31 3 -95 65 -95c34 0 70 29 70 107zM115 529l109 197h73l108 -197h-12l-133 127l-133 -127h-12z" />
    <glyph glyph-name="adieresis" unicode="&#xe4;" horiz-adv-x="519" 
d="M498 25l9 -9c-19 -29 -59 -30 -90 -30c-67 0 -98 27 -106 69h-2c-21 -54 -54 -69 -125 -69c-64 0 -142 23 -142 100c0 78 66 100 132 120c108 33 131 41 131 91v61c0 35 -13 71 -62 71c-31 0 -57 -12 -57 -49c0 -7 6 -46 6 -55c0 -41 -43 -41 -61 -41c-27 0 -58 6 -58 51
c0 70 84 108 171 108c101 0 183 -28 183 -141v-248c0 -25 4 -48 33 -48c17 0 27 7 38 19zM305 116v132h-2c-2 -8 -9 -15 -27 -24c-50 -24 -106 -40 -106 -120c0 -31 3 -95 65 -95c34 0 70 29 70 107zM109 644c0 35 29 64 64 64s64 -29 64 -64s-29 -64 -64 -64s-64 29 -64 64
zM283 644c0 35 29 64 64 64s64 -29 64 -64s-29 -64 -64 -64s-64 29 -64 64z" />
    <glyph glyph-name="agrave" unicode="&#xe0;" horiz-adv-x="519" 
d="M498 25l9 -9c-19 -29 -59 -30 -90 -30c-67 0 -98 27 -106 69h-2c-21 -54 -54 -69 -125 -69c-64 0 -142 23 -142 100c0 78 66 100 132 120c108 33 131 41 131 91v61c0 35 -13 71 -62 71c-31 0 -57 -12 -57 -49c0 -7 6 -46 6 -55c0 -41 -43 -41 -61 -41c-27 0 -58 6 -58 51
c0 70 84 108 171 108c101 0 183 -28 183 -141v-248c0 -25 4 -48 33 -48c17 0 27 7 38 19zM305 116v132h-2c-2 -8 -9 -15 -27 -24c-50 -24 -106 -40 -106 -120c0 -31 3 -95 65 -95c34 0 70 29 70 107zM215 705l88 -176h-13l-141 150c-8 9 -9 22 -9 27c0 20 22 30 33 30
c26 0 35 -17 42 -31z" />
    <glyph glyph-name="aring" unicode="&#xe5;" horiz-adv-x="519" 
d="M498 25l9 -9c-19 -29 -59 -30 -90 -30c-67 0 -98 27 -106 69h-2c-21 -54 -54 -69 -125 -69c-64 0 -142 23 -142 100c0 78 66 100 132 120c108 33 131 41 131 91v61c0 35 -13 71 -62 71c-31 0 -57 -12 -57 -49c0 -7 6 -46 6 -55c0 -41 -43 -41 -61 -41c-27 0 -58 6 -58 51
c0 70 84 108 171 108c101 0 183 -28 183 -141v-248c0 -25 4 -48 33 -48c17 0 27 7 38 19zM305 116v132h-2c-2 -8 -9 -15 -27 -24c-50 -24 -106 -40 -106 -120c0 -31 3 -95 65 -95c34 0 70 29 70 107zM365 629c0 -43 -34 -99 -105 -99s-105 56 -105 99s34 99 105 99
s105 -56 105 -99zM260 717c-39 0 -47 -32 -47 -88s8 -88 47 -88s47 32 47 88s-8 88 -47 88z" />
    <glyph glyph-name="atilde" unicode="&#xe3;" horiz-adv-x="519" 
d="M498 25l9 -9c-19 -29 -59 -30 -90 -30c-67 0 -98 27 -106 69h-2c-21 -54 -54 -69 -125 -69c-64 0 -142 23 -142 100c0 78 66 100 132 120c108 33 131 41 131 91v61c0 35 -13 71 -62 71c-31 0 -57 -12 -57 -49c0 -7 6 -46 6 -55c0 -41 -43 -41 -61 -41c-27 0 -58 6 -58 51
c0 70 84 108 171 108c101 0 183 -28 183 -141v-248c0 -25 4 -48 33 -48c17 0 27 7 38 19zM305 116v132h-2c-2 -8 -9 -15 -27 -24c-50 -24 -106 -40 -106 -120c0 -31 3 -95 65 -95c34 0 70 29 70 107zM130 596l-12 -27h-14c22 61 29 82 48 98c12 10 37 18 51 18
c19 0 146 -40 159 -40c27 0 39 40 40 46h14c-8 -35 -35 -116 -96 -116c-40 0 -130 41 -162 41c-9 0 -22 -6 -28 -20z" />
    <glyph glyph-name="ccedilla" unicode="&#xe7;" horiz-adv-x="481" 
d="M204 -93l-14 14l63 68c-72 6 -218 49 -218 226c0 95 82 228 246 228c99 0 170 -44 170 -111c0 -44 -24 -60 -65 -60c-31 0 -62 8 -62 44c0 11 15 59 15 70c0 27 -26 43 -61 43c-95 0 -108 -96 -108 -208c0 -103 9 -221 125 -221c109 0 146 91 150 116l14 -5
c-12 -46 -52 -125 -177 -125h-11l-58 -58l2 -2c15 7 35 14 52 14c47 0 91 -36 91 -85c0 -63 -56 -95 -113 -95c-34 0 -53 10 -80 30l9 12c21 -14 32 -22 58 -22c39 0 47 39 47 71c0 28 -1 66 -38 66c-15 0 -27 -4 -37 -10z" />
    <glyph glyph-name="eacute" unicode="&#xe9;" horiz-adv-x="500" 
d="M465 251h-295v-45c0 -95 8 -206 127 -206c106 0 145 93 148 116l14 -5c-13 -49 -61 -125 -177 -125c-139 0 -247 87 -247 230c0 115 103 227 233 227c92 0 197 -56 197 -192zM170 265h160v67c0 28 0 97 -65 97c-90 0 -92 -96 -95 -164zM207 529l88 176c7 14 16 31 42 31
c11 0 33 -10 33 -30c0 -5 -1 -18 -9 -27l-141 -150h-13z" />
    <glyph glyph-name="ecircumflex" unicode="&#xea;" horiz-adv-x="500" 
d="M465 251h-295v-45c0 -95 8 -206 127 -206c106 0 145 93 148 116l14 -5c-13 -49 -61 -125 -177 -125c-139 0 -247 87 -247 230c0 115 103 227 233 227c92 0 197 -56 197 -192zM170 265h160v67c0 28 0 97 -65 97c-90 0 -92 -96 -95 -164zM105 529l109 197h73l108 -197h-12
l-133 127l-133 -127h-12z" />
    <glyph glyph-name="edieresis" unicode="&#xeb;" horiz-adv-x="500" 
d="M465 251h-295v-45c0 -95 8 -206 127 -206c106 0 145 93 148 116l14 -5c-13 -49 -61 -125 -177 -125c-139 0 -247 87 -247 230c0 115 103 227 233 227c92 0 197 -56 197 -192zM170 265h160v67c0 28 0 97 -65 97c-90 0 -92 -96 -95 -164zM99 644c0 35 29 64 64 64
s64 -29 64 -64s-29 -64 -64 -64s-64 29 -64 64zM273 644c0 35 29 64 64 64s64 -29 64 -64s-29 -64 -64 -64s-64 29 -64 64z" />
    <glyph glyph-name="egrave" unicode="&#xe8;" horiz-adv-x="500" 
d="M465 251h-295v-45c0 -95 8 -206 127 -206c106 0 145 93 148 116l14 -5c-13 -49 -61 -125 -177 -125c-139 0 -247 87 -247 230c0 115 103 227 233 227c92 0 197 -56 197 -192zM170 265h160v67c0 28 0 97 -65 97c-90 0 -92 -96 -95 -164zM205 705l88 -176h-13l-141 150
c-8 9 -9 22 -9 27c0 20 22 30 33 30c26 0 35 -17 42 -31z" />
    <glyph glyph-name="iacute" unicode="&#xed;" horiz-adv-x="315" 
d="M36 415v14h189v-415h67v-14h-256v14h67v401h-67zM115 529l88 176c7 14 16 31 42 31c11 0 33 -10 33 -30c0 -5 -1 -18 -9 -27l-141 -150h-13z" />
    <glyph glyph-name="icircumflex" unicode="&#xee;" horiz-adv-x="315" 
d="M36 415v14h189v-415h67v-14h-256v14h67v401h-67zM13 529l109 197h73l108 -197h-12l-133 127l-133 -127h-12z" />
    <glyph glyph-name="idieresis" unicode="&#xef;" horiz-adv-x="315" 
d="M36 415v14h189v-415h67v-14h-256v14h67v401h-67zM7 644c0 35 29 64 64 64s64 -29 64 -64s-29 -64 -64 -64s-64 29 -64 64zM181 644c0 35 29 64 64 64s64 -29 64 -64s-29 -64 -64 -64s-64 29 -64 64z" />
    <glyph glyph-name="igrave" unicode="&#xec;" horiz-adv-x="315" 
d="M36 415v14h189v-415h67v-14h-256v14h67v401h-67zM113 705l88 -176h-13l-141 150c-8 9 -9 22 -9 27c0 20 22 30 33 30c26 0 35 -17 42 -31z" />
    <glyph glyph-name="ntilde" unicode="&#xf1;" horiz-adv-x="630" 
d="M42 0v14h66v401h-66v14h186v-100h2c11 25 48 109 167 109c86 0 139 -56 139 -142v-282h67v-14h-251v14h62v316c0 55 -25 81 -63 81c-64 0 -121 -61 -121 -183v-214h63v-14h-251zM185 596l-12 -27h-14c22 61 29 82 48 98c12 10 37 18 51 18c19 0 146 -40 159 -40
c27 0 39 40 40 46h14c-8 -35 -35 -116 -96 -116c-40 0 -130 41 -162 41c-9 0 -22 -6 -28 -20z" />
    <glyph glyph-name="oacute" unicode="&#xf3;" 
d="M278 443c138 0 244 -105 244 -228c0 -124 -106 -229 -244 -229s-244 105 -244 229c0 123 106 228 244 228zM278 0c104 0 109 107 109 215c0 107 -5 214 -109 214s-109 -107 -109 -214c0 -108 5 -215 109 -215zM235 529l88 176c7 14 16 31 42 31c11 0 33 -10 33 -30
c0 -5 -1 -18 -9 -27l-141 -150h-13z" />
    <glyph glyph-name="ocircumflex" unicode="&#xf4;" 
d="M278 443c138 0 244 -105 244 -228c0 -124 -106 -229 -244 -229s-244 105 -244 229c0 123 106 228 244 228zM278 0c104 0 109 107 109 215c0 107 -5 214 -109 214s-109 -107 -109 -214c0 -108 5 -215 109 -215zM133 529l109 197h73l108 -197h-12l-133 127l-133 -127h-12z
" />
    <glyph glyph-name="odieresis" unicode="&#xf6;" 
d="M278 443c138 0 244 -105 244 -228c0 -124 -106 -229 -244 -229s-244 105 -244 229c0 123 106 228 244 228zM278 0c104 0 109 107 109 215c0 107 -5 214 -109 214s-109 -107 -109 -214c0 -108 5 -215 109 -215zM127 644c0 35 29 64 64 64s64 -29 64 -64s-29 -64 -64 -64
s-64 29 -64 64zM301 644c0 35 29 64 64 64s64 -29 64 -64s-29 -64 -64 -64s-64 29 -64 64z" />
    <glyph glyph-name="ograve" unicode="&#xf2;" 
d="M278 443c138 0 244 -105 244 -228c0 -124 -106 -229 -244 -229s-244 105 -244 229c0 123 106 228 244 228zM278 0c104 0 109 107 109 215c0 107 -5 214 -109 214s-109 -107 -109 -214c0 -108 5 -215 109 -215zM233 705l88 -176h-13l-141 150c-8 9 -9 22 -9 27
c0 20 22 30 33 30c26 0 35 -17 42 -31z" />
    <glyph glyph-name="otilde" unicode="&#xf5;" 
d="M278 443c138 0 244 -105 244 -228c0 -124 -106 -229 -244 -229s-244 105 -244 229c0 123 106 228 244 228zM278 0c104 0 109 107 109 215c0 107 -5 214 -109 214s-109 -107 -109 -214c0 -108 5 -215 109 -215zM148 596l-12 -27h-14c22 61 29 82 48 98c12 10 37 18 51 18
c19 0 146 -40 159 -40c27 0 39 40 40 46h14c-8 -35 -35 -116 -96 -116c-40 0 -130 41 -162 41c-9 0 -22 -6 -28 -20z" />
    <glyph glyph-name="scaron" unicode="&#x161;" horiz-adv-x="426" 
d="M44 0v145h14c31 -75 61 -145 154 -145c23 0 89 0 89 77c0 25 -8 51 -79 77l-81 30c-37 14 -91 45 -91 116c0 78 67 143 164 143c50 0 90 -25 106 -25c14 0 17 7 19 13h14v-122h-13c-27 65 -50 120 -133 120c-44 0 -88 -23 -88 -69c0 -19 5 -49 73 -72l85 -29
c72 -25 110 -66 110 -129c0 -88 -83 -144 -171 -144c-49 0 -116 28 -140 28c-11 0 -14 -4 -18 -14h-14zM358 726l-109 -197h-73l-108 197h12l133 -127l133 127h12z" />
    <glyph glyph-name="uacute" unicode="&#xfa;" horiz-adv-x="611" 
d="M27 415v14h189v-317c0 -50 17 -91 68 -91c62 0 103 63 103 136v258h-66v14h188v-415h66v-14h-186v81h-2c-22 -58 -89 -90 -149 -90c-93 0 -144 38 -144 135v289h-67zM263 529l88 176c7 14 16 31 42 31c11 0 33 -10 33 -30c0 -5 -1 -18 -9 -27l-141 -150h-13z" />
    <glyph glyph-name="ucircumflex" unicode="&#xfb;" horiz-adv-x="611" 
d="M27 415v14h189v-317c0 -50 17 -91 68 -91c62 0 103 63 103 136v258h-66v14h188v-415h66v-14h-186v81h-2c-22 -58 -89 -90 -149 -90c-93 0 -144 38 -144 135v289h-67zM161 529l109 197h73l108 -197h-12l-133 127l-133 -127h-12z" />
    <glyph glyph-name="udieresis" unicode="&#xfc;" horiz-adv-x="611" 
d="M27 415v14h189v-317c0 -50 17 -91 68 -91c62 0 103 63 103 136v258h-66v14h188v-415h66v-14h-186v81h-2c-22 -58 -89 -90 -149 -90c-93 0 -144 38 -144 135v289h-67zM151 644c0 35 29 64 64 64s64 -29 64 -64s-29 -64 -64 -64s-64 29 -64 64zM325 644c0 35 29 64 64 64
s64 -29 64 -64s-29 -64 -64 -64s-64 29 -64 64z" />
    <glyph glyph-name="ugrave" unicode="&#xf9;" horiz-adv-x="611" 
d="M27 415v14h189v-317c0 -50 17 -91 68 -91c62 0 103 63 103 136v258h-66v14h188v-415h66v-14h-186v81h-2c-22 -58 -89 -90 -149 -90c-93 0 -144 38 -144 135v289h-67zM261 705l88 -176h-13l-141 150c-8 9 -9 22 -9 27c0 20 22 30 33 30c26 0 35 -17 42 -31z" />
    <glyph glyph-name="yacute" unicode="&#xfd;" horiz-adv-x="481" 
d="M177 415l122 -289l127 289h-83v14h145v-14h-46c-148 -319 -206 -501 -260 -615c-27 -58 -58 -87 -112 -87c-59 0 -103 30 -103 81c0 38 29 55 64 55c25 0 53 -14 53 -42c0 -24 -13 -35 -13 -55c0 -15 9 -22 20 -22c49 0 81 79 100 127l43 107l-188 451h-54v14h255v-14
h-70zM222 529l88 176c7 14 16 31 42 31c11 0 33 -10 33 -30c0 -5 -1 -18 -9 -27l-141 -150h-13z" />
    <glyph glyph-name="ydieresis" unicode="&#xff;" horiz-adv-x="481" 
d="M177 415l122 -289l127 289h-83v14h145v-14h-46c-148 -319 -206 -501 -260 -615c-27 -58 -58 -87 -112 -87c-59 0 -103 30 -103 81c0 38 29 55 64 55c25 0 53 -14 53 -42c0 -24 -13 -35 -13 -55c0 -15 9 -22 20 -22c49 0 81 79 100 127l43 107l-188 451h-54v14h255v-14
h-70zM100 644c0 35 29 64 64 64s64 -29 64 -64s-29 -64 -64 -64s-64 29 -64 64zM274 644c0 35 29 64 64 64s64 -29 64 -64s-29 -64 -64 -64s-64 29 -64 64z" />
    <glyph glyph-name="zcaron" unicode="&#x17e;" horiz-adv-x="463" 
d="M34 0l243 415h-89c-72 0 -97 -35 -128 -105h-11l15 119h357l-242 -415h122c84 0 104 63 124 124h11l-11 -138h-391zM377 726l-109 -197h-73l-108 197h12l133 -127l133 127h12z" />
    <glyph glyph-name="dollar.oldstyle" unicode="&#xf724;" horiz-adv-x="630" 
d="M313 302v-303c134 4 169 104 169 155c0 91 -77 121 -169 148zM296 459v255c-97 -6 -151 -69 -151 -125c0 -73 66 -106 151 -130zM296 728v59h17v-59c87 -1 128 -37 160 -37c18 0 22 5 28 21h17v-190h-14c-31 91 -63 190 -191 192v-259c120 -37 261 -73 261 -227
c0 -126 -105 -235 -261 -243v-70h-17v70c-81 1 -167 38 -194 38c-18 0 -24 -5 -31 -23h-15v222h14c6 -32 26 -109 81 -163c56 -55 107 -60 145 -60v307c-109 33 -226 71 -226 216c0 102 92 198 226 206z" />
    <glyph glyph-name="zero.oldstyle" unicode="&#xf730;" 
d="M34 214c0 146 131 229 244 229s244 -83 244 -229c0 -125 -104 -228 -244 -228s-244 103 -244 228zM169 226c0 -173 17 -226 109 -226s109 53 109 226c0 148 -24 203 -109 203s-109 -55 -109 -203z" />
    <glyph glyph-name="one.oldstyle" unicode="&#xf731;" horiz-adv-x="370" 
d="M124 14v401h-74v14h270v-14h-74v-401h74v-14h-270v14h74z" />
    <glyph glyph-name="two.oldstyle" unicode="&#xf732;" horiz-adv-x="519" 
d="M47 0v13c110 48 275 124 275 300c0 87 -50 116 -94 116c-55 0 -68 -26 -68 -60c0 -16 4 -32 4 -43c0 -41 -24 -49 -58 -49c-42 0 -60 19 -60 50c0 38 35 116 194 116c150 0 217 -63 217 -136c0 -110 -124 -183 -256 -240l-117 -51v-2h244c63 0 109 49 115 104h14v-118
h-410z" />
    <glyph glyph-name="three.oldstyle" unicode="&#xf733;" 
d="M27 142l16 5c9 -51 54 -147 177 -147c130 0 150 103 150 218c0 74 0 180 -130 180c-44 0 -82 -16 -120 -40l-8 14c44 28 82 36 130 45c33 7 112 22 112 171c0 36 0 126 -96 126c-37 0 -70 -15 -70 -55c0 -10 8 -52 8 -61c0 -47 -38 -47 -63 -47s-55 11 -55 48
c0 79 78 129 196 129c174 0 210 -97 210 -147c0 -104 -99 -141 -217 -170v-2c124 -20 238 -71 238 -201c0 -96 -83 -222 -271 -222c-100 0 -180 40 -207 156z" />
    <glyph glyph-name="four.oldstyle" unicode="&#xf734;" horiz-adv-x="519" 
d="M295 14v316h122v-316h90v-14h-90v-198c-14 8 -32 13 -61 13s-47 -5 -61 -13v198h-283c43 114 96 255 159 382c97 196 130 219 195 219c41 0 50 -20 50 -33c0 -24 -58 -67 -125 -141c-76 -84 -160 -203 -212 -311l-49 -102h265z" />
    <glyph glyph-name="five.oldstyle" unicode="&#xf735;" horiz-adv-x="481" 
d="M46 308l65 413h30c20 -19 87 -73 161 -73c31 0 79 2 128 70l13 -6c-87 -124 -116 -162 -188 -162c-60 0 -118 28 -149 44l-34 -219l2 -2c23 35 60 70 138 70c125 0 230 -83 230 -209c0 -109 -85 -248 -257 -248c-94 0 -171 52 -171 111c0 55 48 56 61 56
c50 0 61 -21 61 -44c0 -7 -5 -40 -5 -47c0 -51 38 -62 60 -62c43 0 116 2 116 226c0 175 -54 200 -109 200c-87 0 -127 -74 -139 -118h-13z" />
    <glyph glyph-name="six.oldstyle" unicode="&#xf736;" 
d="M28 300c0 226 138 428 325 428c71 0 145 -33 145 -110c0 -41 -19 -59 -60 -59c-46 0 -59 18 -59 44c0 24 17 51 17 69c0 9 -4 42 -48 42c-149 0 -175 -220 -187 -339l2 -2c19 25 50 65 129 65c129 0 235 -99 235 -225c0 -124 -118 -227 -246 -227
c-142 0 -253 114 -253 314zM160 254c0 -244 70 -254 117 -254c62 0 115 17 115 231c0 126 -27 193 -101 193c-44 0 -79 -13 -104 -46c-15 -20 -27 -39 -27 -124z" />
    <glyph glyph-name="seven.oldstyle" unicode="&#xf737;" horiz-adv-x="481" 
d="M36 230v199h422c-6 -129 -45 -279 -103 -421c-89 -219 -132 -310 -207 -310c-32 0 -66 9 -66 40c0 19 8 30 20 42l87 81c79 73 202 244 239 446h-292c-47 0 -81 -16 -86 -77h-14z" />
    <glyph glyph-name="eight.oldstyle" unicode="&#xf738;" 
d="M39 171c0 103 72 144 159 187c-71 39 -130 76 -130 179c0 113 98 191 222 191c103 0 188 -65 188 -151c0 -65 -42 -115 -134 -157c107 -49 165 -109 165 -202c0 -104 -96 -232 -243 -232c-122 0 -227 79 -227 185zM298 306l-85 45c-61 -37 -65 -120 -65 -176
c0 -133 50 -175 118 -175c110 0 139 89 139 150c0 84 -38 119 -107 156zM163 593c0 -89 67 -120 168 -166c19 16 43 35 43 149c0 35 -3 138 -96 138c-69 0 -115 -54 -115 -121z" />
    <glyph glyph-name="nine.oldstyle" unicode="&#xf739;" 
d="M28 215c0 123 116 228 245 228c115 0 254 -86 254 -313c0 -232 -150 -429 -319 -429c-53 0 -150 24 -150 111c0 39 23 59 66 59c38 0 53 -19 53 -41c0 -24 -17 -41 -17 -72c0 -36 28 -43 53 -43c99 0 154 120 177 341h-2c-24 -42 -81 -65 -131 -65
c-140 0 -229 111 -229 224zM163 197c0 -144 34 -192 100 -192c89 0 132 61 132 152c0 157 -18 272 -120 272c-93 0 -112 -82 -112 -232z" />
    <glyph glyph-name="cent.oldstyle" unicode="&#xf7a2;" horiz-adv-x="520" 
d="M178 -92l27 93c-73 23 -157 92 -157 214c0 98 87 228 246 228c12 0 24 0 35 -3l24 84l14 -3l-23 -82c72 -13 120 -52 120 -107c0 -44 -24 -60 -65 -60c-31 0 -62 8 -62 44c0 11 15 59 15 70c0 13 -6 23 -15 30l-109 -386c18 -18 44 -30 80 -30c109 0 146 91 150 116
l14 -5c-12 -46 -52 -125 -177 -125c-16 0 -44 2 -77 11l-26 -92zM217 44l107 378c-8 5 -20 7 -33 7c-95 0 -108 -96 -108 -208c0 -64 3 -134 34 -177z" />
    <glyph glyph-name="one.superior" horiz-adv-x="333" 
d="M147 305v360c-44 -26 -56 -32 -80 -42l-7 13c51 26 99 51 140 92h28v-423h57v-14h-196v14h58z" />
    <glyph glyph-name="two.superior" horiz-adv-x="333" 
d="M103 357h92c60 0 92 0 99 60h14v-126h-288v14l10 9c144 129 181 167 181 295c0 105 -30 105 -52 105c-48 0 -48 -28 -48 -42c0 -5 6 -28 6 -33c0 -19 -20 -31 -41 -31c-17 0 -39 9 -39 29c0 62 75 91 127 91c72 0 137 -42 137 -119c0 -16 0 -61 -67 -125z" />
    <glyph glyph-name="three.superior" horiz-adv-x="333" 
d="M74 501l-8 13c11 7 22 14 34 17l68 18c41 11 48 63 48 96c0 47 -21 69 -58 69c-17 0 -40 -5 -40 -31c0 -6 6 -30 6 -35c0 -27 -29 -33 -41 -33c-2 0 -38 0 -38 34c0 70 98 79 131 79c52 0 126 -23 126 -91c0 -66 -69 -85 -123 -99v-2c63 -5 137 -42 137 -118
c0 -77 -76 -137 -169 -137c-70 0 -117 31 -134 99h15c14 -46 55 -85 106 -85c88 0 93 66 93 139c0 26 0 93 -74 93c-10 0 -49 -1 -79 -26z" />
    <glyph glyph-name="Delta" unicode="&#x2206;" horiz-adv-x="652" 
d="M617 0h-583v34l261 678l51 13l271 -691v-34zM471 59l-188 493l-183 -493h371z" />
    <glyph glyph-name="Omega" unicode="&#x2126;" horiz-adv-x="728" 
d="M694 165l-26 -165h-247l-9 21c41 99 114 242 113 377c0 216 -76 291 -163 291c-92 0 -161 -69 -161 -295c0 -131 62 -264 112 -373l-10 -21h-247l-23 165l31 1c21 -63 37 -74 79 -74h96c-68 57 -173 150 -173 311c0 197 130 322 299 322c171 0 295 -119 295 -316
c0 -146 -100 -243 -179 -317h106c41 0 54 9 75 74z" />
    <glyph glyph-name="uni03BC" unicode="&#x3bc;" horiz-adv-x="611" 
d="M94 -280v695h-67v14h189v-317c0 -50 17 -91 68 -91c62 0 103 63 103 136v258h-66v14h188v-415h66v-14h-186v81h-2c-20 -50 -75 -87 -115 -87c-24 0 -40 7 -56 23v-297h-122z" />
    <glyph glyph-name="pi" unicode="&#x3c0;" horiz-adv-x="582" 
d="M527 491l29 -8c-6 -42 -24 -92 -37 -111c-17 -5 -39 -6 -65 -6c-6 -66 -5 -143 -5 -213c0 -65 13 -92 41 -92c18 0 30 9 46 25l13 -26c-25 -43 -72 -73 -115 -73c-55 0 -100 29 -100 139c0 96 5 163 10 243c-51 0 -95 2 -135 2v-14c0 -239 -50 -330 -66 -351
c-23 -10 -50 -17 -69 -19l-8 21c74 102 95 262 95 365c-62 0 -86 -14 -127 -41l-17 29c31 38 70 101 181 100c77 -1 174 -3 270 -3c33 0 44 7 59 33z" />
    <glyph glyph-name="Euro" unicode="&#x20ac;" 
d="M491 712v-194h-13c-5 27 -14 53 -24 78c-8 18 -16 36 -27 53c-12 18 -26 35 -44 47c-19 12 -42 18 -66 18c-18 0 -36 -5 -50 -15c-17 -12 -28 -32 -36 -52c-13 -33 -20 -66 -25 -100c-5 -35 -8 -71 -7 -107h221l-5 -17h-216v-16c0 -40 -1 -37 -1 -89h187l-5 -17h-182
c-3 -71 11 -190 42 -248c17 -31 39 -54 80 -54c55 0 90 42 112 76c23 37 40 81 49 127h16v-202h-16c-6 16 -14 19 -20 20c-3 1 -6 1 -9 1c-11 0 -24 -5 -39 -11c-35 -15 -57 -25 -94 -25c-50 0 -105 22 -150 69c-36 38 -60 87 -77 136c-12 36 -20 72 -24 111h-67l8 17h57
c0 4 -1 9 -1 13c-1 16 -2 32 -2 48s1 29 3 44h-65l8 17h60c5 35 13 68 26 100c15 38 36 75 64 106c52 58 112 82 160 82c13 0 27 -2 40 -5c19 -5 31 -11 47 -19c5 -2 10 -5 15 -7c12 -5 16 -6 25 -6c5 0 11 0 16 2s12 8 13 19h16z" />
    <glyph glyph-name="afii61289" unicode="&#x2113;" horiz-adv-x="440" 
d="M399 136l24 -21c-42 -80 -102 -127 -183 -127c-55 0 -90 16 -112 41c-24 31 -36 60 -36 152v76l-57 -40l-14 30l71 54v141c0 154 12 208 54 261c30 41 68 61 106 61c68 0 102 -63 102 -142c0 -120 -57 -204 -148 -296v-88c0 -134 25 -177 84 -177c47 0 82 35 109 75z
M206 499v-117c48 57 83 145 83 238c0 66 -13 108 -41 108c-33 0 -42 -48 -42 -229z" />
    <glyph glyph-name="estimated" unicode="&#x212e;" horiz-adv-x="893" 
d="M858 346h-667c-3 0 -5 -1 -5 -4v-202c0 -9 3 -16 9 -23c64 -67 153 -110 252 -110c106 0 200 49 265 123h59c-73 -86 -193 -143 -325 -143c-227 0 -411 165 -411 369c0 205 184 370 411 370c228 0 412 -165 412 -370v-10zM706 372v203c0 9 -3 18 -9 24
c-65 64 -153 105 -250 105c-98 0 -187 -42 -251 -108c-7 -7 -10 -15 -10 -25v-199c0 -2 2 -6 5 -6h511c3 0 4 4 4 6z" />
    <glyph glyph-name="partialdiff" unicode="&#x2202;" horiz-adv-x="550" 
d="M270 445h2c42 0 92 -19 123 -62c4 33 9 74 11 114c3 51 -2 108 -24 158c-20 42 -61 78 -120 78c-56 0 -108 -33 -144 -63c-17 -1 -46 55 -36 82c35 21 81 41 145 41c100 0 172 -57 220 -149c41 -81 53 -180 53 -245c0 -82 -15 -181 -50 -254c-43 -93 -115 -157 -219 -157
c-113 0 -189 76 -189 204c0 73 29 136 62 176c38 45 100 77 166 77zM298 398h-1c-34 0 -66 -11 -95 -58c-30 -53 -45 -137 -45 -212c-1 -63 27 -105 76 -105c47 0 81 60 102 110c27 61 39 117 50 202c-11 25 -44 63 -87 63z" />
    <glyph glyph-name="product" unicode="&#x220f;" horiz-adv-x="715" 
d="M687 719v-32c-87 -7 -93 -17 -93 -91v-554c0 -81 7 -91 92 -98v-33h-289v33c73 6 78 12 78 98v600c0 33 -6 37 -39 37h-161c-31 0 -35 -4 -35 -33v-604c0 -79 -1 -91 70 -98v-33h-282v33c83 7 92 17 92 98v554c0 76 -7 84 -95 91v32h662z" />
    <glyph glyph-name="summation" unicode="&#x2211;" horiz-adv-x="567" 
d="M544 119l-47 -214h-469v30l221 336l-217 417v31h466c1 -19 7 -106 12 -176l-33 -7c-10 45 -21 79 -36 105c-15 30 -33 39 -108 39h-157l175 -325l-226 -348h240c90 0 103 6 146 120z" />
    <glyph glyph-name="uni2219" unicode="&#x2219;" horiz-adv-x="278" 
d="M68 282c0 39 32 71 71 71s71 -32 71 -71s-32 -71 -71 -71s-71 32 -71 71z" />
    <glyph glyph-name="radical" unicode="&#x221a;" horiz-adv-x="568" 
d="M555 904l-177 -1073l-27 -12l-215 563l-88 -41l-14 40l181 80l151 -417h2l139 870z" />
    <glyph glyph-name="infinity" unicode="&#x221e;" horiz-adv-x="770" 
d="M723 296v-1c0 -109 -79 -173 -160 -173c-57 0 -111 25 -177 113c-51 -64 -103 -113 -183 -113c-82 0 -157 68 -157 168c0 101 71 171 165 171c74 0 127 -44 179 -110c41 47 90 110 179 110c86 -1 154 -66 154 -165zM212 192h1c56 0 97 49 135 95c-41 55 -76 106 -139 106
c-57 0 -91 -45 -91 -104c0 -53 40 -97 94 -97zM562 393h-2c-59 0 -104 -63 -135 -100c59 -74 90 -101 140 -101c55 0 86 54 86 98c0 60 -36 103 -89 103z" />
    <glyph glyph-name="integral" unicode="&#x222b;" horiz-adv-x="404" 
d="M164 -4l-21 414c-19 376 90 452 175 452c32 0 73 -18 73 -56s-29 -57 -57 -57c-39 0 -34 61 -57 61c-19 0 -37 -28 -31 -159l20 -382c18 -360 -75 -482 -180 -482c-41 0 -72 27 -73 58c-1 36 34 61 66 61c33 0 32 -66 54 -66c27 0 36 61 31 156z" />
    <glyph glyph-name="approxequal" unicode="&#x2248;" horiz-adv-x="537" 
d="M452 458l47 -41c-30 -59 -78 -104 -134 -104c-39 0 -67 13 -109 39c-28 19 -52 33 -83 33c-43 0 -67 -35 -90 -71l-48 41c28 59 83 103 144 103c47 0 79 -22 103 -36c35 -22 55 -36 83 -36c37 0 61 29 87 72zM452 274l47 -42c-30 -59 -77 -103 -135 -103
c-39 0 -67 13 -108 38c-29 19 -53 34 -83 34c-44 0 -67 -36 -90 -72l-48 41c28 59 84 103 144 103c49 0 79 -22 103 -36c30 -18 52 -36 83 -36c37 0 59 29 87 73z" />
    <glyph glyph-name="notequal" unicode="&#x2260;" horiz-adv-x="537" 
d="M396 517l-38 -86h131v-74h-158l-58 -134h216v-74h-244l-48 -111l-58 23l39 88h-131v74h159l56 134h-215v74h243l48 109z" />
    <glyph glyph-name="lessequal" unicode="&#x2264;" horiz-adv-x="537" 
d="M487 105l-435 222v80l435 222v-86l-362 -174v-3l362 -175v-86zM491 -8h-443v75h443v-75z" />
    <glyph glyph-name="greaterequal" unicode="&#x2265;" horiz-adv-x="537" 
d="M54 629l435 -222v-80l-435 -222v86l362 175v2l-362 175v86zM489 -8h-440v75h440v-75z" />
    <glyph glyph-name="lozenge" unicode="&#x25ca;" horiz-adv-x="573" 
d="M525 345l-194 -417h-90l-193 417l195 421h89zM442 345l-153 342h-4l-154 -341l155 -343h3z" />
    <glyph glyph-name="uni00A0" unicode="&#xa0;" horiz-adv-x="278" 
 />
    <glyph glyph-name="uni00AD" unicode="&#xad;" horiz-adv-x="370" 
d="M91 166v98h188v-98h-188z" />
    <glyph glyph-name="uni02C9" unicode="&#x2c9;" horiz-adv-x="278" 
d="M-22 612v30h322v-30h-322z" />
    <glyph glyph-name="zero.taboldstyle" unicode="&#xf643;" 
d="M34 214c0 146 131 229 244 229s244 -83 244 -229c0 -125 -104 -228 -244 -228s-244 103 -244 228zM169 226c0 -173 17 -226 109 -226s109 53 109 226c0 148 -24 203 -109 203s-109 -55 -109 -203z" />
    <glyph glyph-name="one.taboldstyle" unicode="&#xf644;" 
d="M217 14v401h-74v14h270v-14h-74v-401h74v-14h-270v14h74z" />
    <glyph glyph-name="two.taboldstyle" unicode="&#xf645;" 
d="M65 0v13c110 48 275 124 275 300c0 87 -50 116 -94 116c-55 0 -68 -26 -68 -60c0 -16 4 -32 4 -43c0 -41 -24 -49 -58 -49c-42 0 -60 19 -60 50c0 38 35 116 194 116c150 0 217 -63 217 -136c0 -110 -124 -183 -256 -240l-117 -51v-2h244c63 0 109 49 115 104h14v-118
h-410z" />
    <glyph glyph-name="three.taboldstyle" unicode="&#xf646;" 
d="M27 142l16 5c9 -51 54 -147 177 -147c130 0 150 103 150 218c0 74 0 180 -130 180c-44 0 -82 -16 -120 -40l-8 14c44 28 82 36 130 45c33 7 112 22 112 171c0 36 0 126 -96 126c-37 0 -70 -15 -70 -55c0 -10 8 -52 8 -61c0 -47 -38 -47 -63 -47s-55 11 -55 48
c0 79 78 129 196 129c174 0 210 -97 210 -147c0 -104 -99 -141 -217 -170v-2c124 -20 238 -71 238 -201c0 -96 -83 -222 -271 -222c-100 0 -180 40 -207 156z" />
    <glyph glyph-name="four.taboldstyle" unicode="&#xf647;" 
d="M313 14v316h122v-316h90v-14h-90v-198c-14 8 -32 13 -61 13s-47 -5 -61 -13v198h-283c43 114 96 255 159 382c97 196 130 219 195 219c41 0 50 -20 50 -33c0 -24 -58 -67 -125 -141c-76 -84 -160 -203 -212 -311l-49 -102h265z" />
    <glyph glyph-name="five.taboldstyle" unicode="&#xf648;" 
d="M83 308l65 413h30c20 -19 87 -73 161 -73c31 0 79 2 128 70l13 -6c-87 -124 -116 -162 -188 -162c-60 0 -118 28 -149 44l-34 -219l2 -2c23 35 60 70 138 70c125 0 230 -83 230 -209c0 -109 -85 -248 -257 -248c-94 0 -171 52 -171 111c0 55 48 56 61 56
c50 0 61 -21 61 -44c0 -7 -5 -40 -5 -47c0 -51 38 -62 60 -62c43 0 116 2 116 226c0 175 -54 200 -109 200c-87 0 -127 -74 -139 -118h-13z" />
    <glyph glyph-name="six.taboldstyle" unicode="&#xf649;" 
d="M28 300c0 226 138 428 325 428c71 0 145 -33 145 -110c0 -41 -19 -59 -60 -59c-46 0 -59 18 -59 44c0 24 17 51 17 69c0 9 -4 42 -48 42c-149 0 -175 -220 -187 -339l2 -2c19 25 50 65 129 65c129 0 235 -99 235 -225c0 -124 -118 -227 -246 -227
c-142 0 -253 114 -253 314zM160 254c0 -244 70 -254 117 -254c62 0 115 17 115 231c0 126 -27 193 -101 193c-44 0 -79 -13 -104 -46c-15 -20 -27 -39 -27 -124z" />
    <glyph glyph-name="seven.taboldstyle" unicode="&#xf64a;" 
d="M73 230v199h422c-6 -129 -45 -279 -103 -421c-89 -219 -132 -310 -207 -310c-32 0 -66 9 -66 40c0 19 8 30 20 42l87 81c79 73 202 244 239 446h-292c-47 0 -81 -16 -86 -77h-14z" />
    <glyph glyph-name="eight.taboldstyle" unicode="&#xf64b;" 
d="M39 171c0 103 72 144 159 187c-71 39 -130 76 -130 179c0 113 98 191 222 191c103 0 188 -65 188 -151c0 -65 -42 -115 -134 -157c107 -49 165 -109 165 -202c0 -104 -96 -232 -243 -232c-122 0 -227 79 -227 185zM298 306l-85 45c-61 -37 -65 -120 -65 -176
c0 -133 50 -175 118 -175c110 0 139 89 139 150c0 84 -38 119 -107 156zM163 593c0 -89 67 -120 168 -166c19 16 43 35 43 149c0 35 -3 138 -96 138c-69 0 -115 -54 -115 -121z" />
    <glyph glyph-name="nine.taboldstyle" unicode="&#xf64c;" 
d="M28 215c0 123 116 228 245 228c115 0 254 -86 254 -313c0 -232 -150 -429 -319 -429c-53 0 -150 24 -150 111c0 39 23 59 66 59c38 0 53 -19 53 -41c0 -24 -17 -41 -17 -72c0 -36 28 -43 53 -43c99 0 154 120 177 341h-2c-24 -42 -81 -65 -131 -65
c-140 0 -229 111 -229 224zM163 197c0 -144 34 -192 100 -192c89 0 132 61 132 152c0 157 -18 272 -120 272c-93 0 -112 -82 -112 -232z" />
    <glyph glyph-name="cent.taboldstyle" unicode="&#xf654;" 
d="M196 -92l27 93c-73 23 -157 92 -157 214c0 98 87 228 246 228c12 0 24 0 35 -3l24 84l14 -3l-23 -82c72 -13 120 -52 120 -107c0 -44 -24 -60 -65 -60c-31 0 -62 8 -62 44c0 11 15 59 15 70c0 13 -6 23 -15 30l-109 -386c18 -18 44 -30 80 -30c109 0 146 91 150 116
l14 -5c-12 -46 -52 -125 -177 -125c-16 0 -44 2 -77 11l-26 -92zM235 44l107 378c-8 5 -20 7 -33 7c-95 0 -108 -96 -108 -208c0 -64 3 -134 34 -177z" />
    <glyph glyph-name="uni2215" unicode="&#x2215;" horiz-adv-x="74" 
d="M-161 -5l376 733l20 -9l-376 -733z" />
    <glyph glyph-name="uni03A9" unicode="&#x3a9;" horiz-adv-x="728" 
d="M694 165l-26 -165h-247l-9 21c41 99 114 242 113 377c0 216 -76 291 -163 291c-92 0 -161 -69 -161 -295c0 -131 62 -264 112 -373l-10 -21h-247l-23 165l31 1c21 -63 37 -74 79 -74h96c-68 57 -173 150 -173 311c0 197 130 322 299 322c171 0 295 -119 295 -316
c0 -146 -100 -243 -179 -317h106c41 0 54 9 75 74z" />
    <glyph glyph-name="a.superior" horiz-adv-x="311" 
d="M266 644v-149c0 -11 3 -31 18 -31c12 0 20 12 24 19l9 -9c-11 -13 -19 -24 -60 -24c-45 0 -62 24 -66 39c-6 -12 -20 -39 -68 -39s-101 13 -101 64c0 30 12 53 89 75l49 14c19 5 27 17 27 37v43c0 23 -14 34 -36 34c-12 0 -34 -2 -34 -27c0 -5 4 -26 4 -30
c0 -30 -21 -32 -44 -32c-21 0 -35 12 -35 32c0 37 37 68 112 68c112 0 112 -60 112 -84zM185 518v84c-7 -5 -15 -8 -32 -14c-22 -9 -45 -17 -45 -62c0 -32 1 -62 36 -62c28 0 41 24 41 54z" />
    <glyph glyph-name="o.superior" horiz-adv-x="334" 
d="M321 589c0 -77 -73 -139 -154 -139s-154 62 -154 139s73 139 154 139s154 -62 154 -139zM167 461c65 0 65 62 65 128s0 128 -65 128s-65 -62 -65 -128s0 -128 65 -128z" />
    <glyph glyph-name="fi" unicode="&#xfb01;" horiz-adv-x="630" 
d="M45 0v14h66v401h-66v14h66c0 91 4 145 40 203c49 75 130 96 197 96c65 0 174 -22 174 -106c0 -35 -26 -55 -60 -55c-29 0 -62 9 -62 44c0 31 11 48 11 68c0 30 -35 35 -59 35c-119 0 -119 -113 -119 -156v-129h295v-415h67v-14h-250v14h61v401h-173v-401h61v-14h-249z
" />
    <glyph glyph-name="fl" unicode="&#xfb02;" horiz-adv-x="611" 
d="M38 415v14h67c0 129 0 168 34 220c51 78 136 79 175 79c25 0 52 -4 75 -8s43 -8 51 -8h74v-698h66v-14h-244v14h56v557c-16 5 -42 12 -42 43c0 10 15 50 15 59c0 34 -36 41 -60 41c-75 0 -78 -75 -78 -140v-145h72v-14h-72v-401h55v-14h-244v14h67v401h-67z" />
    <glyph glyph-name="onesuperior" unicode="&#xb9;" horiz-adv-x="333" 
d="M147 305v360c-44 -26 -56 -32 -80 -42l-7 13c51 26 99 51 140 92h28v-423h57v-14h-196v14h58z" />
    <glyph glyph-name="threesuperior" unicode="&#xb3;" horiz-adv-x="333" 
d="M74 501l-8 13c11 7 22 14 34 17l68 18c41 11 48 63 48 96c0 47 -21 69 -58 69c-17 0 -40 -5 -40 -31c0 -6 6 -30 6 -35c0 -27 -29 -33 -41 -33c-2 0 -38 0 -38 34c0 70 98 79 131 79c52 0 126 -23 126 -91c0 -66 -69 -85 -123 -99v-2c63 -5 137 -42 137 -118
c0 -77 -76 -137 -169 -137c-70 0 -117 31 -134 99h15c14 -46 55 -85 106 -85c88 0 93 66 93 139c0 26 0 93 -74 93c-10 0 -49 -1 -79 -26z" />
    <glyph glyph-name="twosuperior" unicode="&#xb2;" horiz-adv-x="333" 
d="M103 357h92c60 0 92 0 99 60h14v-126h-288v14l10 9c144 129 181 167 181 295c0 105 -30 105 -52 105c-48 0 -48 -28 -48 -42c0 -5 6 -28 6 -33c0 -19 -20 -31 -41 -31c-17 0 -39 9 -39 29c0 62 75 91 127 91c72 0 137 -42 137 -119c0 -16 0 -61 -67 -125z" />
    <glyph glyph-name="uni2010" unicode="&#x2010;" horiz-adv-x="370" 
d="M91 166v98h188v-98h-188z" />
    </font>
</defs>
</svg>
